<svg width="693" height="800" fill="none" xmlns="http://www.w3.org/2000/svg"><g opacity=".08" filter="url(#filter0_d)" fill-rule="evenodd" clip-rule="evenodd"><path d="M586.402 1.88c-8.486 0-15.392 6.847-15.392 15.27 0 8.429 6.906 15.29 15.392 15.29 8.478 0 15.365-6.861 15.365-15.29 0-8.423-6.887-15.27-15.365-15.27zM689.74-40.444l4.161 52.997 4.138-52.997h-8.299zm-7.925 78.011c-3.345 3.38-5.432 8.018-5.432 13.135 0 10.343 8.473 18.76 18.872 18.76 10.394 0 18.859-8.417 18.859-18.76 0-10.345-8.465-18.756-18.859-18.756a18.844 18.844 0 00-13.285 5.455c-.05.055-.106.111-.155.166zm10.071 75.913h4.199c32.405 0 55.626-.055 79.218-3.799l15.391-6.269a695.368 695.368 0 00-96.286-6.513c-32.054-.081-64.88 2.117-96.09 6.36l16.655 6.797c22.861 3.399 45.481 3.424 76.913 3.424zM585.823 65.543c9.546.315 17.554-7.148 17.875-16.649.149-4.297-1.362-8.214-3.889-11.298a24.477 24.477 0 01-13.41 3.983 24.57 24.57 0 01-13.457-4.002c-2.286 2.79-3.723 6.312-3.859 10.178-.31 9.495 7.196 17.475 16.74 17.788z" fill="#fff"/><path d="M650.743 605.412v-.136a151.144 151.144 0 0185.478-.172 143.358 143.358 0 0111.236 3.726l-30.962-204.973-22.608-149.699-22.613 149.661c.062.013.13.032.205.038L640.51 608.83c3.35-1.276 6.782-2.389 10.233-3.418z" fill="#FFFFFE"/><path d="M693.985 88.686v-.006h.767c-.111 0-.234.005-.353.005 37.572-.092 75.087 2.87 111.203 8.645l7.921-3.22c.012-6.693.025-18.656.019-19.216a26.493 26.493 0 01-9.7 1.853c-9.476 0-17.775-4.982-22.465-12.444-4.44 6.342-11.816 10.523-20.166 10.523-13.565 0-24.595-10.96-24.595-24.414 0-13.492 11.03-24.439 24.595-24.439 8.35 0 15.72 4.168 20.166 10.51a24.143 24.143 0 012.063-2.85c-2.905-3.153-4.998-7.02-5.933-11.342-21.505.585-39.28 5.523-57.206 15.904 1.908 3.769 3.017 8.011 3.017 12.511 0 15.376-12.591 27.912-28.063 27.912-15.479 0-28.071-12.536-28.071-27.911 0-4.057.886-7.9 2.459-11.378-18.624-11.195-36.913-16.447-59.23-17.044-.705 3.264-2.08 6.261-3.944 8.91a26.455 26.455 0 014.316 6.964c4.261-7.278 12.158-12.186 21.207-12.186 13.558 0 24.589 10.947 24.589 24.439 0 13.453-11.031 24.414-24.589 24.414-9.83 0-18.314-5.8-22.229-14.126-4.614 8.584-13.831 14.328-24.248 13.984-5.426-.179-8.579-1.73-11.162-2.482l-.006 21.298 9.006 3.664c35.75-5.646 73.562-8.546 110.632-8.478z" fill="#fff"/><path d="M647.384 50.407c0-8.435-6.888-15.288-15.385-15.288-8.462 0-15.348 6.853-15.348 15.288 0 8.417 6.886 15.264 15.348 15.264 8.497 0 15.385-6.847 15.385-15.264zm10.428 198.917c-8.616-4.298-17.478-8.701-26.193-12.038v64.135c3.351 5.572 27.865 44.198 36.028 55.595l14.475-96.265c-5.796-2.592-18.661-8.626-24.31-11.427zM346.917 780.602c-.31 20.842 2.88 80.108 4.669 89.024 5.228 26.119 11.415 49.555 20.494 63.507 2.397-6.933 24.794-71.223 29.967-96.726 0 0-3.135-30.393-4.064-46.501l-51.066-9.304z" fill="#fff"/><path d="M542.521 750.363c0-17.511 4.503-37.326 10.103-53.157.155-.455-296.035 57.017-296.035 57.017s296.264 52.35 296.177 52.135c-6.949-17.321-10.245-36.218-10.245-55.995z" fill="#FFFFFE"/><path d="M488.168 639.501c.687.068 11.614 2.007 21.826-4.618l-14.258-27.449c-2.457 6.864-6.422 19.487-7.568 32.067zm-65.704 10.121c-6.634 20.714-11.248 45.238-13.801 65.343l34.958-6.632c.96-14.113 6.919-53.317 7.599-60.059 0 0-5.283-.32-10.658-1.551l.16-4.564c-3.753 2.691-10.82 6.208-18.258 7.463zm116.296 40.665l-24.663-47.486c-5.183 2.168-14.363 4.958-17.856 5.148-4.584 14.285-6.349 36.267-7.055 51.741l49.574-9.403zm-98.855 187.618c6.059-23.977 14.049-51.163 25.63-75.693l-59.261-10.807c.775 13.892 2.144 30.356 3.555 43.115 7.581 18.44 22.997 38.342 30.076 43.385zm-198.849-230.89c22.148-.696 38.06-5.781 56.3-16.957l.787-3.48c9.65-42.541 30.913-89.028 60.141-119.557 1.889-1.982 7.941-6.865 10.634-9.458-4.013 2.653-13.279 7.543-15.93 8.423-8.418 2.809-15.156 2.346-20.551-.344-3.226-1.602-6.85-4.846-8.492-11.034-52.429 35.898-74.225 113.825-79.7 138.178-1.262 6.219-2.694 13.004-3.189 14.229zm204.724-7.91c11.204 2.593 27.951-.406 34.25-8.035 2.454-9.512 6.33-23.896 9.984-34.617l-16.717-32.19c-9.531 20.546-20.916 45.719-27.517 74.842zM372.526 425.5c-14.821 5.117-44.966 5-48.447 2.235-20.693 21.951-39.374 45.257-42.923 58.599v1.121c0 2.359.757 3.886 2.491 4.951 5.351 3.288 20.104 1.946 41.046-8.337 8.962-12.234 43.473-53.126 47.833-58.569zm.065 223.354c-8.411 30.275-15.199 56.875-19.237 76.596l46.495-8.822c2.491-20.867 7.383-46.47 14.19-68.07-2.935-.506-15.342-1.533-15.342-1.533l.856-7.019c-7.588 4.851-17.008 7.455-26.962 8.848zM173.975 479.979c-.297 4.588 4.007 7.955 6.75 9.088 6.565 2.68 18.978-3.318 36.079-11.81 13.024-24.973 43.201-57.867 73.687-84.527-18.142 2.21-32.071 3.114-41.554-5.419-.546-.498-1.022-.64-.607-.185-37.355 27.862-69.747 65.33-74.355 92.853zm361.911 72.335l36.815 18.725-.954-44.906-35.861 26.181zm55.563 28.265l37.696 18.971-15.862-52.756-21.834 33.785zM280.457 768.494c-.234 1.754-.681 5.376-.836 6.544-7.512 55.51-8.052 114.03 1.822 162.691 1.641 7.549 3.951 19.1 7.389 28.922 6.435 18.404 22.321 45.739 22.321 45.739 2.973-10.31 8.56-33.309 12.864-46.964 8.43-26.607 15.658-50.842 20.229-82.423.763-6.023-1.777-24.673-2.588-34.963-2.051-26.439-3.419-49.092-2.961-68.937l-58.24-10.609z" fill="#fff"/><path d="M553.562 693.043c14.24-35.571 44.31-64.609 78.884-80.951.457-.222-164.462-81.973-164.462-81.973l85.578 162.924z" fill="#FFFFFE"/><path d="M155.707 826.87c3.71-1.878 3.598-6.298 3.098-9.531-.856-5.51-3.315-12.955-4.579-16.077-6.472-16.095-18.556-26.132-22.594-29.561-2.812-2.383-8.337-4.157-8.337-4.157-2.526-.664-5.326-.511-7.766.474a9.231 9.231 0 00-.422.185c-1.783.808-2.948 1.767-3.963 3.726-1.022 1.957-2.292 8.799-3.927 10.288-.428.389-.812.648-1.177.782-4.113 1.657-4.156-11.31-4.212-11.551.929-.935 5.612-2.771 7.612-5.11 1.127-1.576 5.246-6.921 5.259-10.012-.279-4.643-6.628-4.661-11.087-2.864-.056.025-.118.044-.18.068-.96-1.465-2.706-2.253-4.478-1.834a3.03 3.03 0 00-.377.117c-2.385.972-5.742 5.462-5.742 5.462 4.292-8.646-2.577-18.756-11.954-15.456l-4.05-9.39-5.68 2.34-5.71 2.254 3.647 9.531c-9.042 4.119-6.893 16.138 2.236 19.371 0 0-5.555-.899-7.94.062-.124.049-.254.11-.353.172-1.573.917-2.267 2.716-1.933 4.421-.062.018-.13.05-.18.062-4.452 1.798-9.005 6.188-5.964 9.728 2.174 2.217 8.876 3.202 10.784 3.553 3.09.314 7.735-1.613 9.049-1.6.13.221 9.172 9.568 5.06 11.23-.353.136-.812.216-1.394.229-2.211.073-7.91-3.96-10.015-4.656-2.1-.708-3.623-.584-5.457.062a6.581 6.581 0 00-.44.166 12.368 12.368 0 00-5.902 5.037s-2.725 5.074-3.072 8.743c-.502 5.253-2.162 20.818 4.453 36.858 1.288 3.122 4.726 10.16 7.965 14.716 1.908 2.667 4.918 5.912 8.9 4.687.124-.032.26-.081.403-.136 4.342-1.75 15.788-12.032 16.215-12.474.843 2.529 18.439 15.503 21.622 15.165-.117.474 17.306-6.54 16.878-6.798 2.533-1.94 6.089-23.459 4.918-25.843.638.019 16.047-.517 20.395-2.265.144-.062.267-.117.391-.174zm201.976-470.447c-10.658 4.285-25.32 13.797-41.125 26.15 0 0-17.578 16.644-17.565 16.661 1.858 3.295 22.786 4.507 48.979-5.732 9.445-8.737 17.838-15.929 23.82-20.394-1.547-3.731-3.505-7.037-5.913-9.864-2.286-2.684-5.062-4.913-8.196-6.821zm223.636 463.751l112.931-197.99 111.919 197.99h-224.85zm223.471 16.544c18.661-23.846 29.816-53.809 29.816-86.356 0-63.582-42.533-117.427-100.697-134.718-12.741-3.78-26.194-5.849-40.141-5.849a140.313 140.313 0 00-39.727 5.745c.013.036.013.061.024.104-58.158 17.291-100.709 71.136-100.709 134.718 0 32.547 11.162 62.51 29.817 86.356 25.821 32.671 65.764 54.241 110.595 54.241 45.071 0 85.224-21.262 111.022-54.241z" fill="#fff"/><path d="M694.209 644.096l-94.28 165.307h187.707l-93.427-165.307zM250.853 1064.86l28.907-98.729c-2.899-10.319-5.568-21.643-7.804-33.304-10.405-59.075-5.842-114.984-1.821-148.887-27.978 25.683-40.13 32.998-59.572 36.022-1.288 14.365-2.403 24.45-2.718 45.312-.057 4.18-.068 8.454-.057 12.746-.068 56.887 6.69 116.202 23.122 155.66l19.943 31.18zm208.889-417.184c-1.598 7.894-6.602 45.676-7.575 59.037l28.579-5.425c.655-15.405 2.433-38.169 6.917-53.539-3.499-.547-6.348-.517-7.903-1.557 0 0 .032-3.867.18-6.865-8.758 6.551-13.632 7.327-20.198 8.349zM137.531 764.807l.229.203c4.85 4.101 17.732 15.018 24.911 32.886 1.462 3.633 4.15 11.761 5.122 18.067.125.849.136 1.595.199 2.382 8.913-5.387 19.064-13.909 32.021-26.728 7.172-51.969 21.264-100.55 41.331-136.449-1.79.068-10.561.093-10.561.093s1.456-11.317 2.638-15.553c-14.715 9.181-31.221 16.994-55.29 17.246-16.872 27.284-32.046 46.199-49.048 103.075 2.477 1.015 5.915 2.635 8.448 4.778zm469.027-627.08c-28.152-4.679-52.685-8.509-75.204-13.546-.162 2.068-.601 4.039-1.233 5.923.013.209.068.4.056.616-.174 2.328 1.332 4.778 3.555 7.315 15.298 17.518 76.628 34.303 127.782 37.825l15.063 1.435c-32.207-15.554-55.533-29.808-70.019-39.568zm-3.522-167.155l-44.496 9.649s4.138 3.633 12.35 5.228c8.212 1.606 63.052 0 63.052 0L606.751 3.496a24.192 24.192 0 013.989 10.529c23.617.677 43.592 6.472 63.362 18.38a28.206 28.206 0 0111.718-7.956c.043-.024.075-.036.105-.068-49.09-59.83-104.307-95.125-157.388-100.955l74.499 47.146zM209.812 781.879s-4.304 24.185-4.304 29.923c0 0 25.883 4.798 66.279-40.693.068-.468.465-3.128.612-4.088l-57.818-10.542c-2.823 13.596-4.769 25.4-4.769 25.4zm200.156-151.597l-2.013 10.092c15.44 4.069 26.336-3.399 30.572-7.636 7.878-27.112 18.58-54.665 29.637-78.377l-13.571-26.114c-16.16 27.69-34.877 68.242-44.625 102.035zm-249.746 17.325c36.717 5.036 56.22-6.478 75.891-19.433 4.516-18.886 15.07-53.932 28.794-77.989 8.027-14.113 14.996-29.272 37.546-49.26-9.903 2.131-17.911 1.681-23.152-1.539-2.62-1.619-4.477-3.837-5.493-6.545-17.925 5.819-31.024 9.033-40.426 8.503-26.913 27.554-45.487 72.953-66.805 129.38-1.834 4.777-5.766 15.19-6.355 16.883zm253.854-142.118c1.845 1.582 9.544 3.196 18.067 1.49-.842-.468-9.211-6.293-11.589-8.067-1.19 1.011-4.726 5-6.478 6.577zM276.678 739.995c7.062-36.943 17.169-70.126 27.111-84.873-1.785.019-10.003 0-10.003 0s.582-10.806 1.281-14.359c-13.868 7.296-28.033 11.638-43.708 13.436-17.021 24.956-29.167 68.544-35.689 97.366l61.008-11.57zm72.672-95.398c-8.9 7.753-21.218 9.557-34.609 10.228-9.786 8.159-20.905 42.38-28.992 83.451l59.204-11.225c3.951-19.895 10.344-46.655 18.804-77.251-4.72.34-9.483.468-14.177.468l-.23-5.671zm60.949-132.772c-3.692-.824-4.912-2.499-5.63-4.469-11.057 1.699-26.02 2.055-32.35-4.341-27.841 27.098-49.81 59.922-66.607 123.165-1.834 6.915-2.429 15.59-3.016 20.739 20.128-.074 43.324-1.201 49.134-18.527 13.459-46.809 26.924-87.7 58.469-116.567z" fill="#fff"/><path d="M441.028 514.067c-10.226 2.617-20.476 1.072-23.27.948-31.073 27.677-43.492 65.269-57.825 115.039-.65 2.48-2.595 10.713-2.31 11.976 16.81-.16 33.223-3.726 44.576-14.618 11.434-39.591 29.489-80.384 47.666-108.271l-.16-.302c-2.83-1.552-5.699-3.128-8.677-4.772zM255.544 382.525c7.242 7.561 40.148 2.695 47.674.134 16.221-13.28 31.867-24.241 44.278-30.596-5.674-1.649-12.139-2.525-19.498-2.549-21.411 2.734-47.704 15.565-72.454 33.011zm135.414 88.384c-7.513 8.756-12.326 16.336-14.951 22.117-2.495 5.487 8.578 8.165 11.408 8.626 0 0 16.959 1.744 22.559-3.558 1.9-1.725 3.443-3.522 4.34-4.262-7.598-6.274-15.087-15.233-23.356-22.923zm-163.489 20.568c6.491 4.66 25.536-.487 45.654-7.07 4.305-16.44 25.852-44.043 49.648-68.469-.272.733 5.438-6.17 7.711-8.535-17.744 3.911-34.146 3.566-38.611-4.045-.019-.049-65.679 58.581-67.914 78.014-.421 5.547 2.069 9.069 3.512 10.105zm105.25-71.89c1.046 2.918 30.038 2.918 42.011-3.565 1.777-13.756 1.666-25.233-.397-34.549-5.864 4.531-35.186 31.537-41.614 38.114zm-1.235 70.092c-1.964 5.634 3.697 9.05 6.696 9.673 4.552.942 12.386 2.346 31.457-11.551 3.66-5.357 10.875-13.99 16.165-22.702-9.347-10.043-11.551-18.38-13.651-22.247-14.952 13.502-35.731 35.989-40.667 46.827zm316.021 4.391c-7.036 7.777-32.932 33.274-32.387 32.708l18.71 58.767 13.677-91.475zm-488.39 133.066c20.723-54.843 39.081-99.318 65.261-128.066-.576-.315-1.212-.549-1.752-.931-4.057-2.906-5.785-7.197-6.503-11.366-17.312 8.541-29.266 13.694-38.55 9.889-4.2-1.73-7.507-5.191-10.034-10.536-1.406.74-2.762 1.502-4.088 2.236-9.19 5.104-17.385 9.494-32.622 10.166-.043.074-.086.153-.13.221-31.569 55.077-48.726 101.436-55.353 149.396 23.772 5.21 50.417 5.179 83.771-21.009z" fill="#fff"/><path d="M58.6 860.006c-.012-.024-.03-.043-.05-.068-3.71-5.196-7.475-12.887-8.974-16.52-7.34-17.801-5.723-34.542-5.122-40.848l.03-.295c.49-5.198 3.507-11.041 4.101-12.149l.112-.215.123-.197c.353-.585.725-1.14 1.128-1.681-.527-.413-1.04-.85-1.511-1.331l-.211-.221-.192-.222c-2.775-3.22-3.797-7.388-2.806-11.44 1.06-4.36 4.2-7.771 7.674-10.117a12.803 12.803 0 012.199-3.59 20.321 20.321 0 01-.91-5.103c-.199-4.625 1.275-8.911 4.044-12.31l-1.32-3.46-3.201-8.343 8.361-3.295 5.58-2.197 5.68-2.34 8.306-3.418 3.549 8.208 1.468 3.399c4.373.529 8.436 2.592 11.514 6.04a20.02 20.02 0 012.923 4.286c1.419.148 2.806.499 4.1 1.059 4.132-.702 8.783-.413 12.58 1.958 2.186 1.374 3.772 3.337 4.788 5.609 8.937-29.093 22.594-62.7 46.031-94.485-4.379-.295-17.733-2.524-17.733-2.524s1.692-10.037 3.209-13.208c-20.631 13.707-38.841 18.195-55.52 18.195-8.864 0-17.275-1.317-25.4-3.133 0 .019-.013.036-.02.049-3.158 6.329-9.884 19.444-10.114 19.303-10.287 22.394-20.278 47.584-28.782 77.183-.83 2.918-1.61 5.991-2.428 9.014-8.621 32.081-15.502 69.098-19.219 112.963 1.574-.018 10.976-1.347 14.853-2.419 12.61-3.492 22.886-7.826 31.16-12.137zm313.578-502.082c20.619 22.794 5.747 70.065 7.891 82.422 3.747 17.148 25.133 35.128 42.5 49.659 5.525 5.049 28.176 20.622 45.432 29.081l57.348 27.882 56.25-41.822v70.416l3.16 1.625 30.361-50.409-6.102-97.46c-15.675 32.358-37.601 55.232-63.292 68.008-13.274 6.601-34.573 10.326-34.573 10.326s39.316-62.102 41.429-65.994c-15.874 9.316-44.632 19.784-56.554 23.047-6.771 1.514-16.749 2.567-26.529-.726-3.022-1.023-20.42-8.633-36.468-26.651-8.59-10.368-18.965-27.226-20.941-41.284-3.635-25.929-12.733-44.062-27.178-58.495-12.908-12.869-31.544-15.881-31.55-15.855-10.616-2.34-22.489-2.538-35.57-.511 1.127 5.468 6.112 14.082 11.742 20.128 19.17.315 33.198 6.164 42.644 16.613zm-212.74 123.257a224.71 224.71 0 016.572-3.541c5.017-26.76 32.702-61.062 66.507-88.678-15.142 2.075-27.085-.702-33.873-8.338-32.771 24.304-72.621 62.196-80.84 106.98 1.245 1.051 5.271 2.708 10.158 2.825 15.032-.203 22.347-4.193 31.476-9.248zm88.264-104.16l2.41-.794c23.38-16.563 48.206-29.118 69.747-33.625-4.707-6.078-8.777-13.418-10.09-19.586-25.932 7.37-66.255 25.816-104.29 52.774 8.431 8.356 26.684 6.416 42.223 1.231zm302.91-356.509c6.627 0 12.027-5.351 12.027-11.908 0-6.59-5.4-11.946-12.027-11.946-6.609 0-11.998 5.357-11.998 11.946 0 6.557 5.389 11.908 11.998 11.908zm12.675 4.91c-3.537 2.635-7.91 4.243-12.673 4.243-3.085 0-6.014-.678-8.664-1.867 5.251 8.93 11.011 17.494 17.006 25.707 0-.09.886 1.066 2.218 2.852a25.81 25.81 0 01-1.288-8.91c.205-6.231 2.608-11.86 6.417-16.261a24.821 24.821 0 01-3.016-5.764zM529.881 4.205a21.088 21.088 0 014.95-9.649l-14.407-19.063c2.217 9.889 5.469 19.463 9.457 28.712z" fill="#fff"/><path d="M513.702 446.794c9.631-.485 26.46-6.015 47.017-19.641l12.919-8.565s-35.775 64.043-44.049 76.432c34.405-10.949 62.457-41.514 79.682-87.27l8.076-17.615 5.791 114.964c8.703-8.996 18.303-17.457 26.206-26.385l10.318-68.593h-.005l5.877-39.1c-9.619-13.571-33.366-52.522-34.344-54.177-2.373 37.935-14.536 64.669-37.001 81.454l-9.321 6.965s7.314-22.34 5.004-50.718c-.935-11.551-2.707-23.583-4.936-35.738-6.894 36.212-20.712 66.789-45.976 74.843-1.964 3.516-5.327 8.442-11.966 16.25-.025-.013-22.316 22.646-48.775 29.531 0 0 17.299 8.28 35.483 7.363zm48.796-170.616c1.734-20.658-5.147-52.184-5.147-52.184l7.563 3.75c26.471 13.171 45.609 37.079 58.437 58.655v-60.663l5.444 1.793c10.981 3.632 22.024 9.132 32.703 14.432a860.811 860.811 0 009.903 4.847c-10.145-12.15-43.256-67.899-43.256-67.899l.285-.03c-40.191-5.961-86.644-17.659-101.646-34.844-1.133-1.3-2.025-2.624-2.805-3.972-5.339 5.504-12.981 9.07-20.94 9.834 1.084 13.337 7.37 31.685 13.657 44.111l.433.88v20.941l1.182 1.644c.217.291.421.591.633.887 10.275 14.298 18.81 26.853 12.851 41.31 5.141 9.968 16.173 31.458 18.866 55.323 6.634-9.814 10.505-22.904 11.837-38.815z" fill="#fff"/><path d="M623.317 303.506c-10.765-21.156-28.571-48.311-54.597-64.252 2.613 15.616 3.177 29.587 1.914 41.933-1.957 18.933-8.288 33.994-18.593 45.015-.54 20.794.489 33.829-8.535 56.931 22.16-11.483 31.03-47.528 36.79-86.818.074-.493 2.267-21.305 2.335-21.797 0 0 13.112 52.602 15.112 74.688 1.103 12.167 1.469 23.922.143 34.912 16.952-17.528 25.289-44.062 25.431-80.612zM498.679 141.97c11.799 0 24.495-7.826 24.521-19.66l-54.339-14.858c7.886 19.992 20.174 34.518 29.818 34.518zm10.193 54.854c-6.448-13.01-13.119-32.326-14.116-47.092-14.853-3.097-29.445-25.546-36.698-45.995-13.948-4.986-25.772-10.16-35.544-15.547l86.358 116.473v-7.839zm-22.6-8.786L412.029 87.912s-17.132-6.225-47.512 5.887c-29.792 11.877-33.545 45.97-22.731 71.894 1.418-3.048 2.893-5.173 5.29-7.629 5.381-5.506 13-8.658 23.324-8.32 20 .604 33.347 7.044 46.255 13.263 6.225 3.012 12.133 5.832 18.767 8.092 0 0 38.197 12.019 50.85 16.939z" fill="#fff"/><path d="M470.571 191.009c-10.163-2.967-33.37-10.604-33.37-10.604-5.402 5.142-79.484 7.852-99.329 4.97-19.845-2.899-34.821-11.502-57.663-22.117 23.944 37.584 65.262 56.819 122.883 57.48 8.033-22.808 36.362-30.412 67.479-29.729zm167.28-63.92a156.196 156.196 0 01-3.643-1.262h-.011l-.038-.006c-45.951-16.138-174.011-73.125-185.123-74.018-11.421-.923-22.589 17.315-24.217 28.257 32.281 18.255 79.348 32.707 164.095 47.184 18.21 2.395 36.289 3.386 48.937-.155z" fill="#fff"/><path d="M511.588 222.259l-1.902-2.63-13.304-17.961c-35.941-5.719-79.503-2.739-86.308 24.305-4.584 18.28-3.6 35.601 3.04 52.663 12.412-27.69 26.968-43.502 57.242-43.545h.123c21.016 0 40.57 6.44 54.821 17.832 1.543-8.461-3.728-16.735-12.995-29.655-.241-.344-.47-.658-.717-1.009zM682.57 7.762l-13.422-46.729-16.426 16.293c10.133 9.186 20.106 19.359 29.848 30.436z" fill="#fff"/></g><defs><filter id="filter0_d" x="-2" y="-371" width="1391" height="1894" filterUnits="userSpaceOnUse" color-interpolation-filters="sRGB"><feFlood flood-opacity="0" result="BackgroundImageFix"/><feColorMatrix in="SourceAlpha" values="0 0 0 0 0 0 0 0 0 0 0 0 0 0 0 0 0 0 127 0" result="hardAlpha"/><feOffset/><feGaussianBlur stdDeviation="4"/><feColorMatrix values="0 0 0 0 0.105903 0 0 0 0 0.227442 0 0 0 0 0.508333 0 0 0 1 0"/><feBlend in2="BackgroundImageFix" result="effect1_dropShadow"/><feBlend in="SourceGraphic" in2="effect1_dropShadow" result="shape"/></filter></defs></svg>