<svg width="58" height="58" fill="none" xmlns="http://www.w3.org/2000/svg"><path fill-rule="evenodd" clip-rule="evenodd" d="M3.02 14.5a6.646 6.646 0 016.647-6.646h38.666A6.646 6.646 0 0154.98 14.5v24.167a6.646 6.646 0 01-6.646 6.646H34.35l1.813 3.625h4.921a1.813 1.813 0 010 3.625H16.917a1.813 1.813 0 010-3.625h4.921l1.813-3.625H9.667a6.646 6.646 0 01-6.646-6.646V14.5zm45.313 27.188H9.667a3.02 3.02 0 01-3.021-3.021V14.5a3.02 3.02 0 013.02-3.02h38.667a3.02 3.02 0 013.021 3.02v24.167a3.02 3.02 0 01-3.02 3.02z" fill="#fff"/></svg>