<svg preserveAspectRatio="none" width="905" height="1084" fill="none" xmlns="http://www.w3.org/2000/svg"><path fill-rule="evenodd" clip-rule="evenodd" d="M212.5 1.5h1.5v1h-1.5v-1zm4.5 0h3v1h-3v-1zm6 0h3v1h-3v-1zm6 0h3v1h-3v-1zm6 0h3v1h-3v-1zm6 0h3v1h-3v-1zm6 0h3v1h-3v-1zm6 0h3v1h-3v-1zm6 0h3v1h-3v-1zm6 0h3v1h-3v-1zm6 0h3v1h-3v-1zm6 0h3v1h-3v-1zm6 0h3v1h-3v-1zm6 0h3v1h-3v-1zm6 0h3v1h-3v-1zm6 0h3v1h-3v-1zm6 0h3v1h-3v-1zm6 0h3v1h-3v-1zm6 0h3v1h-3v-1zm6 0h3v1h-3v-1zm6 0h3v1h-3v-1zm6 0h3v1h-3v-1zm6 0h3v1h-3v-1zm6 0h3v1h-3v-1zm6 0h3v1h-3v-1zm6 0h3v1h-3v-1zm6 0h3v1h-3v-1zm6 0h3v1h-3v-1zm6 0h3v1h-3v-1zm6 0h3v1h-3v-1zm6 0h3v1h-3v-1zm6 0h3v1h-3v-1zm6 0h3v1h-3v-1zm6 0h3v1h-3v-1zm6 0h3v1h-3v-1zm6 0h3v1h-3v-1zm6 0h3v1h-3v-1zm6 0h3v1h-3v-1zm6 0h3v1h-3v-1zm6 0h3v1h-3v-1zm6 0h3v1h-3v-1zm6 0h3v1h-3v-1zm6 0h3v1h-3v-1zm6 0h3v1h-3v-1zm6 0h3v1h-3v-1zm6 0h3v1h-3v-1zm6 0h3v1h-3v-1zm6 0h3v1h-3v-1zm6 0h3v1h-3v-1zm6 0h3v1h-3v-1zm6 0h3v1h-3v-1zm6 0h3v1h-3v-1zm6 0h3v1h-3v-1zm6 0h3v1h-3v-1zm6 0h3v1h-3v-1zm6 0h3v1h-3v-1zm6 0h3v1h-3v-1zm6 0h3v1h-3v-1zm6 0h3v1h-3v-1zm6 0h3v1h-3v-1zm6 0h3v1h-3v-1zm6 0h3v1h-3v-1zm6 0h3v1h-3v-1zm6 0h3v1h-3v-1zm6 0h3v1h-3v-1zm6 0h3v1h-3v-1zm6 0h3v1h-3v-1zm6 0h3v1h-3v-1zm6 0h3v1h-3v-1zm6 0h3v1h-3v-1zm6 0h3v1h-3v-1zm6 0h3v1h-3v-1zm6 0h3v1h-3v-1zm6 0h3v1h-3v-1zm6 0h3v1h-3v-1zm6 0h3v1h-3v-1zm6 0h3v1h-3v-1zm6 0h3v1h-3v-1zm6 0h3v1h-3v-1zm6 0h3v1h-3v-1zm6 0h3v1h-3v-1zm6 0h3v1h-3v-1zm6 0h3v1h-3v-1zm6 0h3v1h-3v-1zm6 0h3v1h-3v-1zm6 0h3v1h-3v-1zm6 0h3v1h-3v-1zm6 0h3v1h-3v-1zm6 0h3v1h-3v-1zm6 0h3v1h-3v-1zm6 0h3v1h-3v-1zm6 0h3v1h-3v-1zm6 0h3v1h-3v-1zm6 0h3v1h-3v-1zm6 0h3v1h-3v-1zm6 0h3v1h-3v-1zm6 0h3v1h-3v-1zm6 0h3v1h-3v-1zm6 0h3v1h-3v-1zm6 0h3v1h-3v-1zm6 0h3v1h-3v-1zm6 0h3v1h-3v-1zm6 0h3v1h-3v-1zm6 0h3v1h-3v-1zm6 0h3v1h-3v-1zm6 0h3v1h-3v-1zm6 0h3v1h-3v-1zm6 0h3v1h-3v-1zm6 0h3v1h-3v-1zm6 0h3v1h-3v-1zm6 0h3v1h-3v-1zm6 0h3v1h-3v-1zm6 0h3v1h-3v-1zm6 0h3v1h-3v-1zm6 0h3v1h-3v-1zm6 0h2v1.995h-1V2.5h-1v-1zm2 4.99v2.993h-1V6.49h1zm0 5.987v2.994h-1v-2.994h1zm0 5.988v2.994h-1v-2.994h1zm0 5.988v2.994h-1v-2.994h1zm0 5.988v2.994h-1v-2.994h1zm0 5.988v2.994h-1V36.43h1zm0 5.988v2.994h-1v-2.994h1zm0 5.988V51.4h-1v-2.995h1zm0 5.989v2.994h-1v-2.994h1zm0 5.988v2.994h-1v-2.994h1zm0 5.988v2.994h-1V66.37h1zm0 5.988v2.994h-1v-2.994h1zm0 5.988v2.994h-1v-2.994h1zm0 5.988v2.994h-1v-2.994h1zm0 5.988v2.994h-1v-2.994h1zm0 5.988v2.994h-1V96.31h1zm0 5.988v2.994h-1v-2.994h1zm0 5.988v2.994h-1v-2.994h1zm0 5.988v2.994h-1v-2.994h1zm0 5.988v2.994h-1v-2.994h1zm0 5.988v2.994h-1v-2.994h1zm0 5.988v2.994h-1v-2.994h1zm0 5.988v2.994h-1v-2.994h1zm0 5.988v2.994h-1v-2.994h1zm0 5.988v2.994h-1v-2.994h1zm0 5.988v2.994h-1v-2.994h1zm0 5.988v2.994h-1v-2.994h1zm0 5.988v2.994h-1v-2.994h1zm0 5.988v2.994h-1v-2.994h1zm0 5.988v2.994h-1v-2.994h1zm0 5.988v2.994h-1v-2.994h1zm0 5.988v2.994h-1v-2.994h1zm0 5.988v2.994h-1v-2.994h1zm0 5.988v2.994h-1v-2.994h1zm0 5.988v2.994h-1v-2.994h1zm0 5.988v2.994h-1v-2.994h1zm0 5.989v2.994h-1v-2.994h1zm0 5.988v2.994h-1v-2.994h1zm0 5.988v2.994h-1v-2.994h1zm0 5.988v2.994h-1v-2.994h1zm0 5.988v2.994h-1v-2.994h1zm0 5.988v2.994h-1v-2.994h1zm0 5.988v2.994h-1v-2.994h1zm0 5.988v2.994h-1v-2.994h1zm0 5.988v2.994h-1v-2.994h1zm0 5.988v2.994h-1v-2.994h1zm0 5.988v2.994h-1v-2.994h1zm0 5.988v2.994h-1v-2.994h1zm0 5.988v2.994h-1v-2.994h1zm0 5.988v2.994h-1v-2.994h1zm0 5.988v2.994h-1v-2.994h1zm0 5.988v2.994h-1v-2.994h1zm0 5.988v2.994h-1v-2.994h1zm0 5.988v2.994h-1v-2.994h1zm0 5.988v2.994h-1v-2.994h1zm0 5.988v2.994h-1v-2.994h1zm0 5.988v2.994h-1v-2.994h1zm0 5.988v2.994h-1v-2.994h1zm0 5.988v2.994h-1v-2.994h1zm0 5.988v2.994h-1v-2.994h1zm0 5.988v2.994h-1v-2.994h1zm0 5.988v2.995h-1v-2.995h1zm0 5.988v2.995h-1v-2.995h1zm0 5.989v2.994h-1v-2.994h1zm0 5.988v2.994h-1v-2.994h1zm0 5.988v2.994h-1v-2.994h1zm0 5.988v2.994h-1V401.7h1zm0 5.988v2.994h-1v-2.994h1zm0 5.988v2.994h-1v-2.994h1zm0 5.988v2.994h-1v-2.994h1zm0 5.988v2.994h-1v-2.994h1zm0 5.988v2.994h-1v-2.994h1zm0 5.988v2.994h-1v-2.994h1zm0 5.988v2.994h-1v-2.994h1zm0 5.988v2.994h-1v-2.994h1zm0 5.988v2.994h-1v-2.994h1zm0 5.988v2.994h-1v-2.994h1zm0 5.988v2.994h-1v-2.994h1zm0 5.988v2.994h-1v-2.994h1zm0 5.988v2.994h-1v-2.994h1zm0 5.988v2.994h-1v-2.994h1zm0 5.988v2.994h-1v-2.994h1zm0 5.988v2.994h-1v-2.994h1zm0 5.988v2.994h-1v-2.994h1zm0 5.988v2.994h-1v-2.994h1zm0 5.988v2.994h-1v-2.994h1zm0 5.988v2.994h-1v-2.994h1zm0 5.988v2.994h-1v-2.994h1zm0 5.988v2.994h-1v-2.994h1zm0 5.988v2.994h-1v-2.994h1zm0 5.989v2.994h-1v-2.994h1zm0 5.988v2.994h-1v-2.994h1zm0 5.988v2.994h-1v-2.994h1zm0 5.988v2.994h-1v-2.994h1zm0 5.988v2.994h-1v-2.994h1zm0 5.988v2.994h-1v-2.994h1zm0 5.988v2.994h-1v-2.994h1zm0 5.988v2.994h-1v-2.994h1zm0 5.988v2.994h-1v-2.994h1zm0 5.988v2.994h-1v-2.994h1zm0 5.988v2.994h-1v-2.994h1zm0 5.988v2.994h-1v-2.994h1zm0 5.988v2.994h-1v-2.994h1zm0 5.988v2.994h-1v-2.994h1zm0 5.988v2.994h-1v-2.994h1zm0 5.988v2.994h-1v-2.994h1zm0 5.988v2.994h-1v-2.994h1zm0 5.988v2.994h-1v-2.994h1zm0 5.988v2.994h-1v-2.994h1zm0 5.988v2.994h-1v-2.994h1zm0 5.988v2.994h-1v-2.994h1zm0 5.988v2.994h-1v-2.994h1zm0 5.988v2.994h-1v-2.994h1zm0 5.988v2.994h-1v-2.994h1zm0 5.988v2.994h-1v-2.994h1zm0 5.988v2.994h-1v-2.994h1zm0 5.989v2.993h-1v-2.993h1zm0 5.988v2.994h-1v-2.994h1zm0 5.988v2.994h-1v-2.994h1zm0 5.988v2.994h-1v-2.994h1zm0 5.988v2.994h-1v-2.994h1zm0 5.988v2.994h-1v-2.994h1zm0 5.988v2.994h-1v-2.994h1zm0 5.988v2.994h-1v-2.994h1zm0 5.988V752h-1v-2.994h1zm0 5.988v2.994h-1v-2.994h1zm0 5.988v2.994h-1v-2.994h1zm0 5.988v2.994h-1v-2.994h1zm0 5.988v2.994h-1v-2.994h1zm0 5.988v2.994h-1v-2.994h1zm0 5.988v2.994h-1v-2.994h1zm0 5.988v2.994h-1v-2.994h1zm0 5.988v2.994h-1v-2.994h1zm0 5.988v2.994h-1v-2.994h1zm0 5.988v2.994h-1v-2.994h1zm0 5.988v2.994h-1v-2.994h1zm0 5.988v2.994h-1v-2.994h1zm0 5.988v2.994h-1v-2.994h1zm0 5.988v2.994h-1v-2.994h1zm0 5.988v2.994h-1v-2.994h1zm0 5.988v2.994h-1v-2.994h1zm0 5.988v2.994h-1v-2.994h1zm0 5.988v2.994h-1v-2.994h1zm0 5.988v2.994h-1v-2.994h1zm0 5.988v2.994h-1v-2.994h1zm0 5.989v2.994h-1v-2.994h1zm0 5.988v2.994h-1v-2.994h1zm0 5.988v2.994h-1v-2.994h1zm0 5.988v2.994h-1v-2.994h1zm0 5.988v2.994h-1v-2.994h1zm0 5.988v2.994h-1v-2.994h1zm0 5.988v2.994h-1v-2.994h1zm0 5.988v2.994h-1v-2.994h1zm0 5.988v2.994h-1v-2.994h1zm0 5.988v2.994h-1v-2.994h1zm0 5.988v2.994h-1v-2.994h1zm0 5.988v2.994h-1v-2.994h1zm0 5.988v2.994h-1v-2.994h1zm0 5.988v2.994h-1v-2.994h1zm0 5.988v2.994h-1v-2.994h1zm0 5.988v2.994h-1v-2.994h1zm0 5.988v2.994h-1v-2.994h1zm0 5.988v2.994h-1v-2.994h1zm0 5.988v2.994h-1v-2.994h1zm0 5.988v2.994h-1v-2.994h1zm0 5.988v2.994h-1v-2.994h1zm0 5.985v2h-2v-1h1v-1h1zm-900.997 1H4v1H2.997l-.007 1.04h-1l.013-2.04zm7.997 1H7v-1h3v1zm6 0h-3v-1h3v1zm6 0h-3v-1h3v1zm6 0h-3v-1h3v1zm6 0h-3v-1h3v1zm6 0h-3v-1h3v1zm6 0h-3v-1h3v1zm6 0h-3v-1h3v1zm6 0h-3v-1h3v1zm6 0h-3v-1h3v1zm6 0h-3v-1h3v1zm6 0h-3v-1h3v1zm6 0h-3v-1h3v1zm6 0h-3v-1h3v1zm6 0h-3v-1h3v1zm6 0h-3v-1h3v1zm6 0h-3v-1h3v1zm6 0h-3v-1h3v1zm6 0h-3v-1h3v1zm6 0h-3v-1h3v1zm6 0h-3v-1h3v1zm6 0h-3v-1h3v1zm6 0h-3v-1h3v1zm6 0h-3v-1h3v1zm6 0h-3v-1h3v1zm6 0h-3v-1h3v1zm6 0h-3v-1h3v1zm6 0h-3v-1h3v1zm6 0h-3v-1h3v1zm6 0h-3v-1h3v1zm6 0h-3v-1h3v1zm6 0h-3v-1h3v1zm6 0h-3v-1h3v1zm6 0h-3v-1h3v1zm12 0h-3v-1h3v1zm6 0h-3v-1h3v1zm-12 0h-3v-1h3v1zm18 0h-3v-1h3v1zm6 0h-3v-1h3v1zm6 0h-3v-1h3v1zm6 0h-3v-1h3v1zm6 0h-3v-1h3v1zm6 0h-3v-1h3v1zm6 0h-3v-1h3v1zm6 0h-3v-1h3v1zm6 0h-3v-1h3v1zm6 0h-3v-1h3v1zm6 0h-3v-1h3v1zm6 0h-3v-1h3v1zm6 0h-3v-1h3v1zm6 0h-3v-1h3v1zm6 0h-3v-1h3v1zm6 0h-3v-1h3v1zm6 0h-3v-1h3v1zm6 0h-3v-1h3v1zm6 0h-3v-1h3v1zm6 0h-3v-1h3v1zm6 0h-3v-1h3v1zm6 0h-3v-1h3v1zm6 0h-3v-1h3v1zm6 0h-3v-1h3v1zm6 0h-3v-1h3v1zm6 0h-3v-1h3v1zm6 0h-3v-1h3v1zm6 0h-3v-1h3v1zm6 0h-3v-1h3v1zm6 0h-3v-1h3v1zm6 0h-3v-1h3v1zm6 0h-3v-1h3v1zm6 0h-3v-1h3v1zm6 0h-3v-1h3v1zm6 0h-3v-1h3v1zm6 0h-3v-1h3v1zm6 0h-3v-1h3v1zm6 0h-3v-1h3v1zm6 0h-3v-1h3v1zm6 0h-3v-1h3v1zm6 0h-3v-1h3v1zm6 0h-3v-1h3v1zm6 0h-3v-1h3v1zm6 0h-3v-1h3v1zm6 0h-3v-1h3v1zm6 0h-3v-1h3v1zm6 0h-3v-1h3v1zm6 0h-3v-1h3v1zm6 0h-3v-1h3v1zm6 0h-3v-1h3v1zm6 0h-3v-1h3v1zm6 0h-3v-1h3v1zm6 0h-3v-1h3v1zm6 0h-3v-1h3v1zm6 0h-3v-1h3v1zm6 0h-3v-1h3v1zm6 0h-3v-1h3v1zm6 0h-3v-1h3v1zm6 0h-3v-1h3v1zm6 0h-3v-1h3v1zm6 0h-3v-1h3v1zm6 0h-3v-1h3v1zm6 0h-3v-1h3v1zm6 0h-3v-1h3v1zm6 0h-3v-1h3v1zm6 0h-3v-1h3v1zm6 0h-3v-1h3v1zm6 0h-3v-1h3v1zm6 0h-3v-1h3v1zm6 0h-3v-1h3v1zm6 0h-3v-1h3v1zm6 0h-3v-1h3v1zm6 0h-3v-1h3v1zm6 0h-3v-1h3v1zm6 0h-3v-1h3v1zm6 0h-3v-1h3v1zm6 0h-3v-1h3v1zm6 0h-3v-1h3v1zm6 0h-3v-1h3v1zm6 0h-3v-1h3v1zm6 0h-3v-1h3v1zm6 0h-3v-1h3v1zm6 0h-3v-1h3v1zm6 0h-3v-1h3v1zm6 0h-3v-1h3v1zm6 0h-3v-1h3v1zm6 0h-3v-1h3v1zm6 0h-3v-1h3v1zm6 0h-3v-1h3v1zm6 0h-3v-1h3v1zm6 0h-3v-1h3v1zm6 0h-3v-1h3v1zm6 0h-3v-1h3v1zm6 0h-3v-1h3v1zm6 0h-3v-1h3v1zm6 0h-3v-1h3v1zm6 0h-3v-1h3v1zm6 0h-3v-1h3v1zm6 0h-3v-1h3v1zm6 0h-3v-1h3v1zm6 0h-3v-1h3v1zm6 0h-3v-1h3v1zm6 0h-3v-1h3v1zm6 0h-3v-1h3v1zm6 0h-3v-1h3v1zm6 0h-3v-1h3v1zm6 0h-3v-1h3v1zm6 0h-3v-1h3v1zm6 0h-3v-1h3v1zm6 0h-3v-1h3v1zm6 0h-3v-1h3v1zm6 0h-3v-1h3v1zm-895.029 4.12l-.02 3.08-1-.01.02-3.08 1 .01zm-.038 6.15l-.02 3.08-1-.01.02-3.07h1zm-.039 6.16l-.019 3.07h-1l.02-3.08 1 .01zm-.038 6.15l-.02 3.08-1-.01.02-3.08 1 .01zm-.039 6.15l-.019 3.08-1-.01.02-3.07h1zm-.038 6.16l-.02 3.07h-1l.02-3.08 1 .01zm-.039 6.15l-.019 3.08-1-.01.02-3.07h1zm-.038 6.16l-.02 3.07h-1l.02-3.08 1 .01zm-.039 6.15l-.019 3.08-1-.01.02-3.08 1 .01zm-.038 6.15l-.02 3.08-1-.01.02-3.07h1zm-.038 6.16l-.02 3.07h-1l.02-3.08 1 .01zm-.039 6.15l-.02 3.08-1-.01.02-3.08 1 .01zm-.038 6.15L2.5 1082h-1l.01-1.54h1z" fill="#fff" fill-opacity=".3"/></svg>