<svg width="91" height="238" fill="none" xmlns="http://www.w3.org/2000/svg"><path fill-rule="evenodd" clip-rule="evenodd" d="M87.372 2.5h1.13v-1h-1.834l-.628 1.755.942.337.39-1.092zm-2.427 6.787l1.019-2.847-.942-.337-1.018 2.848.941.336zm-2.036 5.695l1.018-2.847-.942-.337-1.018 2.848.942.336zm-2.037 5.695l1.018-2.847-.941-.337-1.019 2.848.942.336zm-2.037 5.696l1.019-2.848-.942-.337-1.018 2.848.941.337zM76.8 32.068l1.018-2.848-.941-.336-1.019 2.847.942.337zm-2.037 5.695l1.019-2.848-.942-.336-1.018 2.847.941.337zm-2.036 5.695l1.018-2.848-.942-.336-1.018 2.847.942.337zm-2.037 5.695l1.018-2.847-.941-.337-1.019 2.847.942.337zm-2.036 5.695l1.018-2.847-.942-.337-1.018 2.847.942.337zm-2.037 5.695l1.018-2.847-.941-.337-1.019 2.848.942.336zm-2.037 5.696l1.019-2.848-.942-.337-1.018 2.848.941.337zm-2.036 5.695l1.018-2.848-.942-.337-1.018 2.848.942.337zm-2.037 5.695l1.019-2.848-.942-.337-1.018 2.848.941.337zm-2.036 5.695l1.018-2.848-.942-.336-1.018 2.847.942.337zm-2.037 5.695l1.018-2.848-.941-.336-1.019 2.847.942.337zm-2.037 5.695l1.019-2.847-.942-.337-1.018 2.847.941.337zm-2.036 5.695l1.018-2.847-.941-.337-1.019 2.847.942.337zm-2.037 5.695l1.019-2.847-.942-.337-1.018 2.848.941.336zm-2.036 5.695l1.018-2.847-.942-.337-1.018 2.848.942.336zm-2.037 5.696l1.018-2.848-.941-.337-1.018 2.848.941.337zm-2.036 5.695l1.018-2.848-.942-.337-1.018 2.848.942.337zm-2.037 5.695l1.018-2.848-.941-.336-1.019 2.847.942.337zm-2.037 5.695l1.019-2.848-.942-.336-1.018 2.847.941.337zm-2.036 5.695l1.018-2.848-.942-.336-1.018 2.847.942.337zm-2.037 5.695l1.019-2.847-.942-.337-1.018 2.847.941.337zm-2.036 5.695l1.018-2.847-.942-.337-1.018 2.848.942.336zm-2.037 5.695l1.018-2.847-.941-.337-1.019 2.848.942.336zm-2.037 5.696l1.019-2.848-.942-.337-1.018 2.848.941.337zm-2.036 5.695l1.018-2.848-.942-.337-1.018 2.848.942.337zm-2.037 5.695l1.018-2.848-.941-.337-1.018 2.848.941.337zm-2.036 5.695l1.018-2.848-.942-.336-1.018 2.847.942.337zm-2.037 5.695l1.018-2.848-.941-.336-1.019 2.847.942.337zm-2.037 5.695l1.019-2.847-.942-.337-1.018 2.847.942.337zm-2.036 5.695l1.018-2.847-.941-.337-1.019 2.848.942.336zm-2.037 5.695l1.019-2.847-.942-.337-1.018 2.848.941.336zm-2.036 5.695l1.018-2.847-.942-.337-1.018 2.848.942.336zm-2.037 5.696l1.018-2.848-.941-.337-1.018 2.848.941.337zm-2.036 5.695l1.018-2.848-.942-.337-1.018 2.848.942.337zm-2.037 5.695l1.018-2.848-.941-.336-1.019 2.847.942.337zm-2.037 5.695l1.019-2.848-.942-.336-1.018 2.847.941.337zM4.5 234.244l-.941-.336L3.168 235H2v1h1.872l.628-1.756z" fill="#fff" fill-opacity=".3"/></svg>