<svg width="91" height="238" fill="none" xmlns="http://www.w3.org/2000/svg"><path fill-rule="evenodd" clip-rule="evenodd" d="M3.13 2.5H2v-1h1.835l.628 1.755-.942.337-.39-1.092zm2.428 6.787L4.539 6.44l.942-.337 1.018 2.848-.941.336zm2.036 5.695l-1.018-2.847.942-.337 1.018 2.848-.942.336zm2.037 5.695L8.613 17.83l.941-.337 1.018 2.848-.941.336zm2.037 5.696l-1.019-2.848.942-.337 1.018 2.848-.941.337zm2.036 5.695l-1.018-2.848.941-.336 1.019 2.847-.942.337zm2.037 5.695l-1.019-2.848.942-.336 1.018 2.847-.941.337zm2.036 5.695L16.76 40.61l.942-.336 1.018 2.847-.942.337zm2.037 5.695l-1.018-2.847.941-.337 1.018 2.847-.941.337zm2.036 5.695l-1.018-2.847.942-.337 1.018 2.847-.942.337zm2.037 5.695l-1.018-2.847.941-.337 1.019 2.848-.942.336zm2.037 5.696l-1.019-2.848.942-.337 1.018 2.848-.941.337zm2.036 5.695l-1.018-2.848.942-.337 1.018 2.848-.942.337zm2.037 5.695l-1.018-2.848.941-.337 1.018 2.848-.941.337zm2.036 5.695l-1.018-2.848.942-.336 1.018 2.847-.942.337zm2.037 5.695l-1.018-2.848.941-.336 1.018 2.847-.941.337zm2.036 5.695l-1.018-2.847.942-.337 1.018 2.847-.942.337zm2.037 5.695l-1.018-2.847.941-.337 1.019 2.847-.942.337zm2.037 5.695l-1.019-2.847.942-.337 1.018 2.848-.941.336zm2.036 5.695l-1.018-2.847.942-.337 1.018 2.848-.942.336zm2.037 5.696l-1.018-2.848.941-.337 1.018 2.848-.941.337zm2.036 5.695l-1.018-2.848.942-.337 1.018 2.848-.942.337zm2.037 5.695l-1.018-2.848.941-.336 1.019 2.847-.942.337zm2.037 5.695l-1.019-2.848.942-.336 1.018 2.847-.941.337zm2.036 5.695l-1.018-2.848.941-.336 1.019 2.847-.942.337zm2.037 5.695l-1.019-2.847.942-.337 1.018 2.847-.941.337zm2.036 5.695l-1.018-2.847.942-.337 1.018 2.848-.942.336zm2.037 5.695l-1.018-2.847.941-.337 1.018 2.848-.941.336zm2.036 5.696l-1.018-2.848.942-.337 1.018 2.848-.942.337zm2.037 5.695l-1.018-2.848.941-.337 1.019 2.848-.942.337zm2.037 5.695l-1.019-2.848.942-.337 1.018 2.848-.941.337zm2.036 5.695l-1.018-2.848.942-.336 1.018 2.847-.942.337zm2.037 5.695l-1.018-2.848.941-.336 1.019 2.847-.942.337zm2.036 5.695l-1.018-2.847.942-.337 1.018 2.847-.942.337zm2.037 5.695l-1.018-2.847.941-.337 1.019 2.848-.942.336zm2.037 5.695l-1.019-2.847.942-.337 1.018 2.848-.941.336zm2.036 5.695l-1.018-2.847.942-.337 1.018 2.848-.942.336zm2.037 5.696l-1.019-2.848.942-.337 1.018 2.848-.941.337zm2.036 5.695l-1.018-2.848.942-.337 1.018 2.848-.942.337zm2.037 5.695l-1.018-2.848.941-.336 1.019 2.847-.942.337zm2.037 5.695l-1.019-2.848.942-.336 1.018 2.847-.942.337zm1.018 2.847l.941-.336.391 1.092h1.168v1h-1.872l-.628-1.756z" fill="#fff" fill-opacity=".3"/></svg>