<svg width="160" height="219" fill="none" xmlns="http://www.w3.org/2000/svg"><path fill-rule="evenodd" clip-rule="evenodd" d="M67.537 42.55c-.987 0-1.79.798-1.79 1.78a1.79 1.79 0 003.578 0c0-.982-.801-1.78-1.788-1.78zm.743-.966c.345.093.666.249.946.454l.67-.445-1.615-.009zm11.283-3.969l.484 6.18.481-6.18h-.966zm1.2-6.805h-1.415l-.707 2.838.707 2.84h1.415l.709-2.84-.709-2.838zM92.84 50.212a2.015 2.015 0 002.016-2.009 1.98 1.98 0 00-.699-1.502 2.839 2.839 0 01-2.827.191 1.967 1.967 0 00-.504 1.311c0 1.108.904 2.01 2.014 2.01zm2.476-8.881s-.334.153-.733.232c-.279.055-1.062.065-1.18.042.425.129.808.357 1.125.653a2.48 2.48 0 01.788-.927zm-16.676 5.38a2.176 2.176 0 00-.632 1.532 2.195 2.195 0 004.39 0 2.193 2.193 0 00-3.74-1.551l-.018.02zm1.172 8.853h.489c3.77 0 6.473-.007 9.218-.443l1.79-.731a80.74 80.74 0 00-11.203-.76c-3.73-.01-7.55.247-11.182.742l1.938.792c2.66.397 5.293.4 8.95.4zm10.404-13.971l.668.444c.282-.206.6-.36.945-.453l-1.613.01zm-4.127 6.616c0 .981.803 1.78 1.79 1.78.985 0 1.787-.799 1.787-1.78a1.788 1.788 0 00-3.577 0zm-20.504-5.955a2.86 2.86 0 011.24-.678s-.926.025-1.324-.048a4.046 4.046 0 01-.702-.194c.333.237.604.551.786.92zM98.73 58.428c.259-.296.386-.722.366-.995v-.002a2.84 2.84 0 01-.117-.62c-2.622.589-5.5 1.035-8.775 1.58-1.656 1.1-4.158 2.535-8.137 4.615l1.754-.16c6.428-.197 13.13-2.375 14.909-4.418zm-31.26-8.454a2.014 2.014 0 002.08-1.942 1.963 1.963 0 00-.453-1.317 2.855 2.855 0 01-3.126-.002 1.98 1.98 0 00-.449 1.186 2.015 2.015 0 001.948 2.075z" fill="#FCD21F"/><path fill-rule="evenodd" clip-rule="evenodd" d="M75.024 112.929v-.016a17.578 17.578 0 0111.254.415l-3.603-23.903-2.63-17.457-2.632 17.453.024.004-3.604 23.903c.39-.149.79-.279 1.19-.399z" fill="#FFFFFE"/><path fill-rule="evenodd" clip-rule="evenodd" d="M80.057 52.672h.09-.042c4.373-.01 8.738.334 12.94 1.008l.922-.376c.002-.78.003-2.175.002-2.24-.35.137-.73.216-1.128.216a3.083 3.083 0 01-2.614-1.451 2.86 2.86 0 01-2.347 1.227 2.858 2.858 0 01-2.862-2.847 2.858 2.858 0 012.862-2.85c.972 0 1.83.486 2.347 1.225.072-.116.152-.228.24-.332a2.836 2.836 0 01-.69-1.323c-2.503.069-4.572.644-6.657 1.855.221.44.35.934.35 1.459a3.265 3.265 0 01-3.265 3.255 3.265 3.265 0 01-3.266-3.255c0-.473.103-.921.286-1.327-2.167-1.305-4.296-1.918-6.892-1.987-.083.38-.243.73-.46 1.039.209.242.377.515.503.812a2.858 2.858 0 015.33 1.429 2.858 2.858 0 01-5.45 1.2 3.088 3.088 0 01-2.82 1.63c-.632-.02-.999-.202-1.3-.29v2.484l1.048.428c4.16-.659 8.56-.997 12.873-.99z" fill="#FCD21F"/><path fill-rule="evenodd" clip-rule="evenodd" d="M74.634 48.209a1.787 1.787 0 00-3.576 0c0 .981.801 1.78 1.786 1.78.988 0 1.79-.799 1.79-1.78zM63.027 31.29l.733 1.714c.473.126.945.27 1.42.434l.843-.833-1.233-2.946-1.763 1.63zm28.831-.9l1.486 1.481 1.217-2.91-1.527-1.412-1.176 2.84zm4.483 2.615l.735-1.716-1.763-1.63-1.233 2.945.846.837c.472-.164.945-.308 1.415-.436zM65.54 28.962l1.218 2.908 1.486-1.48-1.175-2.842-1.529 1.414zm1.618 3.865l.75 1.756c.246.12.492.238.738.37l1.095-.942-1.1-2.661-1.483 1.477zm-.559 1.153l-.176-.418-.247.244c.141.055.282.115.422.173zm26.914 0c.14-.059.281-.119.421-.174h-.007l-.247-.244-.167.417zm-6.631 2.24l.993.99h.009c.044-.034.09-.065.136-.097l1.191-2.83-1.3-1.135-1.03 3.071zm-5.83 8.884a3.26 3.26 0 011.51.893c2.238-1.307 4.506-1.953 7.175-2.03a2.84 2.84 0 01.467-1.231l-3.16-2.102s6.106.198 7.335 0c1.23-.197 1.438-.61 1.438-.61L90.638 38.9l8.669-5.498c-6.155.678-12.555 4.77-18.255 11.703zm16.463-12.378c.31-.063.622-.128.93-.177l-.62-.566-.31.743zM86.091 38.61c.338-.282.68-.551 1.02-.816l-.57-.558-.45 1.375z" fill="#FCD21F"/><path fill-rule="evenodd" clip-rule="evenodd" d="M92.574 46.113c.987 0 1.788-.8 1.788-1.783 0-.982-.8-1.78-1.788-1.78s-1.791.798-1.791 1.78c0 .983.803 1.783 1.791 1.783zm-3.069-10.01c.353-.226.705-.444 1.059-.65l-.59-.506-.469 1.156zm-1.265-3.941l1.358 1.184 1.128-2.73-1.477-1.472-1.009 3.018zm2.121 1.85l1.1.943c.243-.129.488-.247.732-.367l.751-1.76-1.483-1.478-1.1 2.662zm30.319 93.108l6.866 1.306c-.938-4.721-2.232-8.794-3.36-9.734-1.559-.078-2.991-.289-4.027-1.192l-.027.661a22.85 22.85 0 01-1.65-.056c.976 3.537 1.739 6.712 2.198 9.015zm-.782 16.621c.204-1.027.565-7.882.54-10.381l-5.934 1.083c-.111 1.89-.477 5.424-.477 5.424.601 2.974 3.208 10.471 3.487 11.279 1.056-1.627 1.776-4.36 2.384-7.405zm3.517 12.606c.039-.033.08-.069.116-.097a12.393 12.393 0 013.902-1.993c.24-.825.446-1.689.627-2.575 1.149-5.674 1.087-12.499.213-18.972-.015-.107-.084-.563-.112-.761l-6.764 1.235c.049 2.289-.107 4.985-.343 8.039-.095 1.2-.39 3.375-.302 4.077.532 3.683 1.264 6.509 2.246 9.613.13.418.272.912.417 1.434zm-6.601-4.313c-.373-1.096-1.381-3.987-1.529-4.412-2.722-1.296-6.125-2.017-10.051-2.434.216.086.745.305.793.325 3.879 1.63 7.737 3.762 10.787 6.521zm-12.112-15.801l-6.594 1.204 3.172 6.303c2.035-.733 3.86-3.262 3.422-7.507zm30.048-37.767c-.259-2.267-7.9-9.104-7.902-9.098-.519.888-2.429.928-4.492.471.263.276.928 1.082.896.996 2.769 2.849 5.277 6.067 5.778 7.984 2.341.767 4.556 1.368 5.312.825.169-.122.458-.531.408-1.178zm-25.128 46.24c.823-.588 2.617-2.909 3.499-5.059a99.13 99.13 0 00.405-5.025l-6.893 1.258c1.349 2.864 2.282 6.029 2.989 8.826zm10.753-61.32c1.445.741 3.264 2.02 5.15 3.568.877.298 4.705.866 5.549-.016-2.88-2.035-5.94-3.53-8.431-3.85-.855.004-1.609.105-2.268.298zm21.79 34.465c-.069-.198-.525-1.412-.738-1.969-2.481-6.58-4.644-11.874-7.776-15.088-1.093.062-2.617-.313-4.703-.991a1.512 1.512 0 01-.638.763c-.611.376-1.544.428-2.696.179 2.624 2.331 3.435 4.099 4.37 5.745 1.596 2.805 2.825 6.892 3.351 9.094 2.288 1.511 4.557 2.854 8.83 2.267zm-14.362-18.099c.202-.124.29-.303.29-.578v-.13c-.413-1.556-2.587-4.274-4.995-6.834-.405.323-3.911.336-5.638-.26.508.634 4.525 5.403 5.567 6.829 2.437 1.2 4.154 1.356 4.776.973zm-1.328 17.3c.083.414.149 1.674.149 1.674s-.955.002-1.163 0c1.145 1.703 2.288 5.645 3.106 9.894l7.152 1.361c-.759-3.361-2.177-8.452-4.158-11.363a14.104 14.104 0 01-5.086-1.566zM75.847 71.405C74.845 70.904 73.813 70.39 72.8 70v7.479c.39.65 3.243 5.154 4.193 6.483l1.684-11.226a111.012 111.012 0 01-2.829-1.332z" fill="#FCD21F"/><path fill-rule="evenodd" clip-rule="evenodd" d="M132.389 116.122c-.637-2.84-3.174-11.928-9.274-16.114-.191.722-.614 1.1-.988 1.288-.628.313-1.412.367-2.392.039-.31-.102-1.386-.672-1.854-.982.313.302 1.018.872 1.238 1.103 3.4 3.56 5.874 8.981 6.997 13.942l.093.406c2.122 1.303 3.974 1.896 6.551 1.977-.059-.143-.224-.933-.371-1.659zm4.006 17.386s-.227-1.376-.556-2.962l-6.736 1.231.081.475c4.7 5.305 7.713 4.746 7.713 4.746 0-.669-.502-3.49-.502-3.49zM94.17 108.921l4.284-2.183-4.175-3.054-.11 5.237zm37.671-21.425c-1.102.996-2.721.89-4.833.632 3.547 3.11 7.059 6.945 8.575 9.858 1.988.989 3.432 1.689 4.197 1.377.319-.132.819-.525.785-1.06-.535-3.21-4.305-7.578-8.652-10.827.048-.054-.008-.038-.072.02zm4.788 56.95c0-.407 0-.815-.006-1.213-.037-2.432-.165-3.608-.316-5.284-2.262-.352-3.677-1.206-6.931-4.2.467 3.953.998 10.473-.213 17.362a42.603 42.603 0 01-.602 2.86 12.477 12.477 0 011.93-.239l.671-2.822.229-.278.834-1.017-1.208.445-.349.129.066-.365.955-5.274.066-.366.283.245.981.85-.414-1.236-.114-.34.354.065 3.784.678z" fill="#FCD21F"/><path fill-rule="evenodd" clip-rule="evenodd" d="M96.395 123.149l9.959-18.999s-19.196 9.53-19.145 9.556c4.027 1.903 7.528 5.292 9.186 9.443z" fill="#FFFFFE"/><path fill-rule="evenodd" clip-rule="evenodd" d="M87.312 77.48v-7.479c-1.014.39-2.044.903-3.048 1.404-.725.36-2.085.992-2.831 1.318l1.683 11.219c.948-1.323 3.808-5.813 4.196-6.462zm.29 34.766l4.385-2.212-2.478-3.939-1.907 6.151z" fill="#FCD21F"/><path fill-rule="evenodd" clip-rule="evenodd" d="M130.952 130.284s-34.465-6.7-34.446-6.647c.651 1.846 1.175 4.155 1.175 6.197 0 2.306-.384 4.51-1.193 6.53-.01.025 34.464-6.08 34.464-6.08z" fill="#FFFFFE"/><path fill-rule="evenodd" clip-rule="evenodd" d="M101.466 116.367c1.187.772 2.459.545 2.54.538-.135-1.467-.595-2.939-.881-3.738l-1.659 3.2zm12.797 9.532l5.401 1.028c-.469-2.283-1.238-5.432-2.209-8.931-1.16-.162-2.255-.466-3.139-1.031l.1.818s-1.444.12-1.784.178c.786 2.506 1.338 5.508 1.631 7.938zm-10.474-14.014c.425 1.25.877 2.927 1.163 4.037.732.89 2.681 1.239 3.985.937-.768-3.396-2.093-6.332-3.203-8.728l-1.945 3.754zm-5.671 10.943l5.783 1.1c-.084-1.811-.302-4.373-.835-6.038-.408-.022-1.474-.347-2.077-.6l-2.871 5.538zm6.761 1.286l3.32.632c-.113-1.558-.699-5.968-.886-6.888-.763-.119-1.331-.209-2.35-.973.018.349.021.8.021.8-.181.122-.512.119-.92.181.527 1.808.739 4.445.815 6.248zm20.71-6.344c-.07-.601-.138-1.612-.352-2.419-1.954-7.375-4.511-11.202-7.75-14.362-.737.746-2.477.705-3.764.506-.085.229-.227.426-.656.521 3.672 3.366 5.238 8.135 6.805 13.593.674 2.021 3.373 2.152 5.717 2.161zM69.548 35.453c.353.206.705.424 1.057.65l-.477-1.156-.58.506zm-7.882-2.903c.31.047.62.113.932.176l-.32-.743-.612.566zM40.553 162.642c.663-.217 1.735-.81 2.317-1.48 1.966-2.016 2.95-4.57 4.31-6.94 1.283-2.232 2.604-4.514 4.53-6.576-4.849 2.383-8.89 4.895-11.293 9.257-.341.604-1.09 2.158-1.67 2.965-.559.78-2.446 2.548-2.446 2.548s.517.238 1.205.397c.69.16 2.214.102 3.047-.171zm14.324-17.454c-3.925.417-7.329 1.138-10.05 2.435-.148.425-1.157 3.316-1.53 4.411 2.51-2.669 6.91-4.891 10.788-6.521.048-.02.576-.238.792-.325zM39.67 133.359c-.035 2.43.336 9.342.544 10.381.609 3.046 1.329 5.779 2.385 7.406.279-.808 2.885-8.305 3.487-11.279 0 0-.365-3.545-.473-5.423l-5.942-1.085zm22.334 4.079l-6.672-1.219c-.464 4.306 1.448 6.805 3.5 7.544l3.172-6.325zM38.077 159.23c.431-.694 1.223-2.307 1.648-3.039.825-1.448 1.382-2.157 2.561-3.356 0 0-.944-1.435-1.26-2.551-1.565 1.483-2.51 3.339-3.261 5.695-.272.848-1.694 5.317-1.694 5.317.302-.299 1.464-1.19 2.006-2.066z" fill="#FCD21F"/><path fill-rule="evenodd" clip-rule="evenodd" d="M62.43 129.833c0-2.042.525-4.353 1.176-6.199.018-.053-34.447 6.649-34.447 6.649s34.474 6.105 34.464 6.08c-.809-2.02-1.192-4.224-1.192-6.53z" fill="#FFFFFE"/><path fill-rule="evenodd" clip-rule="evenodd" d="M56.106 116.905c.08.008 1.351.234 2.54-.539l-1.66-3.2c-.285.8-.747 2.272-.88 3.739zm-7.645 1.18c-.771 2.416-1.308 5.276-1.605 7.62l4.067-.773c.112-1.646.805-6.218.885-7.004 0 0-.615-.037-1.24-.181l.018-.532a5.521 5.521 0 01-2.125.87zm13.533 4.743l-2.87-5.538c-.603.253-1.671.578-2.078.6-.533 1.666-.739 4.23-.82 6.034l5.768-1.096zm-11.502 21.878c.705-2.796 1.634-5.966 2.982-8.827l-6.896-1.26c.09 1.62.25 3.54.414 5.028.882 2.15 2.676 4.471 3.5 5.059zm-23.14-26.925c2.577-.081 4.428-.674 6.55-1.977l.092-.406c1.123-4.961 3.598-10.382 6.999-13.942.22-.231.924-.801 1.237-1.103-.467.309-1.545.88-1.854.982-.98.328-1.763.274-2.391-.04-.375-.187-.797-.565-.988-1.287-6.101 4.186-8.637 13.274-9.274 16.114-.147.725-.314 1.516-.371 1.659zm23.823-.922c1.304.302 3.252-.047 3.985-.937.286-1.109.737-2.787 1.162-4.037l-1.945-3.754c-1.11 2.396-2.434 5.332-3.202 8.728zM42.651 91.95c-1.725.597-5.232.583-5.637.26-2.408 2.56-4.582 5.278-4.995 6.834v.131c0 .275.088.453.29.577.623.384 2.34.227 4.776-.972 1.043-1.427 5.059-6.195 5.566-6.83zm.006 26.046c-.978 3.531-1.768 6.633-2.238 8.932l5.41-1.028c.29-2.434.86-5.42 1.651-7.938-.341-.059-1.785-.179-1.785-.179l.1-.819c-.883.566-1.98.87-3.138 1.032zm65.158 50.802s1.708-.086 2.893-1.022c1.284-1.012 2.222-3.093 1.406-6.056-1.058-3.851-4.789-8.551-7.342-10.987 0 0 4.152 7.316 4.677 9.229.625 2.276.279 3.476-.037 4.748-.407 1.648-1.233 3.228-1.597 4.088zm11.772-11.895c-2.402-4.362-6.335-6.874-11.185-9.257 1.926 2.062 3.248 4.344 4.529 6.576 1.361 2.369 2.237 4.924 4.203 6.94.502.577 1.365 1.094 2.018 1.366.017-.056.032-.115.05-.17.272-.849.986-2.196 1.611-3.189-.475-.809-.966-1.808-1.226-2.266zm7.376 16.36c1.124-.223 1.198-2.098.489-3.568-.485-1.009-1.974-3.223-1.974-3.223l-5.738-1.384c-.03.342-.048.686-.048 1.036 0 1.143.261 2.533.578 3.574 2.356-.054 5.569 3.787 6.693 3.565zm6.631-28.559l.873 2.741-2.132-1.822-.616 3.403 2.635-.923-1.835 2.356 3.55.638-.882-2.846 2.129 1.813.621-3.424-2.634.959 1.771-2.269-3.48-.626zm9.288-27.625c.177.37.373 1.54.373 1.54s-1.554.26-2.065.295c5.007 6.799 6.187 14.332 7.153 17.976.458 1.73 1.552 2.582 2.476 3.468.373.359 2.387 2.45 6.797 3.677.452.125 1.546.28 1.729.282-.433-5.115-1.232-9.432-2.237-13.173-.095-.353-.184-.711-.282-1.051a62.915 62.915 0 00-3.349-9.001c-.026.017-.81-1.513-1.177-2.251l-.003-.005c-.945.212-1.923.365-2.955.365-1.94 0-4.061-.523-6.46-2.122zM19.546 98.303c-.034.535.466.928.786 1.06.764.312 2.208-.387 4.198-1.377 1.515-2.913 5.027-6.749 8.574-9.858-2.11.258-3.732.364-4.835-.631-.063-.059-.119-.075-.07-.022-4.347 3.25-8.117 7.618-8.653 10.828zm42.112 8.435l4.284 2.183-.11-5.236-4.174 3.053zm6.466 3.297l4.387 2.212-1.846-6.152-2.54 3.94zm-36.186 21.912c-.028.205-.08.627-.098.763-.874 6.474-.937 13.298.212 18.972.191.881.46 2.228.86 3.373.749 2.146 2.597 5.333 2.597 5.333.346-1.201.996-3.883 1.497-5.476.981-3.103 1.822-5.929 2.354-9.611.089-.703-.207-2.878-.301-4.078-.239-3.083-.398-5.724-.344-8.039l-6.778-1.237z" fill="#FCD21F"/><path fill-rule="evenodd" clip-rule="evenodd" d="M63.716 123.149c1.657-4.148 5.156-7.534 9.18-9.44.052-.026-19.138-9.559-19.138-9.559l9.958 18.999z" fill="#FFFFFE"/><path fill-rule="evenodd" clip-rule="evenodd" d="M55.23 150.734c-2.551 2.436-6.282 7.136-7.34 10.987-.816 2.963.121 5.043 1.406 6.056 1.184.936 2.892 1.022 2.892 1.022-.363-.86-1.19-2.44-1.598-4.088-.314-1.273-.66-2.473-.036-4.749.525-1.912 4.677-9.228 4.677-9.228zm-37.81-11.979c.431-.219.418-.735.36-1.112-.1-.642-.385-1.51-.532-1.874-.754-1.877-2.16-3.048-2.63-3.448-.327-.277-.97-.484-.97-.484a1.45 1.45 0 00-.903.055l-.05.021a.877.877 0 00-.46.435c-.12.228-.267 1.026-.458 1.2a.446.446 0 01-.137.091c-.478.193-.483-1.319-.49-1.347.108-.109.653-.323.886-.596.131-.184.61-.807.612-1.168-.032-.541-.771-.543-1.29-.334a.141.141 0 01-.021.008.49.49 0 00-.565-.2c-.278.113-.668.637-.668.637.5-1.008-.3-2.187-1.391-1.802l-.472-1.095-.66.273-.665.262.425 1.112c-1.053.48-.803 1.882.26 2.259 0 0-.647-.105-.924.007a.485.485 0 00-.266.536l-.021.007c-.518.21-1.048.722-.694 1.134.253.259 1.033.374 1.255.415.36.036.9-.188 1.053-.187.015.026 1.067 1.116.588 1.31a.496.496 0 01-.162.026c-.257.009-.92-.462-1.165-.543a.877.877 0 00-.635.008c-.017.005-.034.012-.051.019a1.44 1.44 0 00-.687.587s-.317.592-.358 1.02c-.058.612-.251 2.428.519 4.298.15.364.55 1.185.926 1.716.222.311.573.689 1.036.547.015-.004.03-.01.047-.016.505-.204 1.837-1.403 1.887-1.455.098.295 2.145 1.808 2.516 1.769-.014.055 2.014-.763 1.964-.793.295-.226.708-2.736.572-3.014.074.002 1.867-.06 2.373-.264l.046-.02zm23.502-54.861c-1.24.5-2.946 1.609-4.785 3.05 0 0-2.046 1.94-2.044 1.942.216.385 2.651.526 5.7-.668 1.098-1.019 2.075-1.858 2.771-2.378a4.295 4.295 0 00-.688-1.15 3.898 3.898 0 00-.954-.796z" fill="#FCD21F"/><path fill-rule="evenodd" clip-rule="evenodd" d="M73.26 146.132c-2.64-1.098-4.987-2.895-6.796-5.058a17.534 17.534 0 01-2.52-4.017c-.027-.065-2.729 5.167-5.29 10.156l-4.93 8.869 13.494-6.871 6.043-3.079z" fill="#FFFFFE"/><path fill-rule="evenodd" clip-rule="evenodd" d="M66.945 137.974l13.141-23.088 13.024 23.088H66.945zm26.004 1.929a16.309 16.309 0 003.47-10.07c0-7.415-4.95-13.694-11.718-15.71a16.299 16.299 0 00-9.294-.012l.003.012c-6.767 2.016-11.719 8.295-11.719 15.71 0 3.795 1.3 7.289 3.47 10.07 3.005 3.81 7.653 6.325 12.87 6.325 5.244 0 9.916-2.479 12.918-6.325z" fill="#F07D00"/><path fill-rule="evenodd" clip-rule="evenodd" d="M46.05 164.779c1.807-8.523 7.123-13.718 10.467-16.428l.767-1.483.956-1.909a62.688 62.688 0 00-3.65 1.378l-.039.018c-3.108 2.397-4.78 5.286-6.535 8.344-1.373 2.389-2.53 5.052-4.69 7.22-.544.563-1.222.904-2.142 1.395l-.698 4.864s5.158-1.481 5.565-3.399z" fill="#FCD21F"/><path fill-rule="evenodd" clip-rule="evenodd" d="M80.082 117.441L69.11 136.718h21.842l-10.871-19.277z" fill="#0066B1"/><path fill-rule="evenodd" clip-rule="evenodd" d="M16.17 144.568l7.74 14.268c-.964-4.092-1.391-9.091-1.383-13.975.002-.509.013-1.009.034-1.49.087-1.991.123-3.642.3-5.517l-.636-.111c.032-.507.169-1.586.162-1.578-1.52 1.436-2.672 2.351-3.831 2.946a1.752 1.752 0 01-.653.584 3.56 3.56 0 01-.131.058c-.347.14-1.26.211-1.816.259a7.031 7.031 0 01-.433 2.335l.117 1.314c.206.374.37.637.53.907zm12.323 21.941l3.363-11.514a47.846 47.846 0 01-.908-3.884c-1.21-6.889-.68-13.409-.212-17.362-3.255 2.995-4.67 3.848-6.932 4.201-.15 1.675-.28 2.851-.316 5.284-.007.487-.008.985-.007 1.486-.008 6.634.779 13.551 2.691 18.152l2.32 3.637zM73.561 37.236l-.56.558c.34.265.68.534 1.02.817l-.46-1.375zm-2.671-2.954l1.19 2.823c.048.034.099.067.148.105l.994-.991-1.028-3.07-1.303 1.133zm-18.092 83.577c-.186.92-.768 5.326-.881 6.884l3.325-.632c.077-1.797.284-4.451.805-6.244-.407-.063-.738-.06-.92-.181 0 0 .005-.451.022-.801-1.02.764-1.587.855-2.35.974zm-37.493 13.658l.027.024c.564.478 2.063 1.751 2.898 3.835.17.423.483 1.371.596 2.106.015.099.016.186.023.278 1.038-.628 2.219-1.622 3.727-3.117.834-6.06 2.474-11.725 4.809-15.911-.208.007-1.23.01-1.23.01s.17-1.319.308-1.813c-1.712 1.07-3.633 1.981-6.434 2.011-1.963 3.182-3.729 5.387-5.707 12.02.288.118.688.307.983.557zm54.578-73.126c-3.275-.545-6.13-.992-8.75-1.58-.02.242-.07.471-.144.691.001.025.008.047.006.072-.02.272.155.557.414.853 1.78 2.043 8.917 4 14.87 4.411l1.752.167c-3.748-1.814-6.462-3.476-8.148-4.614zm-.41-19.492l-5.178 1.125s.482.424 1.438.61c.955.187 7.337 0 7.337 0l-3.164 2.104c.245.36.405.78.464 1.228 2.748.079 5.072.755 7.373 2.143a3.282 3.282 0 011.363-.927l.013-.008C73.406 38.197 66.98 34.08 60.803 33.4l8.67 5.498zm48.762 45.791c-.28.33-.507.714-.688 1.15.697.52 1.673 1.36 2.773 2.379 3.047 1.193 5.482 1.052 5.699.668.001-.003-2.046-1.944-2.046-1.944-1.839-1.44-3.544-2.55-4.783-3.049a3.898 3.898 0 00-.955.796zm-94.519 48.818s-.5 2.821-.5 3.49c0 0 3.011.559 7.712-4.746l.071-.476-6.728-1.23c-.328 1.586-.555 2.962-.555 2.962zm23.29-17.678l-.234 1.177c1.797.474 3.065-.397 3.558-.891.916-3.161 2.162-6.374 3.448-9.14l-1.579-3.045c-1.88 3.229-4.058 7.958-5.193 11.899zm-29.059 2.021c4.272.587 6.542-.756 8.83-2.267.526-2.202 1.754-6.289 3.351-9.094.934-1.646 1.745-3.414 4.37-5.745-1.153.249-2.085.197-2.695-.179a1.512 1.512 0 01-.639-.763c-2.086.678-3.61 1.053-4.704.991-3.132 3.214-5.293 8.508-7.774 15.088-.213.557-.67 1.771-.74 1.969zm29.538-16.574c.215.185 1.11.373 2.102.174a39.693 39.693 0 01-1.348-.941c-.139.118-.55.583-.754.767zm-15.988 27.347c.822-4.309 1.998-8.178 3.155-9.898-.208.002-1.164 0-1.164 0s.068-1.26.149-1.674a14.123 14.123 0 01-5.086 1.567c-1.98 2.91-3.394 7.993-4.153 11.354l7.1-1.349zm8.455-11.125c-1.035.904-2.469 1.115-4.027 1.193-1.139.951-2.433 4.942-3.374 9.731l6.89-1.309c.46-2.32 1.203-5.44 2.188-9.008-.55.039-1.104.054-1.65.054l-.027-.661zm7.093-15.482c-.43-.096-.571-.292-.655-.522-1.286.199-3.027.24-3.764-.506-3.24 3.16-5.796 6.988-7.75 14.363-.214.806-.283 1.818-.352 2.418 2.343-.008 5.042-.14 5.718-2.16 1.566-5.459 3.133-10.227 6.803-13.593z" fill="#FCD21F"/><path fill-rule="evenodd" clip-rule="evenodd" d="M50.622 102.278c-1.19.305-2.383.125-2.708.11-3.616 3.228-5.06 7.612-6.729 13.415-.075.29-.302 1.25-.269 1.397 1.956-.019 3.866-.434 5.187-1.705 1.33-4.617 3.432-9.374 5.547-12.626l-.019-.035-1.01-.556zm-21.584-15.34c.843.882 4.672.315 5.548.016 1.887-1.549 3.708-2.827 5.152-3.568-.66-.192-1.413-.294-2.269-.297-2.491.319-5.55 1.815-8.43 3.85zm15.756 10.307c-.874 1.021-1.434 1.905-1.74 2.58-.29.639.999.951 1.328 1.005 0 0 1.973.203 2.625-.415.221-.201.4-.41.505-.497-.884-.731-1.755-1.776-2.718-2.673zm24.583-66.628l1.129 2.73 1.358-1.185-1.01-3.018-1.477 1.473zM25.77 99.644c.756.543 2.972-.057 5.313-.825.5-1.917 3.008-5.136 5.777-7.984-.031.086.633-.72.898-.995-2.065.456-3.974.416-4.493-.472-.003-.006-7.643 6.832-7.903 9.098-.05.647.24 1.057.409 1.178zm12.249-8.384c.121.34 3.495.34 4.888-.416.207-1.604.194-2.942-.046-4.029-.682.529-4.094 3.678-4.842 4.445zm-.145 8.174c-.228.657.43 1.056.78 1.128.53.11 1.44.274 3.66-1.347.426-.624 1.265-1.631 1.88-2.647-1.087-1.171-1.343-2.143-1.588-2.594-1.74 1.574-4.157 4.197-4.732 5.46zm71.308 25.498l4.109.782c-.3-2.346-.871-5.221-1.641-7.629a5.523 5.523 0 01-2.124-.87l.018.533a8.626 8.626 0 01-1.239.18c.079.793.776 5.399.877 7.004zM74.647 99.946c-.818.907-3.832 3.88-3.768 3.814l2.177 6.853 1.591-10.667zm-56.829 15.517c2.411-6.395 4.547-11.582 7.594-14.934-.067-.037-.141-.064-.204-.109-.472-.338-.673-.839-.757-1.325-2.014.996-3.405 1.597-4.486 1.153-.488-.202-.873-.605-1.167-1.229-.164.087-.322.176-.476.261-1.07.596-2.023 1.107-3.796 1.186l-.015.026c-3.674 6.422-5.67 11.828-6.441 17.421 2.766.608 5.867.604 9.748-2.45zm-10.221 28.16a1.804 1.804 0 01-.788-.309c-1.42.786-2.986 1.428-4.437 1.746-.428.095-1.65.216-1.67.219-.184 2.45-.293 5.06-.293 7.889-.832 13.341 2.675 25.856 6.063 35.556l2.95-13.943-.009.001c-2.063-7.548-2.628-17.232-1.816-31.159z" fill="#FCD21F"/><path fill-rule="evenodd" clip-rule="evenodd" d="M6.121 142.62l-.005-.008c-.432-.606-.87-1.503-1.045-1.927-.854-2.076-.666-4.028-.596-4.763l.004-.035c.057-.606.408-1.287.477-1.416l.013-.026.014-.022c.041-.069.085-.133.131-.197a1.78 1.78 0 01-.175-.155l-.025-.025-.022-.026a1.486 1.486 0 01-.327-1.334c.124-.509.489-.907.893-1.18.062-.152.148-.294.256-.419a2.37 2.37 0 01-.106-.595 2.11 2.11 0 01.47-1.435l-.153-.404-.372-.973.973-.384.649-.256.66-.273.967-.399.413.957.171.397c.509.061.982.302 1.34.704.138.155.25.323.34.5.165.017.327.058.477.123.481-.081 1.022-.048 1.464.229.255.16.439.389.557.654 1.04-3.393 2.63-7.312 5.357-11.018-.51-.035-2.064-.295-2.064-.295s.197-1.17.373-1.54c-2.4 1.598-4.52 2.122-6.46 2.122-1.031 0-2.01-.154-2.956-.366a.01.01 0 01-.002.006c-.367.738-1.15 2.268-1.177 2.251a62.968 62.968 0 00-3.349 9.001c-.097.34-.187.698-.283 1.051C2 134.885 1.2 139.202.767 144.317c.183-.002 1.277-.157 1.728-.282a18.493 18.493 0 003.626-1.415zM42.61 84.07c2.399 2.658.668 8.17.918 9.611.436 2 2.924 4.096 4.945 5.79.643.59 3.279 2.406 5.287 3.392l6.673 3.251 6.545-4.876v8.211l.368.19 3.533-5.879-.71-11.365c-1.824 3.773-4.376 6.44-7.365 7.931-1.544.769-4.023 1.204-4.023 1.204s4.575-7.242 4.82-7.696c-1.846 1.086-5.193 2.307-6.58 2.688-.788.176-1.949.299-3.087-.085-.352-.12-2.376-1.007-4.244-3.108-1-1.209-2.206-3.175-2.436-4.814-.423-3.024-1.482-5.138-3.163-6.822-1.502-1.5-3.67-1.851-3.671-1.848-1.236-.273-2.617-.296-4.14-.06.132.638.712 1.642 1.367 2.347 2.23.037 3.863.719 4.962 1.938zM17.855 98.443c.24-.135.496-.274.765-.413.583-3.12 3.805-7.121 7.739-10.341-1.762.242-3.152-.082-3.942-.973-3.813 2.835-8.45 7.253-9.407 12.476.145.122.614.315 1.182.33 1.75-.025 2.6-.49 3.663-1.08zm10.27-12.146l.28-.093c2.721-1.931 5.61-3.395 8.117-3.921-.548-.709-1.022-1.565-1.175-2.284-3.017.86-7.71 3.01-12.135 6.154.981.975 3.105.748 4.913.144zm-13.228 65.127l-2.59-7.519a1.099 1.099 0 01-.168-.041c-.33-.081-.813-.316-1.655-.922a13.43 13.43 0 01-.57-.43c-.433.361-.956.759-1.346.948-1.17 16.089.472 27.946 1.773 31 1.335 3.14 3.557 7.123 3.557 7.123l2.13-10.079.88-4.175c-1.453-3.877-1.932-9.199-1.999-14.059l-.012-1.846zm20.469 32.001c.374-.578.303-.902.303-.902-1.797 1.035-4.97 1.828-8.268 1.916 0 0-.122.349.301.596.424.251 2.933.212 4.226 0 1.293-.212 3.062-1.031 3.438-1.61zm.529-2.176c.223-.987-.257-1.127-.257-1.127-3.37.66-5.274.778-7.787.802-.47.003-1.357-.131-1.821-.399 0 0-.683 1.12-.463 1.93.218.812 1.34 1.031 1.34 1.031 3.885-.015 8.765-1.25 8.988-2.237zm-3.706 4.7s.524 3.434 1.257 4.675c.733 1.24 4.207 3.133 4.841 2.827.31-.15.581-.293.784-.389.541-.255.434-3.919-.264-5.255-.698-1.334-3.163-3.355-3.163-3.355-.815.662-2.068 1.085-3.455 1.497zm-12.654-21.196l-3.594-10.448a68.98 68.98 0 00.467 6.416l-.005.005c.276 2.265.712 4.408 1.402 6.252l2.742 5.464s.528-2.018.493-2.114c-.38-1.058-1.505-5.575-1.505-5.575zM31.92 176.1s-3.035-2.499-3.488-2.465c-.454.035-1.243 1.599-1.243 1.599s2.68 1.39 3.479 1.379c.801-.01 1.252-.513 1.252-.513zm-4.34-5.919c.33-.586.686-2.097.474-2.698-.215-.602-2.398-3.756-3.15-4.932-.613-.962-7.856-14.423-10.474-19.292-.144.063-1.046.426-1.22.488 1.827 5.214 6.943 19.829 7.183 20.745.293 1.117 1.193 5.152 1.527 5.678.334.522 1.676 1.288 2.558 1.367.881.08 2.771-.773 3.103-1.356z" fill="#FCD21F"/><path fill-rule="evenodd" clip-rule="evenodd" d="M34.865 179.295c.733-.315.357-2.476-.493-2.508h-1.648s-.786.874-2.01.874c-1.225 0-4.166-1.653-4.166-1.653l-1.246.706s-.904 1.24-.638 1.921c.268.682 2.373 1.337 2.792 1.334 2.348-.019 6.678-.359 7.41-.674zm1.105-1.123c.652-.634.863-.851 1.538-1.385H35.49c.423.458.493.964.48 1.385zM63.373 44.723c.77 0 1.4-.624 1.4-1.39a1.398 1.398 0 00-2.796 0c0 .766.627 1.39 1.396 1.39zm1.022-16.007l-1.465-3.502a8.533 8.533 0 00-1.017.927 8.34 8.34 0 00-.714.896l1.427 3.32 1.769-1.64zm.453 16.579a2.453 2.453 0 01-2.483.277 36.395 36.395 0 001.979 2.998c0-.01.103.125.258.333a3.018 3.018 0 01.597-2.935 2.9 2.9 0 01-.351-.673zm-3.888-2.474a2.47 2.47 0 01.577-1.125l-1.677-2.223c.258 1.153.637 2.27 1.1 3.348zm.916-11.774l-1.285-2.989c-.624 1.219-.994 2.655-1.138 4.303.319.009.637.017.958.042l1.465-1.356zm-2.798 63.386c1.12-.056 3.08-.701 5.471-2.29l1.503-.999s-4.162 7.468-5.125 8.913c4.003-1.277 7.268-4.841 9.272-10.177l.94-2.054.674 13.406c1.012-1.049 2.13-2.035 3.049-3.076l1.2-8 .684-4.559c-1.12-1.582-3.883-6.125-3.996-6.318-.277 4.424-1.692 7.542-4.306 9.499l-1.085.812s.851-2.605.583-5.914a42.287 42.287 0 00-.575-4.168c-.802 4.223-2.41 7.789-5.35 8.728-.228.41-.62.984-1.392 1.895-.003-.002-2.597 2.64-5.676 3.444 0 0 2.013.965 4.13.858zm1.569-55.513l1.657 2.2a2.446 2.446 0 011.068-.245c.019 0-1.14-1.29-1.14-1.29l4.711-1.16-7.555-4.787c-.003.177-.008.351-.006.534l4.837 3.853-3.572.894z" fill="#FCD21F"/><path fill-rule="evenodd" clip-rule="evenodd" d="M59.437 35.442c.015.219.018.428.038.653 0 .71.052 1.408.147 2.093l2.483-.622-2.668-2.124zm5.32 39.095c.202-2.41-.6-6.086-.6-6.086l.88.438c3.081 1.536 5.308 4.324 6.8 6.84v-7.074l.634.209c1.278.423 2.563 1.065 3.806 1.683.38.19.765.378 1.152.565-1.18-1.417-5.033-7.918-5.033-7.918l.033-.004c-4.677-.695-10.082-2.059-11.828-4.063a2.916 2.916 0 01-.326-.463c-.622.642-1.511 1.058-2.437 1.147.126 1.555.858 3.695 1.59 5.144l.05.102V67.5l.137.192.074.103c1.195 1.668 2.188 3.132 1.495 4.818.598 1.162 1.882 3.668 2.195 6.451.772-1.144 1.223-2.67 1.378-4.526z" fill="#FCD21F"/><path fill-rule="evenodd" clip-rule="evenodd" d="M71.834 77.724c-1.253-2.468-3.325-5.634-6.353-7.493.303 1.821.37 3.45.222 4.89-.228 2.208-.964 3.964-2.163 5.25-.063 2.424.056 3.944-.994 6.638 2.58-1.339 3.611-5.542 4.282-10.124.008-.057.263-2.485.271-2.542 0 0 1.526 6.134 1.759 8.71.128 1.419.17 2.79.016 4.071 1.973-2.044 2.943-5.138 2.96-9.4zM57.33 58.886c1.373 0 2.85-.913 2.854-2.293l-6.323-1.732c.917 2.331 2.347 4.025 3.47 4.025zm59.873 31.958c1.394.757 4.767.757 4.89.416-.749-.767-4.16-3.915-4.843-4.444-.239 1.086-.252 2.424-.047 4.028zM58.516 65.283c-.75-1.517-1.527-3.77-1.643-5.492-1.728-.36-3.426-2.979-4.27-5.363-1.623-.582-2.999-1.185-4.136-1.813l10.049 13.582v-.914zm-2.63-1.024l-8.639-11.676s-1.994-.726-5.529.686c-3.466 1.385-3.903 5.36-2.645 8.384a2.96 2.96 0 01.616-.89c.626-.642 1.513-1.01 2.714-.97 2.327.07 3.88.821 5.382 1.547.725.35 1.412.68 2.184.943 0 0 4.445 1.402 5.917 1.976z" fill="#FCD21F"/><path fill-rule="evenodd" clip-rule="evenodd" d="M54.06 64.605c-1.183-.346-3.883-1.236-3.883-1.236-.629.6-9.25.915-11.558.58-2.31-.339-4.052-1.342-6.71-2.58 2.786 4.383 7.594 6.626 14.299 6.703.934-2.66 4.231-3.546 7.852-3.467zm19.466-7.454a17.71 17.71 0 01-.424-.147h-.006c-5.347-1.883-20.249-8.528-21.542-8.632-1.329-.108-2.628 2.019-2.818 3.295 3.757 2.129 9.233 3.814 19.095 5.502 2.119.28 4.223.395 5.695-.018zm19.237 93.284l-5.424-2.904-.557 3.933-.156 1.074c8.337 1.501 12.725 5.67 13.148 9.289a14.75 14.75 0 012.407.245c-.06-1.563-2.007-6.399-2.84-8.086l-6.578-3.551zm43.791 21.889c.093-1.136-2.536-3.794-2.536-3.794l-2.393-.577s1.025 1.573 1.075 3.24c.05 1.666-.538 3.353-.538 3.353 1.147-.128 4.298-1.089 4.392-2.222z" fill="#FCD21F"/><path fill-rule="evenodd" clip-rule="evenodd" d="M134.724 168.22s3.035 2.935 2.789 4.155c-.246 1.218-1.393 2.043-3.335 2.657-1.38.434-3.145.534-3.145.534s.74-2.409.803-4.294c.054-1.565-1.202-3.484-1.766-4.134-.564-.651-2.195-.934-3.58-.827 0 0 1.823 2.238 2.163 3.689.434 1.856.112 3.723-1.234 4.205-1.345.483-5.65-3.654-6.855-3.494a1.611 1.611 0 00-.972.507h.052a1.913 1.913 0 00-.314.35 2.46 2.46 0 00-.253.57c-.006.021-.014.04-.018.062-2.841.113-5.799.116-6.276-.302-.871-.759.288-2.515 1.003-3.307.626-.694 1.399-1.236 1.399-1.236-.944-.458-1.425-.912-2.002-1.998 0 0-.226 2.021-2.14 3.3-2.225 1.489-3.787 1.188-3.787 1.188s-.942 2.769-1.061 3.576c-.119.812.414 1.889 1.327 1.991.911.101 7.401-1.367 9.257-1.155 1.666.188 12.489 4.814 15.004 4.75 1.177-.03 4.293-1.108 5.324-1.868 1.028-.76 3.117-2.672 3.03-4.213-.088-1.543-1.701-3.519-1.701-3.519-.459-.856-2.552-1.293-3.712-1.187zm-25.9-5.964c.034-1.778-.859-3.593-1.282-4.094l-6.824-3.475c1.005 2.316 2.436 6.205 2.436 7.62 0 0 1.878.491 3.006 1.817.69.812 1.091 1.84 1.214 3.061.72-1.195 1.415-2.973 1.45-4.929zm-6.624 18.696c-2.434-2.98-4.88-4.627-7.265-6.827-2.606-2.404-5.076-4.67-7.398-6.648l-.162 2.296c6.567 4.129 13.149 14.549 13.369 29.485 1.725-3.06 3.742-6.377 3.785-10.516.024-2.363-.948-6.142-2.329-7.79z" fill="#FCD21F"/><path fill-rule="evenodd" clip-rule="evenodd" d="M107.713 183.53c-1.355.089-2.506-.052-3.702-1.039 3.604 8.156-.343 13.894-2.535 17.373 1.686-.263 3.367-.997 4.416-2.141 1.857-2.027 2.595-5.281 2.195-9.678l-.031-.327.297-.145c1.834-.778 4.221-2.606 4.291-4.951.024-.782-.039-1.499-.325-2.522-.58 2.391-3.567 3.364-4.606 3.43z" fill="#FCD21F"/><path fill-rule="evenodd" clip-rule="evenodd" d="M87.62 166.287c2.491 2.093 5.152 4.54 7.967 7.134 2.721 2.51 5.676 5.105 8.485 8.093 4.098 3.573 7.846-1.12 7.736-2.213-.507.473-1.782 1.066-3.242.886l-.116-.016c-2.225-.552-4.082-2.476-5.72-4.172-.936-.971-1.821-1.887-2.689-2.48-5.062 0-11.532-9.133-12.089-11.91l-.331 4.678z" fill="#FCD21F"/><path fill-rule="evenodd" clip-rule="evenodd" d="M86.476 153.568l-.408 2.933-3.887 27.424c4.227 8.854 6.467 19.558-1.552 31.723v1.639h.006v1.656c.046-.049.096-.103.147-.16.07-.078.151-.164.236-.253.164-.179.349-.377.546-.591.676-.728 1.49-1.614 2.042-2.35 2.011-2.679 2.477-3.055 2.963-3.925 3.247-8.953 5.653-19.616-.851-30.972l-.072-.126 1.748-24.764.816 2.187c.688 1.592 2.17 4.267 3.803 4.761.201.06.402.1.603.129l.004.01c1.172.138 2.338-.202 3.558-.527.852-.227 1.73-.452 2.621-.519-.558-4.43-6.384-7.153-12.323-8.275zm72.936-8.29c-.022-.002-1.243-.124-1.672-.219-1.742-.382-3.651-1.226-5.272-2.231.88 14.357.333 24.263-1.769 31.954l-.009-.002 2.951 13.943c3.387-9.7 6.894-22.215 6.062-35.555 0-2.83-.109-5.44-.291-7.89zM75.97 14.575h8.157L80.97 8.877l5.53 3.264V4.156l-5.537 3.29 3.164-5.71h-8.123l3.132 5.704-5.523-3.284v7.97l5.533-3.246-3.175 5.695zm64.888 157.299c.275-.428.543-.987.756-1.513l-1.816-.438c.412.415 1.06 1.951 1.06 1.951zm-19.216-12.095a11.26 11.26 0 00-1.774 4.366l5.114 1.258c1.901-.24 4.003.158 5.105.722.984.502 1.075.743 1.075.743l2.259.515c2.195-.337 4.81.478 5.735 1.397l2.781.686a11.295 11.295 0 00.416-4.723l-20.711-4.964zm22.496-6.138c.01-.659-.251-11.142-.304-14.04-2.144-.436-3.635-1.101-6.11-3.436-.005-.008.131 1.071.163 1.578l-.635.11c.176 1.875.212 3.527.3 5.518.018.405.027.823.031 1.248l.55.098.355.063-.228.279-.82 1.007 1.203-.45.352-.132-.067.367-.956 5.282-.067.367-.281-.244-.306-.263c-.156 1.92-.343 3.489-.443 4.158 3.225 1.699 5.611 4.765 6.377 8.424.188-.918.333-1.877.453-2.854.279-2.292.396-4.707.433-7.08z" fill="#FCD21F"/><path fill-rule="evenodd" clip-rule="evenodd" d="M151.444 142.119c-.827-.642-1.326-.96-2.775-2.738-.618.249-2.428.381-3.769.274.034 2.033.214 11.057.214 11.085.019 3.597-.062 7.485-.577 11.03-.238 1.647-.569 3.22-1.027 4.653-.014.56-.065 1.113-.15 1.651l.505 2.391 2.347 11.118s2.224-3.982 3.558-7.123c1.337-3.136 3.037-15.569 1.674-32.341zM86.78 178.17l-.154 2.175c5.59 9.853 4.694 19.152 2.28 27.309 7.707-5.539 2.07-21.388-2.126-29.484zm-30.675 4.321c-1.196.987-2.347 1.128-3.704 1.039-1.038-.066-4.025-1.039-4.604-3.43-.286 1.023-.348 1.74-.325 2.522.07 2.345 2.457 4.173 4.29 4.951l.296.145-.03.327c-.4 4.397.339 7.651 2.197 9.678 1.048 1.144 2.728 1.88 4.414 2.141-2.192-3.479-6.138-9.217-2.534-17.373z" fill="#FCD21F"/><path fill-rule="evenodd" clip-rule="evenodd" d="M72.742 169.774l-.163-2.298c-2.322 1.979-4.79 4.245-7.397 6.649-2.386 2.2-4.831 3.848-7.265 6.828-1.382 1.647-2.355 5.424-2.33 7.789.044 4.14 2.06 7.457 3.785 10.516.219-14.938 6.803-25.355 13.37-29.484z" fill="#FCD21F"/><path fill-rule="evenodd" clip-rule="evenodd" d="M73.06 174.267l-.24-3.386c-6.29 4.25-12.472 14.799-12.509 29.366l.013.032c1.257 3.336 2.737 6.114 5.011 8.096-4.428-17.188.712-30.067 7.725-34.108zm.318-21.728l-.225-1.54-.458-3.138-4.608 2.346-7.425 3.78c-.833 1.687-2.778 6.523-2.84 8.086a14.643 14.643 0 012.408-.245c.424-3.619 4.81-7.788 13.148-9.289zm-20.915 5.623c-.424.501-1.315 2.316-1.283 4.094.035 1.956.732 3.734 1.45 4.928.123-1.22.524-2.248 1.215-3.061 1.127-1.324 3.005-1.816 3.005-1.816 0-1.415 1.431-5.304 2.435-7.62l-6.822 3.475z" fill="#FCD21F"/><path fill-rule="evenodd" clip-rule="evenodd" d="M73.207 176.356l-.072-1.023c-6.667 4.121-11.294 17.063-6.55 33.987 1.579 1.048 3.485 1.787 5.871 2.145a81.224 81.224 0 01-.812-2.401c-10.296-5.63-2.763-24.668 1.563-32.708zm-17.165 5.158c2.812-2.988 5.765-5.583 8.485-8.093 2.816-2.594 5.477-5.041 7.968-7.134l-.33-4.678c-.557 2.778-7.028 11.91-12.092 11.91-.865.593-1.751 1.511-2.687 2.48-1.638 1.698-3.496 3.62-5.72 4.173l-.117.016c-1.458.179-2.733-.414-3.24-.887-.11 1.093 3.638 5.786 7.733 2.213z" fill="#FCD21F"/><path fill-rule="evenodd" clip-rule="evenodd" d="M85.495 151.422l.718-5.057a17.55 17.55 0 01-6.183 1.12c-2.203 0-4.313-.409-6.258-1.15l.678 4.648.765 5.229 4.871 33.328 4.783-33.704.626-4.414z" fill="#FFFFFE"/><path fill-rule="evenodd" clip-rule="evenodd" d="M86.982 175.332l-.073 1.023c4.325 8.042 11.859 27.08 1.563 32.71-.26.813-.532 1.614-.813 2.4 2.387-.357 4.294-1.098 5.872-2.144 4.744-16.922.118-29.867-6.549-33.989zm-5.049 10.331l-1.304 9.203v18.98c6.418-10.636 4.86-20.176 1.304-28.183zm-32.971-17.006c-1.915-1.28-2.14-3.301-2.14-3.301-.579 1.088-1.06 1.54-2.004 1.999 0 0 .773.542 1.4 1.236.715.792 1.874 2.548 1.003 3.307-.871.762-9.999.12-11.611-.013s-6.23-.994-6.971-.93c-.74.062-2.521.842-3.405 1.562-.887.719-1.054 2.117-.836 2.756.217.638.495.665.962.493.47-.173.81-.637.81-.637s1.184-2.302 2.038-2.471c1.089-.214 4.053 2.596 4.998 3.019.944.424 5.008.428 5.996.153.989-.276 2.357-1.385 4.022-1.573 1.857-.213 8.348 1.256 9.259 1.154.91-.101 1.445-1.178 1.326-1.988s-1.06-3.578-1.06-3.578-1.561.301-3.787-1.188zm30.52 45.212v-19.582l-1.273-8.7c-3.583 8.029-5.18 17.605 1.273 28.282z" fill="#FCD21F"/><path fill-rule="evenodd" clip-rule="evenodd" d="M77.959 183.868l-3.925-26.839-.506-3.461c-5.94 1.122-11.765 3.845-12.324 8.276.89.067 1.769.29 2.622.517 1.26.338 2.462.694 3.674.519.2-.03.402-.069.604-.129 1.633-.494 3.113-3.17 3.804-4.761l.814-2.189 1.75 24.765-.074.126c-6.503 11.354-4.098 22.02-.85 30.972.486.871.952 1.246 2.963 3.925.747.996 1.967 2.261 2.677 3.039.052.054.103.106.147.155.05.059.1.111.147.16v-3.275c-8.05-12.2-5.773-22.931-1.523-31.8zm9.337-12.987l-.238 3.386c7.01 4.04 12.152 16.92 7.723 34.11 2.274-1.984 3.755-4.762 5.012-8.098l.011-.032c-.035-14.567-6.217-25.114-12.508-29.366z" fill="#FCD21F"/><path fill-rule="evenodd" clip-rule="evenodd" d="M71.21 207.654c-2.414-8.157-3.311-17.456 2.28-27.309l-.153-2.175c-4.196 8.096-9.834 23.945-2.127 29.484zM58.833 68.25l-.222-.307-1.548-2.095c-4.182-.667-9.251-.32-10.043 2.834-.533 2.132-.419 4.152.354 6.141 1.444-3.228 3.138-5.072 6.66-5.077h.015c2.446 0 4.72.75 6.38 2.08.179-.988-.435-1.952-1.513-3.46l-.083-.117zm47.419-13.39c-1.833.6-3.938 1.177-6.323 1.734.003 1.38 1.481 2.292 2.852 2.292 1.122 0 2.552-1.694 3.471-4.026zm-3.202 10.988l-1.549 2.094-.221.307-.082.115c.001 0 .004.001.004.003-1.078 1.506-1.69 2.471-1.512 3.458 1.613-1.293 3.812-2.032 6.181-2.072v-.001c.064-.001.128-.006.192-.006h.021c3.518.007 5.211 1.85 6.653 5.077.774-1.989.888-4.009.354-6.141-.79-3.153-5.86-3.5-10.041-2.834zm-2.773 2.16c0-.003-.002-.004-.004-.005l.224-.312.137-.191v-2.443l.05-.103c.732-1.448 1.463-3.588 1.591-5.143-.919-.09-1.801-.497-2.421-1.13a2.518 2.518 0 01-.315.446c-1.747 2.005-7.16 3.37-11.84 4.066h.018s-3.853 6.502-5.034 7.919c.387-.187.771-.377 1.152-.566 1.243-.618 2.527-1.259 3.805-1.683l.633-.208v7.074c1.493-2.516 3.72-5.304 6.8-6.84l.882-.438-.194.96c-.395 1.962-.416 3.758-.4 5.126.064 1.872.605 3.382 1.378 4.526.312-2.783 1.597-5.29 2.194-6.451-.663-1.614.22-3.026 1.344-4.604z" fill="#FCD21F"/><path fill-rule="evenodd" clip-rule="evenodd" d="M94.47 75.56c-.02.011-.262-2.484.162-5.329-3.03 1.859-5.101 5.025-6.354 7.493.016 4.262.986 7.356 2.96 9.4-.157-1.297.006-3.508.153-4.911.407-3.028 1.183-6.27 1.627-7.87.008.057.264 2.485.272 2.542.67 4.581 1.762 9.234 4.442 10.231-.99-2.507-1.09-4.32-1.152-6.745-1.138-1.219-2.017-3.393-2.11-4.811zm-9.005 24.386l1.59 10.667s2.243-6.849 2.24-6.853c-.904-.909-3.011-2.907-3.83-3.814zm20.587-35.341c3.621-.08 6.918.807 7.851 3.467 6.707-.077 11.514-2.32 14.299-6.703-2.657 1.238-4.399 2.241-6.71 2.58-2.308.335-10.929.02-11.558-.58 0 0-2.7.89-3.882 1.236z" fill="#FCD21F"/><path fill-rule="evenodd" clip-rule="evenodd" d="M92.751 79.508c-.259 1.417-.464 2.755-.568 4.102-.255 4.132.568 5.98.568 5.98l-1.084-.812c-2.613-1.957-4.028-5.075-4.304-9.499-.116.194-2.898 4.755-3.998 6.32l.53 3.54 1.355 9.016c.92 1.041 2.1 2.029 3.11 3.078l.613-13.407.94 2.054c2.003 5.335 5.267 8.9 9.272 10.177-.963-1.445-5.127-8.914-5.127-8.914l1.505 1c2.391 1.589 4.35 2.233 5.47 2.29 2.115.107 4.13-.86 4.13-.86-3.027-.626-4.829-2.343-6.119-4.02-.194-.251-.624-1.022-.768-1.227-3.515-.766-4.724-4.595-5.525-8.818z" fill="#FCD21F"/><path fill-rule="evenodd" clip-rule="evenodd" d="M101.331 101.53s-2.479-.435-4.023-1.205c-2.988-1.49-5.541-4.157-7.364-7.93l-.649 11.365 3.472 5.878.368-.19v-8.211l6.545 4.877 6.672-3.251c2.009-.987 4.644-2.803 5.287-3.392 2.022-1.694 4.509-3.79 4.945-5.79.249-1.441-1.48-6.954.918-9.612 1.1-1.218 2.733-1.9 4.964-1.937.654-.706 1.234-1.71 1.365-2.347-1.522-.236-2.902-.214-4.138.06-.001-.004-2.171.347-3.671 1.848-1.682 1.683-2.74 3.799-3.163 6.822-.231 1.639-1.437 3.605-2.437 4.814-1.867 2.1-3.891 2.988-4.243 3.108-1.139.385-2.301.261-3.088.084-1.387-.38-4.733-1.6-6.58-2.687.245.453 4.82 7.696 4.82 7.696zm-2.183-58.722c.46-1.068.834-2.173 1.089-3.316l-1.662 2.204c.279.312.479.692.573 1.112zm-2.41-.868c-.77 0-1.396.626-1.396 1.394 0 .765.625 1.388 1.396 1.388.77 0 1.397-.623 1.397-1.388 0-.768-.627-1.393-1.397-1.393zm3.742-3.755c.095-.683.148-1.381.148-2.09.019-.222.024-.43.038-.647l-2.659 2.118 2.473.62zm-8.214 18.966c9.863-1.689 15.353-3.355 19.109-5.484-.188-1.276-2.127-3.282-2.971-3.265-.844.018-16.912 7.097-21.84 8.75 1.512.373 3.414.386 5.702 0zm10.972 2.64c-.116 1.722-.892 3.974-1.642 5.492v.913l10.05-13.582c-1.139.628-2.515 1.232-4.136 1.813-.846 2.385-2.543 5.004-4.272 5.364zM95.26 45.296a2.81 2.81 0 01-.335.653 3.046 3.046 0 011.002 2.255c0 .045-.006.092-.008.137.574-.8 1.125-1.626 1.64-2.481.058-.087.116-.184.176-.282a2.457 2.457 0 01-2.475-.282zm14.883 16.987c.771-.263 1.459-.592 2.183-.943 1.502-.726 3.056-1.477 5.381-1.547 1.203-.04 2.101.255 2.816.864.278.238.412.398.577.753.963-3.667.545-7.028-2.706-8.141-3.251-1.112-5.529-.686-5.529-.686l-8.639 11.675c1.473-.573 5.917-1.975 5.917-1.975zm8.539 105.623c-.016-.041-.028-.085-.047-.125l.102.04a12.185 12.185 0 01-.122-1.698c0-.631.085-1.54.258-2.441l-.053-.368c-.92-.49-1.598-.833-2.141-1.395-2.161-2.168-3.21-4.831-4.583-7.22-1.755-3.058-3.426-5.947-6.534-8.345a61.95 61.95 0 00-3.689-1.394l.879 1.972.737 1.418c3.344 2.711 8.657 7.906 10.465 16.428.304 1.433 3.252 2.619 4.728 3.128zm-12.348-60.93c1.287 2.765 2.532 5.979 3.448 9.14.495.494 1.761 1.365 3.559.891l-.235-1.177c-1.134-3.941-3.312-8.67-5.193-11.899l-1.579 3.045z" fill="#FCD21F"/><path fill-rule="evenodd" clip-rule="evenodd" d="M98.063 39.682s-1.343 1.191-1.326 1.191c.385 0 .746.09 1.07.246l1.658-2.2-3.572-.895 4.828-3.845v-.007c.001-.18-.003-.354-.007-.528L93.1 38.49l4.963 1.19zm10.418 63.152l-.019.035c2.115 3.252 4.215 8.009 5.546 12.626 1.322 1.27 3.231 1.685 5.188 1.705.032-.147-.195-1.107-.269-1.397-1.668-5.804-3.115-10.188-6.729-13.415-.324.015-1.518.194-2.708-.11-.346.191-.681.374-1.009.556z" fill="#FCD21F"/><path fill-rule="evenodd" clip-rule="evenodd" d="M106.28 156.081l-4.93-8.868c-2.561-4.99-5.154-10.221-5.182-10.157a17.539 17.539 0 01-2.52 4.018 17.907 17.907 0 01-6.498 4.905l6.514 3.486 12.616 6.616z" fill="#FFFFFE"/><path fill-rule="evenodd" clip-rule="evenodd" d="M66.678 26.603l-1.172-2.839c-.639.257-1.237.544-1.773.879l1.414 3.378 1.531-1.418zm51.12 72.611c2.219 1.621 3.13 1.458 3.66 1.347.349-.072 1.009-.471.78-1.128-.575-1.263-2.992-3.886-4.733-5.46-.244.45-.501 1.423-1.589 2.594.616 1.016 1.455 2.023 1.882 2.647zm-5.198.704c.103.086.283.296.504.497.651.618 2.625.415 2.625.415.33-.054 1.62-.366 1.329-1.006-.306-.674-.866-1.558-1.739-2.58-.964.897-1.835 1.942-2.719 2.674zm18.466 54.874c-3.55 0-6.721 1.621-8.806 4.16l19.922 4.774a11.365 11.365 0 00-11.116-8.934zm14.521-54.326c-1.774-.079-2.727-.59-3.798-1.186-.153-.086-.31-.174-.474-.26-.295.623-.679 1.026-1.168 1.227-1.08.445-2.471-.157-4.486-1.152-.084.485-.285.987-.756 1.325-.063.045-.138.072-.205.109 3.047 3.352 5.184 8.538 7.594 14.934 3.882 3.054 6.983 3.057 9.747 2.45-.77-5.593-2.766-10.999-6.439-17.421-.006-.008-.01-.018-.015-.026zm-2.962 37.947c.339.112 1.332.307 1.661.344.353.038 2.744.294 3.426-.091-.058-.342-.334-1.56-.384-1.781-2.641-11.514-4.79-13.962-7.246-17.945-2.8-.03-4.721-.94-6.434-2.011.137.494.308 1.814.308 1.814s-1.022-.003-1.229-.011c2.334 4.187 3.974 9.852 4.809 15.911 2.203 2.187 3.717 3.315 5.089 3.77zm-8.871-50.723c3.934 3.219 7.154 7.22 7.738 10.34.268.139.523.278.766.413 1.061.59 1.913 1.055 3.662 1.078.568-.013 1.037-.207 1.182-.329-.956-5.223-5.595-9.64-9.407-12.476-.79.892-2.18 1.215-3.941.973zm-2.049-1.486l.281.093c1.809.604 3.932.83 4.914-.144-4.426-3.143-9.118-5.294-12.136-6.154-.153.72-.626 1.575-1.173 2.284 2.504.526 5.395 1.99 8.114 3.921zm-10.226 72.006c.147-.179.624-.661 1.113-1.125l-.352-1.105c-.501-2.378-1.589-4.213-3.153-5.696-.316 1.117-1.315 2.637-1.315 2.637 1.179 1.198 1.682 1.822 2.507 3.27.284.491.733 1.373 1.127 2.113.024-.032.049-.067.073-.094zm10.011-4.48c1.59.053 3.106.401 4.491.994.095-.665.271-2.039.344-2.727l-4.323-.734-.512 2.467zm-19.616-53.22c-.277.207-1.252.886-1.348.94.99.2 1.887.012 2.101-.173-.204-.184-.616-.649-.753-.767zM76.673 24.823l.396 2.225.513-1.527-.909-.698zm1.322 7.442l.46-1.845-1.073-1.606.612 3.451zm2.887-2.413l1.39-2.08-.651-1.942h-3.13l-.65 1.942 1.39 2.08h1.65zm-5.5-12.311l.216 1.218.814-1.218h-1.03zm2.908 3.19h3.532l1.977-1.313-1.253-1.877h-4.978l-1.254 1.877 1.976 1.313zm.438 22.505l-1.562-5.449-1.911 1.9a44.072 44.072 0 013.473 3.55zm-2.861-22.963l.43 2.425 1.062-1.431-1.492-.994zm-4.854 2.317c-.445.032-.87.083-1.291.137l.271.808 1.02-.944zm-2.033 7.067l1.535-1.53-.962-2.877-1.732 1.603 1.16 2.804zm.24-5.405l-.463-1.383c-.838.145-1.627.325-2.351.558l1.025 2.48 1.79-1.655zm5.8 14.314l1.844-1.832-.622-2.169-1.92 1.913.697 2.088zm9.71-21.025h-1.031l.814 1.218.216-1.218zm-10.748 17.92l1.957-1.95-.832-2.9-2.128 1.851 1.003 3zm-1.331-3.982l2.164-1.886-.98-3.419-2.218 2.212 1.034 3.093zm-1.375-4.109l2.255-2.248-.746-2.603c-.102 0-.193.01-.294.012l-2.164 2.002.949 2.837zm15.847 5.093l-2.127-1.852-.832 2.9 1.957 1.95 1.002-2.998zm3.999-2.806l1.16-2.804-1.732-1.603-.963 2.877 1.535 1.53zm-.742-6.931a23.9 23.9 0 00-1.29-.135l1.02.944.27-.809zm-.604 1.807l-2.164-2.002c-.1-.002-.192-.012-.295-.012l-.746 2.602 2.256 2.25.949-2.838zm-1.289 3.853l-2.219-2.211-.98 3.418 2.164 1.886 1.035-3.093zm8.993 1.969l1.426-3.319a8.618 8.618 0 00-.715-.895 8.65 8.65 0 00-1.017-.928l-1.465 3.502 1.77 1.64zm-2.524-2.334l1.413-3.378a11.302 11.302 0 00-1.77-.878l-1.174 2.838 1.53 1.418zm-1.259-4.594a17.333 17.333 0 00-2.35-.558l-.464 1.383 1.788 1.655 1.026-2.48zm-13.632-1.695h-.02l-1.727.03-1.54 1.929 1.531 1.182h3.493l1.532-1.182-1.54-1.928-1.729-.031zm2.978 5.316l.395-2.224-.907.698.512 1.526zm16.65 5.355h.009c.317-.025.634-.033.949-.043-.145-1.648-.514-3.084-1.138-4.301l-1.286 2.988 1.466 1.356zm-17.575-.138l.612-3.45-1.073 1.605.46 1.845zm1.696-9.567l.43-2.425-1.477.994 1.047 1.43zm-2.431 20.538c1.134-1.291 3.567-3.644 3.464-3.549l-1.909-1.9-1.564 5.45h.009zm4.398-6.758l-1.92-1.913-.622 2.168 1.844 1.833.698-2.088z" fill="#FCD21F"/><path fill-rule="evenodd" clip-rule="evenodd" d="M80.081 117.441l10.871 19.277h-21.84l10.97-19.277zm.006-2.555l-13.142 23.088H93.11l-13.023-23.088z" fill="#F07D00"/></svg>