<svg width="280" height="181" fill="none" xmlns="http://www.w3.org/2000/svg"><mask id="a" maskUnits="userSpaceOnUse" x="161" y="101" width="110" height="73"><path d="M177.415 101.562h92.806v72.222H161.165l16.25-72.222z" fill="#C4C4C4"/></mask><g mask="url(#a)"><path d="M153.645 127.562h103.577v21.667H143.833l9.812-21.667z" fill="#0066B1"/><path d="M152.52 151.396h91.702v21.667H143.833l8.687-21.667zm2.25-47.667h115.452v21.666H143.833l10.937-21.666z" fill="#F07D00"/></g><g clip-path="url(#clip0)" fill-rule="evenodd" clip-rule="evenodd"><path d="M147.733 96.321v-.016a18.983 18.983 0 0110.707-.023c.478.138.946.292 1.407.467l-3.879-25.6-2.831-18.698-2.833 18.692.026.006-3.878 25.6c.419-.16.848-.3 1.281-.428zm23.002 10.945l10.719-20.349s-20.662 10.208-20.607 10.235c4.334 2.039 8.104 5.668 9.888 10.114zm37.199 7.643s-37.098-7.176-37.077-7.119c.7 1.976 1.264 4.45 1.264 6.636 0 2.47-.414 4.831-1.284 6.994-.009.027 37.097-6.511 37.097-6.511zm-73.756-.485c0-2.188.564-4.662 1.265-6.639.02-.057-37.08 7.121-37.08 7.121s37.108 6.539 37.098 6.511c-.871-2.162-1.283-4.523-1.283-6.993zm1.383-7.158c1.784-4.443 5.55-8.07 9.881-10.11.057-.028-20.599-10.239-20.599-10.239l10.718 20.349zm10.273 24.616c-2.843-1.178-5.368-3.101-7.315-5.419a18.715 18.715 0 01-2.713-4.302c-.03-.07-2.937 5.534-5.695 10.878l-5.306 9.498 14.524-7.359 6.505-3.296z" fill="#fff"/><path d="M139.037 123.143l14.144-24.728 14.019 24.728h-28.163zm31.724-8.719c0-7.94-5.327-14.666-12.612-16.825a17.653 17.653 0 00-10.005-.013l.004.013c-7.284 2.16-12.614 8.885-12.614 16.825 0 4.065 1.398 7.807 3.735 10.785 3.234 4.081 8.237 6.774 13.851 6.774 5.646 0 10.676-2.654 13.907-6.774a17.416 17.416 0 003.734-10.785z" fill="#F07D00"/><path d="M159.003 137.546l.773-5.416a19.007 19.007 0 01-6.656 1.199 18.99 18.99 0 01-6.736-1.23l.731 4.977.823 5.6 5.243 35.696 5.149-36.099.673-4.727zm22.372 4.991l-5.307-9.498c-2.757-5.344-5.548-10.947-5.578-10.878a18.743 18.743 0 01-2.713 4.303 19.258 19.258 0 01-6.994 5.254l7.012 3.733 13.58 7.086z" fill="#fff"/><path d="M139.038 123.144l14.198-24.728 13.965 24.728h-28.163z" fill="#0066B1"/></g><path d="M122.571 34.828c7.087 1.155 12.518 3.813 16.293 7.973 3.775 4.083 5.662 9.168 5.662 15.254 0 4.699-1.232 9.051-3.698 13.057-2.465 3.93-6.24 7.088-11.324 9.476-5.007 2.388-11.17 3.582-18.489 3.582a65.85 65.85 0 01-16.871-2.195c-5.47-1.541-10.13-3.698-13.982-6.471l7.28-14.33c3.081 2.312 6.625 4.122 10.63 5.432a42.958 42.958 0 0012.481 1.849c4.699 0 8.397-.886 11.093-2.658 2.697-1.849 4.045-4.43 4.045-7.742 0-6.626-5.046-9.938-15.138-9.938h-8.551V35.752l16.64-18.835H84.206V1.894h56.622v12.134l-18.257 20.8zm71.043 49.342c-6.702 0-12.673-1.656-17.911-4.969-5.239-3.312-9.36-8.088-12.365-14.328-2.927-6.318-4.391-13.829-4.391-22.534 0-8.705 1.464-16.178 4.391-22.418 3.005-6.317 7.126-11.132 12.365-14.444 5.238-3.313 11.209-4.97 17.911-4.97 6.702 0 12.673 1.657 17.911 4.97 5.239 3.312 9.322 8.127 12.249 14.444 3.005 6.24 4.507 13.713 4.507 22.418s-1.502 16.216-4.507 22.534c-2.927 6.24-7.01 11.016-12.249 14.328-5.238 3.313-11.209 4.97-17.911 4.97zm0-15.83c4.93 0 8.782-2.12 11.556-6.356 2.85-4.238 4.275-10.786 4.275-19.645 0-8.86-1.425-15.407-4.275-19.644-2.774-4.238-6.626-6.356-11.556-6.356-4.853 0-8.705 2.119-11.556 6.356-2.773 4.237-4.16 10.785-4.16 19.644 0 8.86 1.387 15.407 4.16 19.645 2.851 4.237 6.703 6.355 11.556 6.355zM33.1 132.618l-.05-21.183-10.415 17.441h-3.64L8.581 111.839v20.779H.896v-35.39h6.775l13.245 21.992L33.96 97.229h6.774l.05 35.389H33.1zm45.57-35.389v35.389h-8.09v-12.74c-3.067 1.112-5.915 1.668-8.544 1.668-4.752 0-8.392-1.129-10.92-3.387-2.527-2.292-3.791-5.578-3.791-9.859V97.229h8.089v10.161c0 2.427.64 4.264 1.92 5.511 1.315 1.213 3.203 1.82 5.663 1.82 2.696 0 5.224-.523 7.583-1.567V97.229h8.09zm26.542 35.995c-3.606 0-6.875-.775-9.808-2.325-2.898-1.584-5.19-3.758-6.875-6.522-1.652-2.797-2.477-5.949-2.477-9.454 0-3.505.825-6.64 2.477-9.403 1.685-2.798 3.977-4.972 6.876-6.522 2.932-1.584 6.218-2.376 9.858-2.376 3.067 0 5.831.54 8.291 1.618 2.494 1.078 4.584 2.629 6.269 4.651l-5.258 4.853c-2.393-2.764-5.359-4.145-8.898-4.145-2.19 0-4.145.488-5.864 1.466a10.237 10.237 0 00-4.045 3.994c-.943 1.719-1.415 3.673-1.415 5.864s.472 4.146 1.415 5.865a10.598 10.598 0 004.045 4.044c1.719.944 3.674 1.416 5.864 1.416 3.539 0 6.505-1.399 8.898-4.197l5.258 4.854c-1.685 2.056-3.775 3.623-6.269 4.702-2.494 1.078-5.275 1.617-8.342 1.617zm-77.225 7.338c1.791 0 3.342.299 4.651.896 1.33.597 2.35 1.444 3.063 2.542.712 1.098 1.068 2.398 1.068 3.9 0 1.483-.356 2.783-1.069 3.9-.712 1.098-1.733 1.945-3.062 2.542-1.31.578-2.86.867-4.65.867h-4.074v5.575h-4.68v-20.222h8.753zm-.26 10.833c1.406 0 2.475-.298 3.207-.895.732-.616 1.098-1.483 1.098-2.6 0-1.136-.366-2.003-1.098-2.6-.732-.616-1.8-.925-3.207-.925h-3.813v7.02h3.813zm19.613 9.62c-1.638 0-3.11-.337-4.42-1.011-1.29-.693-2.302-1.646-3.034-2.86-.732-1.213-1.098-2.59-1.098-4.131 0-1.541.366-2.918 1.098-4.131.732-1.213 1.743-2.157 3.034-2.831 1.31-.693 2.782-1.04 4.42-1.04 1.637 0 3.1.347 4.39 1.04 1.291.674 2.302 1.618 3.034 2.831.732 1.213 1.098 2.59 1.098 4.131 0 1.541-.366 2.918-1.098 4.131-.732 1.214-1.743 2.167-3.033 2.86-1.29.674-2.754 1.011-4.391 1.011zm0-3.697c1.155 0 2.099-.385 2.83-1.156.752-.789 1.127-1.839 1.127-3.149 0-1.309-.375-2.349-1.126-3.12-.732-.789-1.676-1.184-2.831-1.184-1.156 0-2.11.395-2.86 1.184-.752.771-1.127 1.811-1.127 3.12 0 1.31.375 2.36 1.127 3.149.75.771 1.704 1.156 2.86 1.156zm19.595 3.697c-1.656 0-3.149-.337-4.478-1.011-1.31-.693-2.34-1.646-3.091-2.86-.732-1.213-1.098-2.59-1.098-4.131 0-1.541.366-2.918 1.098-4.131.751-1.213 1.782-2.157 3.091-2.831 1.329-.693 2.822-1.04 4.478-1.04 1.637 0 3.062.347 4.275 1.04 1.233.674 2.129 1.647 2.687 2.918l-3.495 1.878c-.81-1.426-1.975-2.138-3.496-2.138-1.175 0-2.147.385-2.918 1.155-.77.771-1.155 1.82-1.155 3.149s.385 2.379 1.155 3.149c.77.771 1.743 1.156 2.918 1.156 1.54 0 2.706-.713 3.496-2.138l3.495 1.907c-.558 1.232-1.454 2.195-2.687 2.888-1.213.694-2.638 1.04-4.275 1.04zm17.477 0c-1.657 0-3.15-.337-4.478-1.011-1.31-.693-2.34-1.646-3.091-2.86-.732-1.213-1.098-2.59-1.098-4.131 0-1.541.366-2.918 1.098-4.131.75-1.213 1.781-2.157 3.09-2.831 1.33-.693 2.822-1.04 4.479-1.04 1.637 0 3.062.347 4.275 1.04a5.995 5.995 0 012.687 2.918l-3.496 1.878c-.809-1.426-1.974-2.138-3.495-2.138-1.175 0-2.148.385-2.918 1.155-.77.771-1.156 1.82-1.156 3.149s.386 2.379 1.156 3.149c.77.771 1.743 1.156 2.918 1.156 1.54 0 2.706-.713 3.495-2.138l3.496 1.907c-.559 1.232-1.454 2.195-2.687 2.888-1.213.694-2.638 1.04-4.275 1.04zm10.278-15.773h4.478v9.245l7.569-9.245h4.131v15.542h-4.478v-9.244l-7.54 9.244h-4.16v-15.542zm21.088 0h4.478v9.245l7.569-9.245h4.131v15.542h-4.478v-9.244l-7.54 9.244h-4.16v-15.542zm126.739-78v15.542h-4.507V70.94h-4.911l-.145 2.744c-.077 2.042-.269 3.736-.577 5.085-.308 1.348-.809 2.407-1.503 3.177-.693.77-1.656 1.156-2.888 1.156-.655 0-1.435-.116-2.34-.347l.231-3.698c.308.039.529.058.664.058.674 0 1.175-.24 1.502-.722.347-.5.578-1.127.694-1.878.115-.77.202-1.781.26-3.033l.231-6.24h13.289zm20.02 7.828c0 .059-.029.463-.086 1.214h-11.758c.212.963.712 1.724 1.502 2.282.79.559 1.772.838 2.947.838.809 0 1.521-.115 2.137-.347a5.373 5.373 0 001.763-1.155l2.397 2.6c-1.463 1.675-3.601 2.513-6.413 2.513-1.753 0-3.303-.337-4.651-1.01-1.348-.694-2.388-1.647-3.12-2.86-.732-1.214-1.098-2.591-1.098-4.132 0-1.522.356-2.889 1.069-4.102a7.586 7.586 0 012.976-2.86c1.271-.694 2.686-1.04 4.246-1.04 1.522 0 2.899.327 4.131.982a7.046 7.046 0 012.889 2.831c.713 1.213 1.069 2.629 1.069 4.247zm-8.06-4.65c-1.021 0-1.878.288-2.571.866-.693.578-1.117 1.368-1.271 2.37h7.656c-.155-.983-.578-1.763-1.272-2.34-.693-.598-1.54-.896-2.542-.896zm24.614.52h-5.258v11.844h-4.477V70.94h-5.258v-3.698h14.993v3.698z" fill="#fff"/><defs><clipPath id="clip0"><path fill="#fff" transform="translate(98.332 52.451)" d="M0 0h109.778v127.834H0z"/></clipPath></defs></svg>