<svg width="693" height="800" viewBox="0 0 693 800" fill="none" xmlns="http://www.w3.org/2000/svg">
<g opacity="0.08" filter="url(#filter0_d)">
<path fill-rule="evenodd" clip-rule="evenodd" d="M586.402 1.87988C577.916 1.87988 571.01 8.72736 571.01 17.1495C571.01 25.5788 577.916 32.4393 586.402 32.4393C594.88 32.4393 601.767 25.5788 601.767 17.1495C601.767 8.72736 594.88 1.87988 586.402 1.87988Z" fill="white"/>
<path fill-rule="evenodd" clip-rule="evenodd" d="M689.74 -40.4443L693.901 12.5529L698.039 -40.4443H689.74Z" fill="white"/>
<path fill-rule="evenodd" clip-rule="evenodd" d="M681.815 37.5673C678.47 40.9477 676.383 45.5849 676.383 50.7017C676.383 61.0452 684.856 69.4629 695.255 69.4629C705.649 69.4629 714.114 61.0452 714.114 50.7017C714.114 40.3569 705.649 31.9463 695.255 31.9463C690.071 31.9463 685.377 34.0338 681.97 37.4012C681.92 37.4561 681.864 37.5124 681.815 37.5673Z" fill="white"/>
<path fill-rule="evenodd" clip-rule="evenodd" d="M691.886 113.48H696.085C728.49 113.48 751.711 113.425 775.303 109.681L790.694 103.412C759.23 99.0656 726.843 96.8307 694.408 96.8986C662.354 96.8177 629.528 99.0164 598.318 103.259L614.973 110.056C637.834 113.455 660.454 113.48 691.886 113.48Z" fill="white"/>
<path fill-rule="evenodd" clip-rule="evenodd" d="M585.823 65.5435C595.369 65.8584 603.377 58.3955 603.698 48.8943C603.847 44.5965 602.336 40.6802 599.809 37.5959C595.945 40.1139 591.342 41.5787 586.399 41.5787C581.432 41.5787 576.818 40.1009 572.942 37.5771C570.656 40.3667 569.219 43.8887 569.083 47.7545C568.773 57.2499 576.279 65.23 585.823 65.5435Z" fill="white"/>
<path fill-rule="evenodd" clip-rule="evenodd" d="M650.743 605.412V605.276C664.393 601.231 678.819 599.021 693.764 599.021C708.504 599.021 722.751 601.164 736.221 605.104C740.037 606.201 743.784 607.437 747.457 608.83L716.495 403.857L693.887 254.158L671.274 403.819C671.336 403.832 671.404 403.851 671.479 403.857L640.51 608.83C643.86 607.554 647.292 606.441 650.743 605.412Z" fill="#FFFFFE"/>
<path fill-rule="evenodd" clip-rule="evenodd" d="M693.985 88.6855V88.6797H694.059H694.375H694.752C694.641 88.6797 694.518 88.6855 694.399 88.6855C731.971 88.593 769.486 91.5545 805.602 97.33L813.523 94.11C813.535 87.4171 813.548 75.4542 813.542 74.8937C810.532 76.0754 807.262 76.7472 803.842 76.7472C794.366 76.7472 786.067 71.7647 781.377 64.3032C776.937 70.6451 769.561 74.8258 761.211 74.8258C747.646 74.8258 736.616 63.8655 736.616 50.4118C736.616 36.9205 747.646 25.9732 761.211 25.9732C769.561 25.9732 776.931 30.141 781.377 36.4828C781.997 35.486 782.684 34.5254 783.44 33.6326C780.535 30.4805 778.442 26.6132 777.507 22.2909C756.002 22.876 738.227 27.8137 720.301 38.1947C722.209 41.9637 723.318 46.2065 723.318 50.7065C723.318 66.0816 710.727 78.6179 695.255 78.6179C679.776 78.6179 667.184 66.0816 667.184 50.7065C667.184 46.65 668.07 42.8074 669.643 39.3287C651.019 28.1344 632.73 22.8818 610.413 22.2852C609.708 25.5485 608.333 28.5461 606.469 31.1941C608.258 33.27 609.708 35.6161 610.785 38.1586C615.046 30.8806 622.943 25.9732 631.992 25.9732C645.55 25.9732 656.581 36.9205 656.581 50.4118C656.581 63.8655 645.55 74.8258 631.992 74.8258C622.162 74.8258 613.678 69.0257 609.763 60.7004C605.149 69.2843 595.932 75.0281 585.515 74.6842C580.089 74.5051 576.936 72.9536 574.353 72.2024L574.347 93.5004L583.353 97.1639C619.103 91.5184 656.915 88.6176 693.985 88.6855Z" fill="white"/>
<path fill-rule="evenodd" clip-rule="evenodd" d="M647.384 50.4075C647.384 41.9724 640.496 35.1191 631.999 35.1191C623.537 35.1191 616.651 41.9724 616.651 50.4075C616.651 58.8238 623.537 65.6713 631.999 65.6713C640.496 65.6713 647.384 58.8238 647.384 50.4075Z" fill="white"/>
<path fill-rule="evenodd" clip-rule="evenodd" d="M657.812 249.324C649.196 245.026 640.334 240.623 631.619 237.286V301.421C634.97 306.993 659.484 345.619 667.647 357.016L682.122 260.751C676.326 258.159 663.461 252.125 657.812 249.324Z" fill="white"/>
<path fill-rule="evenodd" clip-rule="evenodd" d="M346.917 780.602C346.607 801.444 349.797 860.71 351.586 869.626C356.814 895.745 363.001 919.181 372.08 933.133C374.477 926.2 396.874 861.91 402.047 836.407C402.047 836.407 398.912 806.014 397.983 789.906L346.917 780.602Z" fill="white"/>
<path fill-rule="evenodd" clip-rule="evenodd" d="M542.521 750.363C542.521 732.852 547.024 713.037 552.624 697.206C552.779 696.751 256.589 754.223 256.589 754.223C256.589 754.223 552.853 806.573 552.766 806.358C545.817 789.037 542.521 770.14 542.521 750.363Z" fill="#FFFFFE"/>
<path fill-rule="evenodd" clip-rule="evenodd" d="M488.168 639.501C488.855 639.569 499.782 641.508 509.994 634.883L495.736 607.434C493.279 614.298 489.314 626.921 488.168 639.501Z" fill="white"/>
<path fill-rule="evenodd" clip-rule="evenodd" d="M422.464 649.622C415.83 670.336 411.216 694.86 408.663 714.965L443.621 708.333C444.581 694.22 450.54 655.016 451.22 648.274C451.22 648.274 445.937 647.954 440.562 646.723L440.722 642.159C436.969 644.85 429.902 648.367 422.464 649.622Z" fill="white"/>
<path fill-rule="evenodd" clip-rule="evenodd" d="M538.76 690.287L514.097 642.801C508.914 644.969 499.734 647.759 496.241 647.949C491.657 662.234 489.892 684.216 489.186 699.69L538.76 690.287Z" fill="white"/>
<path fill-rule="evenodd" clip-rule="evenodd" d="M439.905 877.905C445.964 853.928 453.954 826.742 465.535 802.212L406.274 791.405C407.049 805.297 408.418 821.761 409.829 834.52C417.41 852.96 432.826 872.862 439.905 877.905Z" fill="white"/>
<path fill-rule="evenodd" clip-rule="evenodd" d="M241.056 647.015C263.204 646.319 279.116 641.234 297.356 630.058L298.143 626.578C307.793 584.037 329.056 537.55 358.284 507.021C360.173 505.039 366.225 500.156 368.918 497.563C364.905 500.216 355.639 505.106 352.988 505.986C344.57 508.795 337.832 508.332 332.437 505.642C329.211 504.04 325.587 500.796 323.945 494.608C271.516 530.506 249.72 608.433 244.245 632.786C242.983 639.005 241.551 645.79 241.056 647.015Z" fill="white"/>
<path fill-rule="evenodd" clip-rule="evenodd" d="M445.78 639.105C456.984 641.698 473.731 638.699 480.03 631.07C482.484 621.558 486.36 607.174 490.014 596.453L473.297 564.263C463.766 584.809 452.381 609.982 445.78 639.105Z" fill="white"/>
<path fill-rule="evenodd" clip-rule="evenodd" d="M372.526 425.5C357.705 430.617 327.56 430.5 324.079 427.735C303.386 449.686 284.705 472.992 281.156 486.334V487.455C281.156 489.814 281.913 491.341 283.647 492.406C288.998 495.694 303.751 494.352 324.693 484.069C333.655 471.835 368.166 430.943 372.526 425.5Z" fill="white"/>
<path fill-rule="evenodd" clip-rule="evenodd" d="M372.591 648.854C364.18 679.129 357.392 705.729 353.354 725.45L399.849 716.628C402.34 695.761 407.232 670.158 414.039 648.558C411.104 648.052 398.697 647.025 398.697 647.025L399.553 640.006C391.965 644.857 382.545 647.461 372.591 648.854Z" fill="white"/>
<path fill-rule="evenodd" clip-rule="evenodd" d="M173.975 479.979C173.678 484.567 177.982 487.934 180.725 489.067C187.29 491.747 199.703 485.749 216.804 477.257C229.828 452.284 260.005 419.39 290.491 392.73C272.349 394.94 258.42 395.844 248.937 387.311C248.391 386.813 247.915 386.671 248.33 387.126C210.975 414.988 178.583 452.456 173.975 479.979Z" fill="white"/>
<path fill-rule="evenodd" clip-rule="evenodd" d="M535.886 552.314L572.701 571.039L571.747 526.133L535.886 552.314Z" fill="white"/>
<path fill-rule="evenodd" clip-rule="evenodd" d="M591.449 580.579L629.145 599.55L613.283 546.794L591.449 580.579Z" fill="white"/>
<path fill-rule="evenodd" clip-rule="evenodd" d="M280.457 768.494C280.223 770.248 279.776 773.87 279.621 775.038C272.109 830.548 271.569 889.068 281.443 937.729C283.084 945.278 285.394 956.829 288.832 966.651C295.267 985.055 311.153 1012.39 311.153 1012.39C314.126 1002.08 319.713 979.081 324.017 965.426C332.447 938.819 339.675 914.584 344.246 883.003C345.009 876.98 342.469 858.33 341.658 848.04C339.607 821.601 338.239 798.948 338.697 779.103L280.457 768.494Z" fill="white"/>
<path fill-rule="evenodd" clip-rule="evenodd" d="M553.562 693.043C567.802 657.472 597.872 628.434 632.446 612.092C632.903 611.87 467.984 530.119 467.984 530.119L553.562 693.043Z" fill="#FFFFFE"/>
<path fill-rule="evenodd" clip-rule="evenodd" d="M155.707 826.87C159.417 824.992 159.305 820.572 158.805 817.339C157.949 811.829 155.49 804.384 154.226 801.262C147.754 785.167 135.67 775.13 131.632 771.701C128.82 769.318 123.295 767.544 123.295 767.544C120.769 766.88 117.969 767.033 115.529 768.018C115.392 768.075 115.25 768.135 115.107 768.203C113.324 769.011 112.159 769.97 111.144 771.929C110.122 773.886 108.852 780.728 107.217 782.217C106.789 782.606 106.405 782.865 106.04 782.999C101.927 784.656 101.884 771.689 101.828 771.448C102.757 770.513 107.44 768.677 109.44 766.338C110.567 764.762 114.686 759.417 114.699 756.326C114.42 751.683 108.071 751.665 103.612 753.462C103.556 753.487 103.494 753.506 103.432 753.53C102.472 752.065 100.726 751.277 98.9542 751.696C98.8305 751.726 98.7066 751.763 98.5765 751.813C96.1919 752.785 92.8349 757.275 92.8349 757.275C97.1272 748.629 90.2583 738.519 80.8811 741.819L76.8305 732.429L71.1509 734.769L65.4403 737.023L69.0884 746.554C60.0455 750.673 62.1947 762.692 71.3243 765.925C71.3243 765.925 65.7685 765.026 63.3838 765.987C63.2601 766.036 63.13 766.097 63.0308 766.159C61.4577 767.076 60.764 768.875 61.0984 770.58C61.0365 770.598 60.9683 770.63 60.9188 770.642C56.4656 772.44 51.9132 776.83 54.9542 780.37C57.1283 782.587 63.8298 783.572 65.7376 783.923C68.8281 784.237 73.4734 782.31 74.7865 782.323C74.9166 782.544 83.9593 791.891 79.8468 793.553C79.4936 793.689 79.0354 793.769 78.4531 793.782C76.242 793.855 70.5438 789.822 68.4379 789.126C66.3384 788.418 64.8147 788.542 62.9813 789.188C62.8327 789.237 62.6903 789.293 62.5416 789.354C60.1137 790.333 57.9892 792.143 56.639 794.391C56.639 794.391 53.9137 799.465 53.5669 803.134C53.0653 808.387 51.4053 823.952 58.0202 839.992C59.3085 843.114 62.746 850.152 65.9852 854.708C67.893 857.375 70.9031 860.62 74.8856 859.395C75.0094 859.363 75.1457 859.314 75.2882 859.259C79.63 857.509 91.0759 847.227 91.5033 846.785C92.3457 849.314 109.942 862.288 113.125 861.95C113.008 862.424 130.431 855.41 130.003 855.152C132.536 853.212 136.092 831.693 134.921 829.309C135.559 829.328 150.968 828.792 155.316 827.044C155.46 826.982 155.583 826.927 155.707 826.87Z" fill="white"/>
<path fill-rule="evenodd" clip-rule="evenodd" d="M357.683 356.423C347.025 360.708 332.363 370.22 316.558 382.573C316.558 382.573 298.98 399.217 298.993 399.234C300.851 402.529 321.779 403.741 347.972 393.502C357.417 384.765 365.81 377.573 371.792 373.108C370.245 369.377 368.287 366.071 365.879 363.244C363.593 360.56 360.817 358.331 357.683 356.423Z" fill="white"/>
<path fill-rule="evenodd" clip-rule="evenodd" d="M581.319 820.174L694.25 622.184L806.169 820.174H581.319ZM804.79 836.718C823.451 812.872 834.606 782.909 834.606 750.362C834.606 686.78 792.073 632.935 733.909 615.644C721.168 611.864 707.715 609.795 693.768 609.795C679.967 609.795 666.646 611.826 654.041 615.54C654.054 615.576 654.054 615.601 654.065 615.644C595.907 632.935 553.356 686.78 553.356 750.362C553.356 782.909 564.518 812.872 583.173 836.718C608.994 869.389 648.937 890.959 693.768 890.959C738.839 890.959 778.992 869.697 804.79 836.718Z" fill="white"/>
<path fill-rule="evenodd" clip-rule="evenodd" d="M694.209 644.096L599.929 809.403H787.636L694.209 644.096Z" fill="white"/>
<path fill-rule="evenodd" clip-rule="evenodd" d="M250.853 1064.86L279.76 966.131C276.861 955.812 274.192 944.488 271.956 932.827C261.551 873.752 266.114 817.843 270.135 783.94C242.157 809.623 230.005 816.938 210.563 819.962C209.275 834.327 208.16 844.412 207.845 865.274C207.788 869.454 207.777 873.728 207.788 878.02C207.72 934.907 214.478 994.222 230.91 1033.68L250.853 1064.86Z" fill="white"/>
<path fill-rule="evenodd" clip-rule="evenodd" d="M459.742 647.676C458.144 655.57 453.14 693.352 452.167 706.713L480.746 701.288C481.401 685.883 483.179 663.119 487.663 647.749C484.164 647.202 481.315 647.232 479.76 646.192C479.76 646.192 479.792 642.325 479.94 639.327C471.182 645.878 466.308 646.654 459.742 647.676Z" fill="white"/>
<path fill-rule="evenodd" clip-rule="evenodd" d="M137.531 764.807L137.76 765.01C142.61 769.111 155.492 780.028 162.671 797.896C164.133 801.529 166.821 809.657 167.793 815.963C167.918 816.812 167.929 817.558 167.992 818.345C176.905 812.958 187.056 804.436 200.013 791.617C207.185 739.648 221.277 691.067 241.344 655.168C239.554 655.236 230.783 655.261 230.783 655.261C230.783 655.261 232.239 643.944 233.421 639.708C218.706 648.889 202.2 656.702 178.131 656.954C161.259 684.238 146.085 703.153 129.083 760.029C131.56 761.044 134.998 762.664 137.531 764.807Z" fill="white"/>
<path fill-rule="evenodd" clip-rule="evenodd" d="M606.558 137.727C578.406 133.048 553.873 129.218 531.354 124.181C531.192 126.249 530.753 128.22 530.121 130.104C530.134 130.313 530.189 130.504 530.177 130.72C530.003 133.048 531.509 135.498 533.732 138.035C549.03 155.553 610.36 172.338 661.514 175.86L676.577 177.295C644.37 161.741 621.044 147.487 606.558 137.727Z" fill="white"/>
<path fill-rule="evenodd" clip-rule="evenodd" d="M603.036 -29.4278L558.54 -19.7792C558.54 -19.7792 562.678 -16.146 570.89 -14.5511C579.102 -12.9447 633.942 -14.5511 633.942 -14.5511L606.751 3.49646C608.857 6.58071 610.238 10.1764 610.74 14.0248C634.357 14.7023 654.332 20.4967 674.102 32.4046C677.235 28.8335 681.262 26.0758 685.82 24.4492C685.863 24.4246 685.895 24.413 685.925 24.3813C636.835 -35.4489 581.618 -70.7438 528.537 -76.5742L603.036 -29.4278Z" fill="white"/>
<path fill-rule="evenodd" clip-rule="evenodd" d="M209.812 781.879C209.812 781.879 205.508 806.064 205.508 811.802C205.508 811.802 231.391 816.6 271.787 771.109C271.855 770.641 272.252 767.981 272.399 767.021L214.581 756.479C211.758 770.075 209.812 781.879 209.812 781.879Z" fill="white"/>
<path fill-rule="evenodd" clip-rule="evenodd" d="M409.968 630.282L407.955 640.374C423.395 644.443 434.291 636.975 438.527 632.738C446.405 605.626 457.107 578.073 468.164 554.361L454.593 528.247C438.433 555.937 419.716 596.489 409.968 630.282Z" fill="white"/>
<path fill-rule="evenodd" clip-rule="evenodd" d="M160.222 647.607C196.939 652.643 216.442 641.129 236.113 628.174C240.629 609.288 251.183 574.242 264.907 550.185C272.934 536.072 279.903 520.913 302.453 500.925C292.55 503.056 284.542 502.606 279.301 499.386C276.681 497.767 274.824 495.549 273.808 492.841C255.883 498.66 242.784 501.874 233.382 501.344C206.469 528.898 187.895 574.297 166.577 630.724C164.743 635.501 160.811 645.914 160.222 647.607Z" fill="white"/>
<path fill-rule="evenodd" clip-rule="evenodd" d="M414.076 505.489C415.921 507.071 423.62 508.685 432.143 506.979C431.301 506.511 422.932 500.686 420.554 498.912C419.364 499.923 415.828 503.912 414.076 505.489Z" fill="white"/>
<path fill-rule="evenodd" clip-rule="evenodd" d="M276.678 739.995C283.74 703.052 293.847 669.869 303.789 655.122C302.004 655.141 293.786 655.122 293.786 655.122C293.786 655.122 294.368 644.316 295.067 640.763C281.199 648.059 267.034 652.401 251.359 654.199C234.338 679.155 222.192 722.743 215.67 751.565L276.678 739.995Z" fill="white"/>
<path fill-rule="evenodd" clip-rule="evenodd" d="M349.35 644.597C340.45 652.35 328.132 654.154 314.741 654.825C304.955 662.984 293.836 697.205 285.749 738.276L344.953 727.051C348.904 707.156 355.297 680.396 363.757 649.8C359.037 650.14 354.274 650.268 349.58 650.268L349.35 644.597Z" fill="white"/>
<path fill-rule="evenodd" clip-rule="evenodd" d="M410.299 511.825C406.607 511.001 405.387 509.326 404.669 507.356C393.612 509.055 378.649 509.411 372.319 503.015C344.478 530.113 322.509 562.937 305.712 626.18C303.878 633.095 303.283 641.77 302.696 646.919C322.824 646.845 346.02 645.718 351.83 628.392C365.289 581.583 378.754 540.692 410.299 511.825Z" fill="white"/>
<path fill-rule="evenodd" clip-rule="evenodd" d="M441.028 514.067C430.802 516.684 420.552 515.139 417.758 515.015C386.685 542.692 374.266 580.284 359.933 630.054C359.283 632.534 357.338 640.767 357.623 642.03C374.433 641.87 390.846 638.304 402.199 627.412C413.633 587.821 431.688 547.028 449.865 519.141L449.705 518.839C446.875 517.287 444.006 515.711 441.028 514.067Z" fill="white"/>
<path fill-rule="evenodd" clip-rule="evenodd" d="M255.544 382.525C262.786 390.086 295.692 385.22 303.218 382.659C319.439 369.379 335.085 358.418 347.496 352.063C341.822 350.414 335.357 349.538 327.998 349.514C306.587 352.248 280.294 365.079 255.544 382.525Z" fill="white"/>
<path fill-rule="evenodd" clip-rule="evenodd" d="M390.958 470.909C383.445 479.665 378.632 487.245 376.007 493.026C373.512 498.513 384.585 501.191 387.415 501.652C387.415 501.652 404.374 503.396 409.974 498.094C411.874 496.369 413.417 494.572 414.314 493.832C406.716 487.558 399.227 478.599 390.958 470.909Z" fill="white"/>
<path fill-rule="evenodd" clip-rule="evenodd" d="M227.469 491.477C233.96 496.137 253.005 490.99 273.123 484.407C277.428 467.967 298.975 440.364 322.771 415.938C322.499 416.671 328.209 409.768 330.482 407.403C312.738 411.314 296.336 410.969 291.871 403.358C291.852 403.309 226.192 461.939 223.957 481.372C223.536 486.919 226.026 490.441 227.469 491.477Z" fill="white"/>
<path fill-rule="evenodd" clip-rule="evenodd" d="M332.719 419.587C333.765 422.505 362.757 422.505 374.73 416.022C376.507 402.266 376.396 390.789 374.333 381.473C368.469 386.004 339.147 413.01 332.719 419.587Z" fill="white"/>
<path fill-rule="evenodd" clip-rule="evenodd" d="M331.484 489.679C329.52 495.313 335.181 498.729 338.18 499.352C342.732 500.294 350.566 501.698 369.637 487.801C373.297 482.444 380.512 473.811 385.802 465.099C376.455 455.056 374.251 446.719 372.151 442.852C357.199 456.354 336.42 478.841 331.484 489.679Z" fill="white"/>
<path fill-rule="evenodd" clip-rule="evenodd" d="M647.505 494.07C640.469 501.847 614.573 527.344 615.118 526.778L633.828 585.545L647.505 494.07Z" fill="white"/>
<path fill-rule="evenodd" clip-rule="evenodd" d="M159.115 627.136C179.838 572.293 198.196 527.818 224.376 499.07C223.8 498.755 223.164 498.521 222.624 498.139C218.567 495.233 216.839 490.942 216.121 486.773C198.809 495.314 186.855 500.467 177.571 496.662C173.371 494.932 170.064 491.471 167.537 486.126C166.131 486.866 164.775 487.628 163.449 488.362C154.259 493.466 146.064 497.856 130.827 498.528C130.784 498.602 130.741 498.681 130.697 498.749C99.128 553.826 81.9714 600.185 75.3442 648.145C99.1157 653.355 125.761 653.324 159.115 627.136Z" fill="white"/>
<path fill-rule="evenodd" clip-rule="evenodd" d="M58.6003 860.006C58.5879 859.982 58.5694 859.963 58.5508 859.938C54.8408 854.742 51.075 847.051 49.5761 843.418C42.2367 825.617 43.8531 808.876 44.4539 802.57L44.4849 802.275C44.9742 797.077 47.9906 791.234 48.5851 790.126L48.6966 789.911L48.8205 789.714C49.1735 789.129 49.5452 788.574 49.9478 788.033C49.4213 787.62 48.9072 787.183 48.4365 786.702L48.2259 786.481L48.034 786.259C45.2591 783.039 44.2372 778.871 45.2281 774.819C46.2873 770.459 49.4275 767.048 52.9022 764.702C53.4286 763.398 54.1718 762.184 55.1009 761.112C54.5868 759.481 54.2772 757.764 54.1905 756.009C53.9922 751.384 55.4664 747.098 58.2349 743.699L56.9156 740.239L53.7136 731.896L62.075 728.601L67.6555 726.404L73.3351 724.064L81.6409 720.646L85.19 728.854L86.6577 732.253C91.0305 732.782 95.0936 734.845 98.1718 738.293C99.3549 739.618 100.327 741.064 101.095 742.579C102.514 742.727 103.901 743.078 105.195 743.638C109.327 742.936 113.978 743.225 117.775 745.596C119.961 746.97 121.547 748.933 122.563 751.205C131.5 722.112 145.157 688.505 168.594 656.72C164.215 656.425 150.861 654.196 150.861 654.196C150.861 654.196 152.553 644.159 154.07 640.988C133.439 654.695 115.229 659.183 98.5497 659.183C89.6865 659.183 81.2754 657.866 73.1493 656.05C73.1493 656.069 73.137 656.086 73.1308 656.099C69.972 662.428 63.2457 675.543 63.0164 675.402C52.7288 697.796 42.7383 722.986 34.2343 752.585C33.4044 755.503 32.624 758.576 31.8064 761.599C23.1848 793.68 16.3036 830.697 12.5874 874.562C14.1606 874.544 23.5626 873.215 27.4399 872.143C40.0503 868.651 50.3256 864.317 58.6003 860.006Z" fill="white"/>
<path fill-rule="evenodd" clip-rule="evenodd" d="M372.178 357.924C392.797 380.718 377.925 427.989 380.069 440.346C383.816 457.494 405.202 475.474 422.569 490.005C428.094 495.054 450.745 510.627 468.001 519.086L525.349 546.968L581.599 505.146V575.562L584.759 577.187L615.12 526.778L609.018 429.318C593.343 461.676 571.417 484.55 545.726 497.326C532.452 503.927 511.153 507.652 511.153 507.652C511.153 507.652 550.469 445.55 552.582 441.658C536.708 450.974 507.95 461.442 496.028 464.705C489.257 466.219 479.279 467.272 469.499 463.979C466.477 462.956 449.079 455.346 433.031 437.328C424.441 426.96 414.066 410.102 412.09 396.044C408.455 370.115 399.357 351.982 384.912 337.549C372.004 324.68 353.368 321.668 353.362 321.694C342.746 319.354 330.873 319.156 317.792 321.183C318.919 326.651 323.904 335.265 329.534 341.311C348.704 341.626 362.732 347.475 372.178 357.924Z" fill="white"/>
<path fill-rule="evenodd" clip-rule="evenodd" d="M159.438 481.181C161.495 480.029 163.699 478.835 166.01 477.64C171.027 450.88 198.712 416.578 232.517 388.962C217.375 391.037 205.432 388.26 198.644 380.624C165.873 404.928 126.023 442.82 117.804 487.604C119.049 488.655 123.075 490.312 127.962 490.429C142.994 490.226 150.309 486.236 159.438 481.181Z" fill="white"/>
<path fill-rule="evenodd" clip-rule="evenodd" d="M247.702 377.021L250.112 376.227C273.492 359.664 298.318 347.109 319.859 342.602C315.152 336.524 311.082 329.184 309.769 323.016C283.837 330.386 243.514 348.832 205.479 375.79C213.91 384.146 232.163 382.206 247.702 377.021Z" fill="white"/>
<path fill-rule="evenodd" clip-rule="evenodd" d="M550.612 20.5117C557.239 20.5117 562.639 15.1609 562.639 8.60374C562.639 2.01485 557.239 -3.3418 550.612 -3.3418C544.003 -3.3418 538.614 2.01485 538.614 8.60374C538.614 15.1609 544.003 20.5117 550.612 20.5117Z" fill="white"/>
<path fill-rule="evenodd" clip-rule="evenodd" d="M563.287 25.4219C559.75 28.0568 555.377 29.6647 550.614 29.6647C547.529 29.6647 544.6 28.9872 541.95 27.7983C547.201 36.7274 552.961 45.2925 558.956 53.5052C558.956 53.4141 559.842 54.5713 561.174 56.3568C560.258 53.5557 559.781 50.5567 559.886 47.4465C560.091 41.2158 562.494 35.5876 566.303 31.1859C565.058 29.4177 564.042 27.4848 563.287 25.4219Z" fill="white"/>
<path fill-rule="evenodd" clip-rule="evenodd" d="M529.881 4.20496C530.674 0.541401 532.415 -2.75811 534.831 -5.44366L520.424 -24.5068C522.641 -14.6184 525.893 -5.0435 529.881 4.20496Z" fill="white"/>
<path fill-rule="evenodd" clip-rule="evenodd" d="M513.702 446.794C523.333 446.309 540.162 440.779 560.719 427.153L573.638 418.588C573.638 418.588 537.863 482.631 529.589 495.02C563.994 484.071 592.046 453.506 609.271 407.75L617.347 390.135L623.138 505.099C631.841 496.103 641.441 487.642 649.344 478.714L659.662 410.121H659.657L665.534 371.021C655.915 357.45 632.168 318.499 631.19 316.844C628.817 354.779 616.654 381.513 594.189 398.298L584.868 405.263C584.868 405.263 592.182 382.923 589.872 354.545C588.937 342.994 587.165 330.962 584.936 318.807C578.042 355.019 564.224 385.596 538.96 393.65C536.996 397.166 533.633 402.092 526.994 409.9C526.969 409.887 504.678 432.546 478.219 439.431C478.219 439.431 495.518 447.711 513.702 446.794Z" fill="white"/>
<path fill-rule="evenodd" clip-rule="evenodd" d="M562.498 276.178C564.232 255.52 557.351 223.994 557.351 223.994L564.914 227.744C591.385 240.915 610.523 264.823 623.351 286.399V225.736L628.795 227.529C639.776 231.161 650.819 236.661 661.498 241.961C664.768 243.587 668.075 245.207 671.401 246.808C661.256 234.658 628.145 178.909 628.145 178.909L628.43 178.879C588.239 172.918 541.786 161.22 526.784 144.035C525.651 142.735 524.759 141.411 523.979 140.063C518.64 145.567 510.998 149.133 503.039 149.897C504.123 163.234 510.409 181.582 516.696 194.008L517.129 194.888V215.829L518.311 217.473C518.528 217.764 518.732 218.064 518.944 218.36C529.219 232.658 537.754 245.213 531.795 259.67C536.936 269.638 547.968 291.128 550.661 314.993C557.295 305.179 561.166 292.089 562.498 276.178Z" fill="white"/>
<path fill-rule="evenodd" clip-rule="evenodd" d="M623.317 303.506C612.552 282.35 594.746 255.195 568.72 239.254C571.333 254.87 571.897 268.841 570.634 281.187C568.677 300.12 562.346 315.181 552.041 326.202C551.501 346.996 552.53 360.031 543.506 383.133C565.666 371.65 574.536 335.605 580.296 296.315C580.37 295.822 582.563 275.01 582.631 274.518C582.631 274.518 595.743 327.12 597.743 349.206C598.846 361.373 599.212 373.128 597.886 384.118C614.838 366.59 623.175 340.056 623.317 303.506Z" fill="white"/>
<path fill-rule="evenodd" clip-rule="evenodd" d="M498.679 141.97C510.478 141.97 523.174 134.144 523.2 122.31L468.861 107.452C476.747 127.444 489.035 141.97 498.679 141.97Z" fill="white"/>
<path fill-rule="evenodd" clip-rule="evenodd" d="M508.872 196.824C502.424 183.814 495.753 164.498 494.756 149.732C479.903 146.635 465.311 124.186 458.058 103.737C444.11 98.7506 432.286 93.5774 422.514 88.1904L508.872 204.663V196.824Z" fill="white"/>
<path fill-rule="evenodd" clip-rule="evenodd" d="M486.272 188.038L412.029 87.9118C412.029 87.9118 394.897 81.687 364.517 93.7986C334.725 105.676 330.972 139.769 341.786 165.693C343.204 162.645 344.679 160.52 347.076 158.064C352.457 152.558 360.076 149.406 370.4 149.744C390.4 150.348 403.747 156.788 416.655 163.007C422.88 166.019 428.788 168.839 435.422 171.099C435.422 171.099 473.619 183.118 486.272 188.038Z" fill="white"/>
<path fill-rule="evenodd" clip-rule="evenodd" d="M470.571 191.009C460.408 188.042 437.201 180.405 437.201 180.405C431.799 185.547 357.717 188.257 337.872 185.375C318.027 182.476 303.051 173.873 280.209 163.258C304.153 200.842 345.471 220.077 403.092 220.738C411.125 197.93 439.454 190.326 470.571 191.009Z" fill="white"/>
<path fill-rule="evenodd" clip-rule="evenodd" d="M637.851 127.089C636.717 126.714 635.479 126.283 634.208 125.827H634.197L634.159 125.821C588.208 109.683 460.148 52.696 449.036 51.8033C437.615 50.8802 426.447 69.1184 424.819 80.0599C457.1 98.3155 504.167 112.767 588.914 127.244C607.124 129.639 625.203 130.63 637.851 127.089Z" fill="white"/>
<path fill-rule="evenodd" clip-rule="evenodd" d="M511.588 222.259L509.686 219.629L496.382 201.668C460.441 195.949 416.879 198.929 410.074 225.973C405.49 244.253 406.474 261.574 413.114 278.636C425.526 250.946 440.082 235.134 470.356 235.091H470.479C491.495 235.091 511.049 241.531 525.3 252.923C526.843 244.462 521.572 236.188 512.305 223.268C512.064 222.924 511.835 222.61 511.588 222.259Z" fill="white"/>
<path fill-rule="evenodd" clip-rule="evenodd" d="M682.57 7.76215L669.148 -38.9668L652.722 -22.6744C662.855 -13.4881 672.828 -3.31516 682.57 7.76215Z" fill="white"/>
</g>
<defs>
<filter id="filter0_d" x="-2" y="-371" width="1391" height="1894" filterUnits="userSpaceOnUse" color-interpolation-filters="sRGB">
<feFlood flood-opacity="0" result="BackgroundImageFix"/>
<feColorMatrix in="SourceAlpha" type="matrix" values="0 0 0 0 0 0 0 0 0 0 0 0 0 0 0 0 0 0 127 0" result="hardAlpha"/>
<feOffset/>
<feGaussianBlur stdDeviation="4"/>
<feColorMatrix type="matrix" values="0 0 0 0 0.105903 0 0 0 0 0.227442 0 0 0 0 0.508333 0 0 0 1 0"/>
<feBlend mode="normal" in2="BackgroundImageFix" result="effect1_dropShadow"/>
<feBlend mode="normal" in="SourceGraphic" in2="effect1_dropShadow" result="shape"/>
</filter>
</defs>
</svg>
