<svg width="58" height="58" viewBox="0 0 58 58" fill="none" xmlns="http://www.w3.org/2000/svg">
<path fill-rule="evenodd" clip-rule="evenodd" d="M3.02075 14.5003C3.02075 10.8299 5.9962 7.85449 9.66659 7.85449H48.3333C52.0037 7.85449 54.9791 10.8299 54.9791 14.5003V38.667C54.9791 42.3374 52.0037 45.3128 48.3333 45.3128H34.3492L36.1617 48.9378H41.0833C42.0842 48.9378 42.8958 49.7493 42.8958 50.7503C42.8958 51.7513 42.0842 52.5628 41.0833 52.5628H16.9166C15.9156 52.5628 15.1041 51.7513 15.1041 50.7503C15.1041 49.7493 15.9156 48.9378 16.9166 48.9378H21.8381L23.6506 45.3128H9.66659C5.9962 45.3128 3.02075 42.3374 3.02075 38.667V14.5003ZM48.3333 41.6878H9.66659C7.99822 41.6878 6.64575 40.3355 6.64575 38.667V14.5003C6.64575 12.832 7.99822 11.4795 9.66659 11.4795H48.3333C50.0017 11.4795 51.3541 12.832 51.3541 14.5003V38.667C51.3541 40.3355 50.0017 41.6878 48.3333 41.6878Z" fill="white"/>
</svg>
