<svg preserveAspectRatio="none" width="905" height="1084" viewBox="0 0 905 1084" fill="none" xmlns="http://www.w3.org/2000/svg">
<path fill-rule="evenodd" clip-rule="evenodd" d="M212.5 1.5H214V2.5H212.5V1.5ZM217 1.5H220V2.5H217V1.5ZM223 1.5H226V2.5H223V1.5ZM229 1.5H232V2.5H229V1.5ZM235 1.5H238V2.5H235V1.5ZM241 1.5H244V2.5H241V1.5ZM247 1.5H250V2.5H247V1.5ZM253 1.5H256V2.5H253V1.5ZM259 1.5H262V2.5H259V1.5ZM265 1.5H268V2.5H265V1.5ZM271 1.5H274V2.5H271V1.5ZM277 1.5H280V2.5H277V1.5ZM283 1.5H286V2.5H283V1.5ZM289 1.5H292V2.5H289V1.5ZM295 1.5H298V2.5H295V1.5ZM301 1.5H304V2.5H301V1.5ZM307 1.5H310V2.5H307V1.5ZM313 1.5H316V2.5H313V1.5ZM319 1.5H322V2.5H319V1.5ZM325 1.5H328V2.5H325V1.5ZM331 1.5H334V2.5H331V1.5ZM337 1.5H340V2.5H337V1.5ZM343 1.5H346V2.5H343V1.5ZM349 1.5H352V2.5H349V1.5ZM355 1.5H358V2.5H355V1.5ZM361 1.5H364V2.5H361V1.5ZM367 1.5H370V2.5H367V1.5ZM373 1.5H376V2.5H373V1.5ZM379 1.5H382V2.5H379V1.5ZM385 1.5H388V2.5H385V1.5ZM391 1.5H394V2.5H391V1.5ZM397 1.5H400V2.5H397V1.5ZM403 1.5H406V2.5H403V1.5ZM409 1.5H412V2.5H409V1.5ZM415 1.5H418V2.5H415V1.5ZM421 1.5H424V2.5H421V1.5ZM427 1.5H430V2.5H427V1.5ZM433 1.5H436V2.5H433V1.5ZM439 1.5H442V2.5H439V1.5ZM445 1.5H448V2.5H445V1.5ZM451 1.5H454V2.5H451V1.5ZM457 1.5H460V2.5H457V1.5ZM463 1.5H466V2.5H463V1.5ZM469 1.5H472V2.5H469V1.5ZM475 1.5H478V2.5H475V1.5ZM481 1.5H484V2.5H481V1.5ZM487 1.5H490V2.5H487V1.5ZM493 1.5H496V2.5H493V1.5ZM499 1.5H502V2.5H499V1.5ZM505 1.5H508V2.5H505V1.5ZM511 1.5H514V2.5H511V1.5ZM517 1.5H520V2.5H517V1.5ZM523 1.5H526V2.5H523V1.5ZM529 1.5H532V2.5H529V1.5ZM535 1.5H538V2.5H535V1.5ZM541 1.5H544V2.5H541V1.5ZM547 1.5H550V2.5H547V1.5ZM553 1.5H556V2.5H553V1.5ZM559 1.5H562V2.5H559V1.5ZM565 1.5H568V2.5H565V1.5ZM571 1.5H574V2.5H571V1.5ZM577 1.5H580V2.5H577V1.5ZM583 1.5H586V2.5H583V1.5ZM589 1.5H592V2.5H589V1.5ZM595 1.5H598V2.5H595V1.5ZM601 1.5H604V2.5H601V1.5ZM607 1.5H610V2.5H607V1.5ZM613 1.5H616V2.5H613V1.5ZM619 1.5H622V2.5H619V1.5ZM625 1.5H628V2.5H625V1.5ZM631 1.5H634V2.5H631V1.5ZM637 1.5H640V2.5H637V1.5ZM643 1.5H646V2.5H643V1.5ZM649 1.5H652V2.5H649V1.5ZM655 1.5H658V2.5H655V1.5ZM661 1.5H664V2.5H661V1.5ZM667 1.5H670V2.5H667V1.5ZM673 1.5H676V2.5H673V1.5ZM679 1.5H682V2.5H679V1.5ZM685 1.5H688V2.5H685V1.5ZM691 1.5H694V2.5H691V1.5ZM697 1.5H700V2.5H697V1.5ZM703 1.5H706V2.5H703V1.5ZM709 1.5H712V2.5H709V1.5ZM715 1.5H718V2.5H715V1.5ZM721 1.5H724V2.5H721V1.5ZM727 1.5H730V2.5H727V1.5ZM733 1.5H736V2.5H733V1.5ZM739 1.5H742V2.5H739V1.5ZM745 1.5H748V2.5H745V1.5ZM751 1.5H754V2.5H751V1.5ZM757 1.5H760V2.5H757V1.5ZM763 1.5H766V2.5H763V1.5ZM769 1.5H772V2.5H769V1.5ZM775 1.5H778V2.5H775V1.5ZM781 1.5H784V2.5H781V1.5ZM787 1.5H790V2.5H787V1.5ZM793 1.5H796V2.5H793V1.5ZM799 1.5H802V2.5H799V1.5ZM805 1.5H808V2.5H805V1.5ZM811 1.5H814V2.5H811V1.5ZM817 1.5H820V2.5H817V1.5ZM823 1.5H826V2.5H823V1.5ZM829 1.5H832V2.5H829V1.5ZM835 1.5H838V2.5H835V1.5ZM841 1.5H844V2.5H841V1.5ZM847 1.5H850V2.5H847V1.5ZM853 1.5H856V2.5H853V1.5ZM859 1.5H862V2.5H859V1.5ZM865 1.5H868V2.5H865V1.5ZM871 1.5H874V2.5H871V1.5ZM877 1.5H880V2.5H877V1.5ZM883 1.5H886V2.5H883V1.5ZM889 1.5H892V2.5H889V1.5ZM895 1.5H898V2.5H895V1.5ZM901 1.5H903V3.49518H902V2.5H901V1.5ZM903 6.48918V9.48324H902V6.48918H903ZM903 12.4772V15.4712H902V12.4772H903ZM903 18.4652V21.4593H902V18.4652H903ZM903 24.4533V27.4473H902V24.4533H903ZM903 30.4414V33.4354H902V30.4414H903ZM903 36.4294V39.4234H902V36.4294H903ZM903 42.4174V45.4114H902V42.4174H903ZM903 48.4054V51.3995H902V48.4054H903ZM903 54.3935V57.3875H902V54.3935H903ZM903 60.3816V63.3756H902V60.3816H903ZM903 66.3696V69.3636H902V66.3696H903ZM903 72.3576V75.3516H902V72.3576H903ZM903 78.3456V81.3397H902V78.3456H903ZM903 84.3337V87.3277H902V84.3337H903ZM903 90.3217V93.3158H902V90.3217H903ZM903 96.3097V99.3037H902V96.3097H903ZM903 102.298V105.292H902V102.298H903ZM903 108.286V111.28H902V108.286H903ZM903 114.274V117.268H902V114.274H903ZM903 120.262V123.256H902V120.262H903ZM903 126.25V129.244H902V126.25H903ZM903 132.238V135.232H902V132.238H903ZM903 138.226V141.22H902V138.226H903ZM903 144.214V147.208H902V144.214H903ZM903 150.202V153.196H902V150.202H903ZM903 156.19V159.184H902V156.19H903ZM903 162.178V165.172H902V162.178H903ZM903 168.166V171.16H902V168.166H903ZM903 174.154V177.148H902V174.154H903ZM903 180.142V183.136H902V180.142H903ZM903 186.13V189.124H902V186.13H903ZM903 192.118V195.112H902V192.118H903ZM903 198.106V201.1H902V198.106H903ZM903 204.094V207.088H902V204.094H903ZM903 210.082V213.076H902V210.082H903ZM903 216.07V219.064H902V216.07H903ZM903 222.059V225.053H902V222.059H903ZM903 228.047V231.041H902V228.047H903ZM903 234.035V237.029H902V234.035H903ZM903 240.023V243.017H902V240.023H903ZM903 246.011V249.005H902V246.011H903ZM903 251.999V254.993H902V251.999H903ZM903 257.987V260.981H902V257.987H903ZM903 263.975V266.969H902V263.975H903ZM903 269.963V272.957H902V269.963H903ZM903 275.951V278.945H902V275.951H903ZM903 281.939V284.933H902V281.939H903ZM903 287.927V290.921H902V287.927H903ZM903 293.915V296.909H902V293.915H903ZM903 299.903V302.897H902V299.903H903ZM903 305.891V308.885H902V305.891H903ZM903 311.879V314.873H902V311.879H903ZM903 317.867V320.861H902V317.867H903ZM903 323.855V326.849H902V323.855H903ZM903 329.843V332.837H902V329.843H903ZM903 335.831V338.825H902V335.831H903ZM903 341.819V344.813H902V341.819H903ZM903 347.807V350.801H902V347.807H903ZM903 353.795V356.789H902V353.795H903ZM903 359.783V362.777H902V359.783H903ZM903 365.771V368.765H902V365.771H903ZM903 371.759V374.754H902V371.759H903ZM903 377.747V380.742H902V377.747H903ZM903 383.736V386.73H902V383.736H903ZM903 389.724V392.718H902V389.724H903ZM903 395.712V398.706H902V395.712H903ZM903 401.7V404.694H902V401.7H903ZM903 407.688V410.682H902V407.688H903ZM903 413.676V416.67H902V413.676H903ZM903 419.664V422.658H902V419.664H903ZM903 425.652V428.646H902V425.652H903ZM903 431.64V434.634H902V431.64H903ZM903 437.628V440.622H902V437.628H903ZM903 443.616V446.61H902V443.616H903ZM903 449.604V452.598H902V449.604H903ZM903 455.592V458.586H902V455.592H903ZM903 461.58V464.574H902V461.58H903ZM903 467.568V470.562H902V467.568H903ZM903 473.556V476.55H902V473.556H903ZM903 479.544V482.538H902V479.544H903ZM903 485.532V488.526H902V485.532H903ZM903 491.52V494.514H902V491.52H903ZM903 497.508V500.502H902V497.508H903ZM903 503.496V506.49H902V503.496H903ZM903 509.484V512.478H902V509.484H903ZM903 515.472V518.466H902V515.472H903ZM903 521.46V524.454H902V521.46H903ZM903 527.448V530.442H902V527.448H903ZM903 533.436V536.43H902V533.436H903ZM903 539.424V542.418H902V539.424H903ZM903 545.413V548.407H902V545.413H903ZM903 551.401V554.395H902V551.401H903ZM903 557.389V560.383H902V557.389H903ZM903 563.377V566.371H902V563.377H903ZM903 569.365V572.359H902V569.365H903ZM903 575.353V578.347H902V575.353H903ZM903 581.341V584.335H902V581.341H903ZM903 587.329V590.323H902V587.329H903ZM903 593.317V596.311H902V593.317H903ZM903 599.305V602.299H902V599.305H903ZM903 605.293V608.287H902V605.293H903ZM903 611.281V614.275H902V611.281H903ZM903 617.269V620.263H902V617.269H903ZM903 623.257V626.251H902V623.257H903ZM903 629.245V632.239H902V629.245H903ZM903 635.233V638.227H902V635.233H903ZM903 641.221V644.215H902V641.221H903ZM903 647.209V650.203H902V647.209H903ZM903 653.197V656.191H902V653.197H903ZM903 659.185V662.179H902V659.185H903ZM903 665.173V668.167H902V665.173H903ZM903 671.161V674.155H902V671.161H903ZM903 677.149V680.143H902V677.149H903ZM903 683.137V686.131H902V683.137H903ZM903 689.125V692.119H902V689.125H903ZM903 695.113V698.107H902V695.113H903ZM903 701.102V704.095H902V701.102H903ZM903 707.09V710.084H902V707.09H903ZM903 713.078V716.072H902V713.078H903ZM903 719.066V722.06H902V719.066H903ZM903 725.054V728.048H902V725.054H903ZM903 731.042V734.036H902V731.042H903ZM903 737.03V740.024H902V737.03H903ZM903 743.018V746.012H902V743.018H903ZM903 749.006V752H902V749.006H903ZM903 754.994V757.988H902V754.994H903ZM903 760.982V763.976H902V760.982H903ZM903 766.97V769.964H902V766.97H903ZM903 772.958V775.952H902V772.958H903ZM903 778.946V781.94H902V778.946H903ZM903 784.934V787.928H902V784.934H903ZM903 790.922V793.916H902V790.922H903ZM903 796.91V799.904H902V796.91H903ZM903 802.898V805.892H902V802.898H903ZM903 808.886V811.88H902V808.886H903ZM903 814.874V817.868H902V814.874H903ZM903 820.862V823.856H902V820.862H903ZM903 826.85V829.844H902V826.85H903ZM903 832.838V835.832H902V832.838H903ZM903 838.826V841.82H902V838.826H903ZM903 844.814V847.808H902V844.814H903ZM903 850.802V853.796H902V850.802H903ZM903 856.79V859.784H902V856.79H903ZM903 862.778V865.772H902V862.778H903ZM903 868.766V871.76H902V868.766H903ZM903 874.755V877.749H902V874.755H903ZM903 880.743V883.737H902V880.743H903ZM903 886.731V889.725H902V886.731H903ZM903 892.719V895.713H902V892.719H903ZM903 898.707V901.701H902V898.707H903ZM903 904.695V907.689H902V904.695H903ZM903 910.683V913.677H902V910.683H903ZM903 916.671V919.665H902V916.671H903ZM903 922.659V925.653H902V922.659H903ZM903 928.647V931.641H902V928.647H903ZM903 934.635V937.629H902V934.635H903ZM903 940.623V943.617H902V940.623H903ZM903 946.611V949.605H902V946.611H903ZM903 952.599V955.593H902V952.599H903ZM903 958.587V961.581H902V958.587H903ZM903 964.575V967.569H902V964.575H903ZM903 970.563V973.557H902V970.563H903ZM903 976.551V979.545H902V976.551H903ZM903 982.539V985.533H902V982.539H903ZM903 988.527V991.521H902V988.527H903ZM903 994.515V997.509H902V994.515H903ZM903 1000.5V1002.5H901V1001.5H902V1000.5H903ZM2.00311 1001.5H3.99999V1002.5H2.99687L2.99037 1003.54L1.99038 1003.54L2.00311 1001.5ZM9.99999 1002.5H6.99999V1001.5H9.99999V1002.5ZM16 1002.5H13V1001.5H16V1002.5ZM22 1002.5H19V1001.5H22V1002.5ZM28 1002.5H25V1001.5H28V1002.5ZM34 1002.5H31V1001.5H34V1002.5ZM40 1002.5H37V1001.5H40V1002.5ZM46 1002.5H43V1001.5H46V1002.5ZM52 1002.5H49V1001.5H52V1002.5ZM58 1002.5H55V1001.5H58V1002.5ZM64 1002.5H61V1001.5H64V1002.5ZM70 1002.5H67V1001.5H70V1002.5ZM76 1002.5H73V1001.5H76V1002.5ZM82 1002.5H79V1001.5H82V1002.5ZM88 1002.5H85V1001.5H88V1002.5ZM94 1002.5H91V1001.5H94V1002.5ZM100 1002.5H97V1001.5H100V1002.5ZM106 1002.5H103V1001.5H106V1002.5ZM112 1002.5H109V1001.5H112V1002.5ZM118 1002.5H115V1001.5H118V1002.5ZM124 1002.5H121V1001.5H124V1002.5ZM130 1002.5H127V1001.5H130V1002.5ZM136 1002.5H133V1001.5H136V1002.5ZM142 1002.5H139V1001.5H142V1002.5ZM148 1002.5H145V1001.5H148V1002.5ZM154 1002.5H151V1001.5H154V1002.5ZM160 1002.5H157V1001.5H160V1002.5ZM166 1002.5H163V1001.5H166V1002.5ZM172 1002.5H169V1001.5H172V1002.5ZM178 1002.5H175V1001.5H178V1002.5ZM184 1002.5H181V1001.5H184V1002.5ZM190 1002.5H187V1001.5H190V1002.5ZM196 1002.5H193V1001.5H196V1002.5ZM202 1002.5H199V1001.5H202V1002.5ZM208 1002.5H205V1001.5H208V1002.5ZM220 1002.5H217V1001.5H220V1002.5ZM226 1002.5H223V1001.5H226V1002.5ZM214 1002.5H211V1001.5H214V1002.5ZM232 1002.5H229V1001.5H232V1002.5ZM238 1002.5H235V1001.5H238V1002.5ZM244 1002.5H241V1001.5H244V1002.5ZM250 1002.5H247V1001.5H250V1002.5ZM256 1002.5H253V1001.5H256V1002.5ZM262 1002.5H259V1001.5H262V1002.5ZM268 1002.5H265V1001.5H268V1002.5ZM274 1002.5H271V1001.5H274V1002.5ZM280 1002.5H277V1001.5H280V1002.5ZM286 1002.5H283V1001.5H286V1002.5ZM292 1002.5H289V1001.5H292V1002.5ZM298 1002.5H295V1001.5H298V1002.5ZM304 1002.5H301V1001.5H304V1002.5ZM310 1002.5H307V1001.5H310V1002.5ZM316 1002.5H313V1001.5H316V1002.5ZM322 1002.5H319V1001.5H322V1002.5ZM328 1002.5H325V1001.5H328V1002.5ZM334 1002.5H331V1001.5H334V1002.5ZM340 1002.5H337V1001.5H340V1002.5ZM346 1002.5H343V1001.5H346V1002.5ZM352 1002.5H349V1001.5H352V1002.5ZM358 1002.5H355V1001.5H358V1002.5ZM364 1002.5H361V1001.5H364V1002.5ZM370 1002.5H367V1001.5H370V1002.5ZM376 1002.5H373V1001.5H376V1002.5ZM382 1002.5H379V1001.5H382V1002.5ZM388 1002.5H385V1001.5H388V1002.5ZM394 1002.5H391V1001.5H394V1002.5ZM400 1002.5H397V1001.5H400V1002.5ZM406 1002.5H403V1001.5H406V1002.5ZM412 1002.5H409V1001.5H412V1002.5ZM418 1002.5H415V1001.5H418V1002.5ZM424 1002.5H421V1001.5H424V1002.5ZM430 1002.5H427V1001.5H430V1002.5ZM436 1002.5H433V1001.5H436V1002.5ZM442 1002.5H439V1001.5H442V1002.5ZM448 1002.5H445V1001.5H448V1002.5ZM454 1002.5H451V1001.5H454V1002.5ZM460 1002.5H457V1001.5H460V1002.5ZM466 1002.5H463V1001.5H466V1002.5ZM472 1002.5H469V1001.5H472V1002.5ZM478 1002.5H475V1001.5H478V1002.5ZM484 1002.5H481V1001.5H484V1002.5ZM490 1002.5H487V1001.5H490V1002.5ZM496 1002.5H493V1001.5H496V1002.5ZM502 1002.5H499V1001.5H502V1002.5ZM508 1002.5H505V1001.5H508V1002.5ZM514 1002.5H511V1001.5H514V1002.5ZM520 1002.5H517V1001.5H520V1002.5ZM526 1002.5H523V1001.5H526V1002.5ZM532 1002.5H529V1001.5H532V1002.5ZM538 1002.5H535V1001.5H538V1002.5ZM544 1002.5H541V1001.5H544V1002.5ZM550 1002.5H547V1001.5H550V1002.5ZM556 1002.5H553V1001.5H556V1002.5ZM562 1002.5H559V1001.5H562V1002.5ZM568 1002.5H565V1001.5H568V1002.5ZM574 1002.5H571V1001.5H574V1002.5ZM580 1002.5H577V1001.5H580V1002.5ZM586 1002.5H583V1001.5H586V1002.5ZM592 1002.5H589V1001.5H592V1002.5ZM598 1002.5H595V1001.5H598V1002.5ZM604 1002.5H601V1001.5H604V1002.5ZM610 1002.5H607V1001.5H610V1002.5ZM616 1002.5H613V1001.5H616V1002.5ZM622 1002.5H619V1001.5H622V1002.5ZM628 1002.5H625V1001.5H628V1002.5ZM634 1002.5H631V1001.5H634V1002.5ZM640 1002.5H637V1001.5H640V1002.5ZM646 1002.5H643V1001.5H646V1002.5ZM652 1002.5H649V1001.5H652V1002.5ZM658 1002.5H655V1001.5H658V1002.5ZM664 1002.5H661V1001.5H664V1002.5ZM670 1002.5H667V1001.5H670V1002.5ZM676 1002.5H673V1001.5H676V1002.5ZM682 1002.5H679V1001.5H682V1002.5ZM688 1002.5H685V1001.5H688V1002.5ZM694 1002.5H691V1001.5H694V1002.5ZM700 1002.5H697V1001.5H700V1002.5ZM706 1002.5H703V1001.5H706V1002.5ZM712 1002.5H709V1001.5H712V1002.5ZM718 1002.5H715V1001.5H718V1002.5ZM724 1002.5H721V1001.5H724V1002.5ZM730 1002.5H727V1001.5H730V1002.5ZM736 1002.5H733V1001.5H736V1002.5ZM742 1002.5H739V1001.5H742V1002.5ZM748 1002.5H745V1001.5H748V1002.5ZM754 1002.5H751V1001.5H754V1002.5ZM760 1002.5H757V1001.5H760V1002.5ZM766 1002.5H763V1001.5H766V1002.5ZM772 1002.5H769V1001.5H772V1002.5ZM778 1002.5H775V1001.5H778V1002.5ZM784 1002.5H781V1001.5H784V1002.5ZM790 1002.5H787V1001.5H790V1002.5ZM796 1002.5H793V1001.5H796V1002.5ZM802 1002.5H799V1001.5H802V1002.5ZM808 1002.5H805V1001.5H808V1002.5ZM814 1002.5H811V1001.5H814V1002.5ZM820 1002.5H817V1001.5H820V1002.5ZM826 1002.5H823V1001.5H826V1002.5ZM832 1002.5H829V1001.5H832V1002.5ZM838 1002.5H835V1001.5H838V1002.5ZM844 1002.5H841V1001.5H844V1002.5ZM850 1002.5H847V1001.5H850V1002.5ZM856 1002.5H853V1001.5H856V1002.5ZM862 1002.5H859V1001.5H862V1002.5ZM868 1002.5H865V1001.5H868V1002.5ZM874 1002.5H871V1001.5H874V1002.5ZM880 1002.5H877V1001.5H880V1002.5ZM886 1002.5H883V1001.5H886V1002.5ZM892 1002.5H889V1001.5H892V1002.5ZM898 1002.5H895V1001.5H898V1002.5ZM2.97113 1006.62L2.9519 1009.7L1.95192 1009.69L1.97115 1006.61L2.97113 1006.62ZM2.93267 1012.77L2.91344 1015.85L1.91346 1015.84L1.93269 1012.77L2.93267 1012.77ZM2.89421 1018.93L2.87498 1022L1.875 1022L1.89423 1018.92L2.89421 1018.93ZM2.85575 1025.08L2.83652 1028.16L1.83654 1028.15L1.85577 1025.07L2.85575 1025.08ZM2.81729 1031.23L2.79806 1034.31L1.79808 1034.3L1.81731 1031.23L2.81729 1031.23ZM2.77883 1037.39L2.7596 1040.46L1.75962 1040.46L1.77885 1037.38L2.77883 1037.39ZM2.74037 1043.54L2.72113 1046.62L1.72115 1046.61L1.74038 1043.54L2.74037 1043.54ZM2.7019 1049.7L2.68267 1052.77L1.68269 1052.77L1.70192 1049.69L2.7019 1049.7ZM2.66344 1055.85L2.64421 1058.93L1.64423 1058.92L1.66346 1055.84L2.66344 1055.85ZM2.62498 1062L2.60575 1065.08L1.60577 1065.07L1.625 1062L2.62498 1062ZM2.58652 1068.16L2.56729 1071.23L1.56731 1071.23L1.58654 1068.15L2.58652 1068.16ZM2.54806 1074.31L2.52883 1077.39L1.52885 1077.38L1.54808 1074.3L2.54806 1074.31ZM2.5096 1080.46L2.49998 1082L1.5 1082L1.50962 1080.46L2.5096 1080.46Z" fill="white" fill-opacity="0.3"/>
</svg>
