<svg width="91" height="238" viewBox="0 0 91 238" fill="none" xmlns="http://www.w3.org/2000/svg">
<path fill-rule="evenodd" clip-rule="evenodd" d="M3.13058 2.5H2V1.5H3.83501L4.46275 3.25542L3.52115 3.59214L3.13058 2.5ZM5.55774 9.28726L4.53944 6.4397L5.48105 6.10298L6.49934 8.95054L5.55774 9.28726ZM7.59431 14.9824L6.57602 12.1348L7.51762 11.7981L8.53592 14.6457L7.59431 14.9824ZM9.63091 20.6775L8.61261 17.8299L9.55421 17.4932L10.5725 20.3408L9.63091 20.6775ZM11.6675 26.3726L10.6492 23.5251L11.5908 23.1883L12.6091 26.0359L11.6675 26.3726ZM13.7041 32.0677L12.6858 29.2202L13.6274 28.8835L14.6457 31.731L13.7041 32.0677ZM15.7407 37.7629L14.7224 34.9153L15.664 34.5786L16.6823 37.4262L15.7407 37.7629ZM17.7773 43.458L16.759 40.6104L17.7006 40.2737L18.7189 43.1213L17.7773 43.458ZM19.8138 49.1531L18.7955 46.3056L19.7372 45.9688L20.7554 48.8164L19.8138 49.1531ZM21.8504 54.8483L20.8321 52.0007L21.7737 51.664L22.792 54.5115L21.8504 54.8483ZM23.887 60.5434L22.8687 57.6958L23.8103 57.3591L24.8286 60.2067L23.887 60.5434ZM25.9236 66.2385L24.9053 63.3909L25.8469 63.0542L26.8652 65.9018L25.9236 66.2385ZM27.9602 71.9336L26.9419 69.0861L27.8835 68.7493L28.9018 71.5969L27.9602 71.9336ZM29.9968 77.6287L28.9785 74.7812L29.9201 74.4445L30.9384 77.292L29.9968 77.6287ZM32.0333 83.3238L31.015 80.4763L31.9566 80.1396L32.9749 82.9871L32.0333 83.3238ZM34.0699 89.019L33.0516 86.1714L33.9932 85.8347L35.0115 88.6823L34.0699 89.019ZM36.1065 94.7141L35.0882 91.8665L36.0298 91.5298L37.0481 94.3774L36.1065 94.7141ZM38.1431 100.409L37.1248 97.5616L38.0664 97.2249L39.0847 100.072L38.1431 100.409ZM40.1797 106.104L39.1614 103.257L40.103 102.92L41.1213 105.768L40.1797 106.104ZM42.2163 111.799L41.198 108.952L42.1396 108.615L43.1579 111.463L42.2163 111.799ZM44.2529 117.495L43.2346 114.647L44.1762 114.31L45.1945 117.158L44.2529 117.495ZM46.2894 123.19L45.2711 120.342L46.2128 120.005L47.231 122.853L46.2894 123.19ZM48.326 128.885L47.3077 126.037L48.2493 125.701L49.2676 128.548L48.326 128.885ZM50.3626 134.58L49.3443 131.732L50.2859 131.396L51.3042 134.243L50.3626 134.58ZM52.3992 140.275L51.3809 137.427L52.3225 137.091L53.3408 139.938L52.3992 140.275ZM54.4358 145.97L53.4175 143.123L54.3591 142.786L55.3774 145.633L54.4358 145.97ZM56.4724 151.665L55.4541 148.818L56.3957 148.481L57.414 151.329L56.4724 151.665ZM58.5089 157.36L57.4906 154.513L58.4323 154.176L59.4505 157.024L58.5089 157.36ZM60.5455 163.056L59.5272 160.208L60.4688 159.871L61.4871 162.719L60.5455 163.056ZM62.5821 168.751L61.5638 165.903L62.5054 165.566L63.5237 168.414L62.5821 168.751ZM64.6187 174.446L63.6004 171.598L64.542 171.261L65.5603 174.109L64.6187 174.446ZM66.6553 180.141L65.637 177.293L66.5786 176.957L67.5969 179.804L66.6553 180.141ZM68.6918 185.836L67.6736 182.988L68.6152 182.652L69.6335 185.499L68.6918 185.836ZM70.7284 191.531L69.7102 188.684L70.6517 188.347L71.6701 191.194L70.7284 191.531ZM72.765 197.226L71.7467 194.379L72.6883 194.042L73.7066 196.89L72.765 197.226ZM74.8016 202.921L73.7833 200.074L74.7249 199.737L75.7432 202.585L74.8016 202.921ZM76.8382 208.616L75.8199 205.769L76.7615 205.432L77.7798 208.28L76.8382 208.616ZM78.8748 214.312L77.8565 211.464L78.7981 211.127L79.8164 213.975L78.8748 214.312ZM80.9114 220.007L79.8931 217.159L80.8347 216.822L81.853 219.67L80.9114 220.007ZM82.948 225.702L81.9296 222.854L82.8713 222.518L83.8895 225.365L82.948 225.702ZM84.9845 231.397L83.9662 228.549L84.9079 228.213L85.9261 231.06L84.9845 231.397ZM86.0028 234.244L86.9444 233.908L87.335 235H88.503V236H86.6306L86.0028 234.244Z" fill="white" fill-opacity="0.3"/>
</svg>
