<svg width="91" height="238" viewBox="0 0 91 238" fill="none" xmlns="http://www.w3.org/2000/svg">
<path fill-rule="evenodd" clip-rule="evenodd" d="M87.3723 2.5H88.5029V1.5H86.6679L86.0402 3.25542L86.9818 3.59214L87.3723 2.5ZM84.9452 9.28726L85.9635 6.4397L85.0219 6.10298L84.0036 8.95054L84.9452 9.28726ZM82.9086 14.9824L83.9269 12.1348L82.9853 11.7981L81.967 14.6457L82.9086 14.9824ZM80.872 20.6775L81.8903 17.8299L80.9487 17.4932L79.9304 20.3408L80.872 20.6775ZM78.8354 26.3726L79.8537 23.5251L78.9121 23.1883L77.8938 26.0359L78.8354 26.3726ZM76.7989 32.0677L77.8172 29.2202L76.8755 28.8835L75.8573 31.731L76.7989 32.0677ZM74.7623 37.7629L75.7806 34.9153L74.839 34.5786L73.8207 37.4262L74.7623 37.7629ZM72.7257 43.458L73.744 40.6104L72.8024 40.2737L71.7841 43.1213L72.7257 43.458ZM70.6891 49.1531L71.7074 46.3056L70.7658 45.9688L69.7475 48.8164L70.6891 49.1531ZM68.6525 54.8483L69.6708 52.0007L68.7292 51.664L67.7109 54.5115L68.6525 54.8483ZM66.6159 60.5434L67.6342 57.6958L66.6926 57.3591L65.6743 60.2067L66.6159 60.5434ZM64.5793 66.2385L65.5976 63.3909L64.656 63.0542L63.6377 65.9018L64.5793 66.2385ZM62.5428 71.9336L63.5611 69.0861L62.6194 68.7493L61.6012 71.5969L62.5428 71.9336ZM60.5062 77.6287L61.5245 74.7812L60.5829 74.4445L59.5646 77.292L60.5062 77.6287ZM58.4696 83.3238L59.4879 80.4763L58.5463 80.1396L57.528 82.9871L58.4696 83.3238ZM56.433 89.019L57.4513 86.1714L56.5097 85.8347L55.4914 88.6823L56.433 89.019ZM54.3964 94.7141L55.4147 91.8665L54.4731 91.5298L53.4548 94.3774L54.3964 94.7141ZM52.3598 100.409L53.3781 97.5616L52.4365 97.2249L51.4182 100.072L52.3598 100.409ZM50.3233 106.104L51.3415 103.257L50.3999 102.92L49.3817 105.768L50.3233 106.104ZM48.2867 111.799L49.305 108.952L48.3634 108.615L47.3451 111.463L48.2867 111.799ZM46.2501 117.495L47.2684 114.647L46.3268 114.31L45.3085 117.158L46.2501 117.495ZM44.2135 123.19L45.2318 120.342L44.2902 120.005L43.2719 122.853L44.2135 123.19ZM42.1769 128.885L43.1952 126.037L42.2536 125.701L41.2353 128.548L42.1769 128.885ZM40.1403 134.58L41.1586 131.732L40.217 131.396L39.1987 134.243L40.1403 134.58ZM38.1037 140.275L39.122 137.427L38.1804 137.091L37.1622 139.938L38.1037 140.275ZM36.0672 145.97L37.0855 143.123L36.1438 142.786L35.1256 145.633L36.0672 145.97ZM34.0306 151.665L35.0489 148.818L34.1073 148.481L33.089 151.329L34.0306 151.665ZM31.994 157.36L33.0123 154.513L32.0707 154.176L31.0524 157.024L31.994 157.36ZM29.9574 163.056L30.9757 160.208L30.0341 159.871L29.0158 162.719L29.9574 163.056ZM27.9208 168.751L28.9391 165.903L27.9975 165.566L26.9792 168.414L27.9208 168.751ZM25.8842 174.446L26.9025 171.598L25.9609 171.261L24.9426 174.109L25.8842 174.446ZM23.8477 180.141L24.866 177.293L23.9243 176.957L22.9061 179.804L23.8477 180.141ZM21.8111 185.836L22.8294 182.988L21.8878 182.652L20.8695 185.499L21.8111 185.836ZM19.7745 191.531L20.7928 188.684L19.8512 188.347L18.8329 191.194L19.7745 191.531ZM17.7379 197.226L18.7562 194.379L17.8146 194.042L16.7963 196.89L17.7379 197.226ZM15.7013 202.921L16.7196 200.074L15.778 199.737L14.7597 202.585L15.7013 202.921ZM13.6647 208.616L14.683 205.769L13.7414 205.432L12.7231 208.28L13.6647 208.616ZM11.6282 214.312L12.6464 211.464L11.7048 211.127L10.6865 213.975L11.6282 214.312ZM9.59157 220.007L10.6098 217.159L9.66826 216.822L8.64995 219.67L9.59157 220.007ZM7.55498 225.702L8.57329 222.854L7.63167 222.518L6.61339 225.365L7.55498 225.702ZM5.51839 231.397L6.5367 228.549L5.59508 228.213L4.5768 231.06L5.51839 231.397ZM4.50011 234.244L3.55852 233.908L3.16792 235H1.99995V236H3.87233L4.50011 234.244Z" fill="white" fill-opacity="0.3"/>
</svg>
