<svg width="160" height="219" viewBox="0 0 160 219" fill="none" xmlns="http://www.w3.org/2000/svg">
<path fill-rule="evenodd" clip-rule="evenodd" d="M67.5371 42.5498C66.5496 42.5498 65.7461 43.3483 65.7461 44.3304C65.7461 45.3134 66.5496 46.1134 67.5371 46.1134C68.5237 46.1134 69.3251 45.3134 69.3251 44.3304C69.3251 43.3483 68.5237 42.5498 67.5371 42.5498Z" fill="#FCD21F"/>
<path fill-rule="evenodd" clip-rule="evenodd" d="M68.2808 41.5845C68.6252 41.677 68.946 41.8328 69.2256 42.0381L69.8952 41.5931L68.2808 41.5845Z" fill="#FCD21F"/>
<path fill-rule="evenodd" clip-rule="evenodd" d="M79.5625 37.6147L80.0467 43.7949L80.5282 37.6147H79.5625Z" fill="#FCD21F"/>
<path fill-rule="evenodd" clip-rule="evenodd" d="M80.7632 30.8105H79.3485L78.6406 33.6481L79.3485 36.488H80.7632L81.4716 33.6481L80.7632 30.8105Z" fill="#FCD21F"/>
<path fill-rule="evenodd" clip-rule="evenodd" d="M92.8398 50.2124C93.9519 50.2124 94.8565 49.3107 94.8565 48.2035C94.8565 47.6009 94.5818 47.0667 94.1573 46.7007C93.704 47.0036 93.1598 47.1795 92.5739 47.1795C92.1279 47.1795 91.7068 47.0747 91.3299 46.8924C91.0187 47.2435 90.8262 47.6986 90.8262 48.2035C90.8262 49.3107 91.7299 50.2124 92.8398 50.2124Z" fill="#FCD21F"/>
<path fill-rule="evenodd" clip-rule="evenodd" d="M95.3161 41.3311C95.3161 41.3311 94.9816 41.484 94.5831 41.563C94.3042 41.6176 93.5214 41.6284 93.4033 41.6053C93.8284 41.7338 94.2112 41.9616 94.5284 42.2581C94.7099 41.8861 94.9824 41.5703 95.3161 41.3311Z" fill="#FCD21F"/>
<path fill-rule="evenodd" clip-rule="evenodd" d="M78.6404 46.7111C78.2512 47.1053 78.0083 47.6461 78.0083 48.2428C78.0083 49.449 78.9942 50.4306 80.2043 50.4306C81.4138 50.4306 82.3989 49.449 82.3989 48.2428C82.3989 47.0364 81.4138 46.0557 80.2043 46.0557C79.6011 46.0557 79.0549 46.2991 78.6584 46.6918C78.6527 46.6982 78.6461 46.7047 78.6404 46.7111Z" fill="#FCD21F"/>
<path fill-rule="evenodd" clip-rule="evenodd" d="M79.8122 55.5638H80.3008C84.0716 55.5638 86.7736 55.5573 89.5189 55.1207L91.3098 54.3897C87.6485 53.8828 83.8799 53.6222 80.1056 53.6301C76.3758 53.6207 72.556 53.8771 68.9243 54.3719L70.8623 55.1645C73.5225 55.5609 76.1546 55.5638 79.8122 55.5638Z" fill="#FCD21F"/>
<path fill-rule="evenodd" clip-rule="evenodd" d="M90.2158 41.5931L90.8838 42.0368C91.1657 41.8314 91.4842 41.6765 91.8288 41.5845L90.2158 41.5931Z" fill="#FCD21F"/>
<path fill-rule="evenodd" clip-rule="evenodd" d="M86.0889 48.2086C86.0889 49.1901 86.8919 49.9886 87.8785 49.9886C88.8638 49.9886 89.666 49.1901 89.666 48.2086C89.666 47.225 88.8638 46.4258 87.8785 46.4258C86.8919 46.4258 86.0889 47.225 86.0889 48.2086Z" fill="#FCD21F"/>
<path fill-rule="evenodd" clip-rule="evenodd" d="M65.5852 42.2536C65.9289 41.9334 66.3535 41.6957 66.8248 41.5757C66.8248 41.5757 65.8988 41.6008 65.5008 41.5284C65.1001 41.4551 64.7988 41.3345 64.7988 41.3345C65.1318 41.5715 65.4028 41.8852 65.5852 42.2536Z" fill="#FCD21F"/>
<path fill-rule="evenodd" clip-rule="evenodd" d="M98.73 58.4277C98.9887 58.1319 99.1163 57.7056 99.0961 57.4333V57.4311C99.0357 57.2337 98.9946 57.0261 98.9786 56.8115C96.3574 57.3996 93.4796 57.8462 90.2038 58.3919C88.5476 59.4912 86.046 60.9259 82.0669 63.006L83.8205 62.8458C90.2486 62.6491 96.9506 60.4707 98.73 58.4277Z" fill="#FCD21F"/>
<path fill-rule="evenodd" clip-rule="evenodd" d="M67.47 49.9736C68.5808 50.0104 69.5126 49.1401 69.55 48.0321C69.5674 47.531 69.3915 47.0743 69.0975 46.7146C68.6478 47.0082 68.1122 47.179 67.5371 47.179C66.959 47.179 66.4221 47.0067 65.9711 46.7124C65.7051 47.0377 65.5379 47.4484 65.5221 47.8992C65.486 49.0065 66.3595 49.9371 67.47 49.9736Z" fill="#FCD21F"/>
<path fill-rule="evenodd" clip-rule="evenodd" d="M75.0237 112.929V112.913C76.6121 112.442 78.2908 112.184 80.0299 112.184C81.7451 112.184 83.4029 112.434 84.9703 112.893C85.4143 113.021 85.8503 113.165 86.2778 113.328L82.6749 89.4251L80.0442 71.9683L77.4128 89.4207C77.42 89.4222 77.4279 89.4244 77.4367 89.4251L73.833 113.328C74.2229 113.179 74.6222 113.049 75.0237 112.929Z" fill="#FFFFFE"/>
<path fill-rule="evenodd" clip-rule="evenodd" d="M80.0573 52.6719V52.6712H80.0658H80.1026H80.1465C80.1335 52.6712 80.1192 52.6719 80.1054 52.6719C84.4775 52.6611 88.8428 53.0064 93.0454 53.68L93.9671 53.3045C93.9685 52.524 93.97 51.1289 93.9693 51.0636C93.619 51.2014 93.2386 51.2797 92.8406 51.2797C91.7379 51.2797 90.7722 50.6987 90.2265 49.8286C89.7098 50.5681 88.8515 51.0557 87.8799 51.0557C86.3015 51.0557 85.0179 49.7775 85.0179 48.2087C85.0179 46.6354 86.3015 45.3588 87.8799 45.3588C88.8515 45.3588 89.7091 45.8448 90.2265 46.5844C90.2986 46.4681 90.3786 46.3561 90.4665 46.252C90.1285 45.8844 89.885 45.4334 89.7762 44.9294C87.2738 44.9976 85.2054 45.5734 83.1195 46.784C83.3415 47.2235 83.4705 47.7183 83.4705 48.243C83.4705 50.036 82.0054 51.4979 80.205 51.4979C78.4039 51.4979 76.9386 50.036 76.9386 48.243C76.9386 47.77 77.0417 47.3219 77.2248 46.9162C75.0575 45.6108 72.9293 44.9983 70.3325 44.9287C70.2504 45.3093 70.0904 45.6588 69.8735 45.9676C70.0817 46.2097 70.2504 46.4833 70.3757 46.7798C70.8716 45.9311 71.7905 45.3588 72.8434 45.3588C74.4212 45.3588 75.7048 46.6354 75.7048 48.2087C75.7048 49.7775 74.4212 51.0557 72.8434 51.0557C71.6997 51.0557 70.7124 50.3793 70.2568 49.4084C69.7199 50.4094 68.6474 51.0792 67.4353 51.0391C66.8039 51.0183 66.437 50.8373 66.1364 50.7497L66.1357 53.2334L67.1837 53.6606C71.3437 53.0022 75.7437 52.664 80.0573 52.6719Z" fill="#FCD21F"/>
<path fill-rule="evenodd" clip-rule="evenodd" d="M74.6339 48.2086C74.6339 47.225 73.8324 46.4258 72.8436 46.4258C71.859 46.4258 71.0576 47.225 71.0576 48.2086C71.0576 49.1901 71.859 49.9886 72.8436 49.9886C73.8324 49.9886 74.6339 49.1901 74.6339 48.2086Z" fill="#FCD21F"/>
<path fill-rule="evenodd" clip-rule="evenodd" d="M63.0273 31.2894L63.7596 33.004C64.2331 33.1297 64.7052 33.2739 65.1794 33.4376L66.0234 32.6047L64.7895 29.6587L63.0273 31.2894Z" fill="#FCD21F"/>
<path fill-rule="evenodd" clip-rule="evenodd" d="M91.8584 30.3899L93.3445 31.8714L94.5612 28.9619L93.034 27.5488L91.8584 30.3899Z" fill="#FCD21F"/>
<path fill-rule="evenodd" clip-rule="evenodd" d="M96.3411 33.0054L97.0763 31.2892L95.3128 29.6587L94.0796 32.6041L94.9257 33.4405C95.3985 33.2767 95.8713 33.1332 96.3411 33.0054Z" fill="#FCD21F"/>
<path fill-rule="evenodd" clip-rule="evenodd" d="M65.5405 28.9617L66.7579 31.8704L68.244 30.39L67.0691 27.5479L65.5405 28.9617Z" fill="#FCD21F"/>
<path fill-rule="evenodd" clip-rule="evenodd" d="M67.1582 32.8274L67.9077 34.5829C68.1536 34.7028 68.4 34.8213 68.6457 34.9527L69.7413 34.0113L68.6406 31.3496L67.1582 32.8274Z" fill="#FCD21F"/>
<path fill-rule="evenodd" clip-rule="evenodd" d="M66.5985 33.9791L66.4227 33.562L66.1763 33.8061C66.3174 33.8614 66.458 33.921 66.5985 33.9791Z" fill="#FCD21F"/>
<path fill-rule="evenodd" clip-rule="evenodd" d="M93.5132 33.9791C93.6538 33.921 93.7943 33.8614 93.9341 33.8061H93.9268L93.6804 33.562L93.5132 33.9791Z" fill="#FCD21F"/>
<path fill-rule="evenodd" clip-rule="evenodd" d="M86.8818 36.2195L87.8749 37.2095H87.8836C87.9282 37.1758 87.9737 37.145 88.0205 37.1127L89.2111 34.2822L87.9102 33.1484L86.8818 36.2195Z" fill="#FCD21F"/>
<path fill-rule="evenodd" clip-rule="evenodd" d="M81.0518 45.1042C81.637 45.2614 82.1568 45.5737 82.5625 45.9974C84.7996 44.6898 87.0684 44.0436 89.7372 43.9675C89.7957 43.5167 89.9585 43.0952 90.2036 42.736L87.0432 40.6336C87.0432 40.6336 93.1498 40.8319 94.3794 40.6336C95.6082 40.437 95.8166 40.0248 95.8166 40.0248L90.6381 38.899L99.3069 33.4009C93.152 34.0788 86.752 38.1715 81.0518 45.1042Z" fill="#FCD21F"/>
<path fill-rule="evenodd" clip-rule="evenodd" d="M97.5146 32.7262C97.8254 32.663 98.1368 32.5976 98.4459 32.5494L97.8254 31.9829L97.5146 32.7262Z" fill="#FCD21F"/>
<path fill-rule="evenodd" clip-rule="evenodd" d="M86.0913 38.6108C86.4293 38.328 86.7702 38.0586 87.1119 37.7945L86.5418 37.2358L86.0913 38.6108Z" fill="#FCD21F"/>
<path fill-rule="evenodd" clip-rule="evenodd" d="M92.5744 46.1133C93.5612 46.1133 94.3618 45.3134 94.3618 44.3304C94.3618 43.3481 93.5612 42.5498 92.5744 42.5498C91.5856 42.5498 90.7827 43.3481 90.7827 44.3304C90.7827 45.3134 91.5856 46.1133 92.5744 46.1133Z" fill="#FCD21F"/>
<path fill-rule="evenodd" clip-rule="evenodd" d="M89.5054 36.1026C89.8577 35.877 90.2102 35.6588 90.564 35.4526L89.9746 34.9473L89.5054 36.1026Z" fill="#FCD21F"/>
<path fill-rule="evenodd" clip-rule="evenodd" d="M88.2402 32.162L89.598 33.3462L90.726 30.6169L89.2486 29.1436L88.2402 32.162Z" fill="#FCD21F"/>
<path fill-rule="evenodd" clip-rule="evenodd" d="M90.3613 34.0118L91.4604 34.9553C91.704 34.826 91.949 34.7075 92.1934 34.5876L92.9444 32.8277L91.4611 31.3501L90.3613 34.0118Z" fill="#FCD21F"/>
<path fill-rule="evenodd" clip-rule="evenodd" d="M120.68 127.12L127.546 128.426C126.608 123.705 125.314 119.632 124.186 118.692C122.627 118.614 121.195 118.403 120.159 117.5L120.132 118.161C119.587 118.161 119.033 118.145 118.482 118.105C119.458 121.642 120.221 124.817 120.68 127.12Z" fill="#FCD21F"/>
<path fill-rule="evenodd" clip-rule="evenodd" d="M119.898 143.741C120.102 142.714 120.463 135.859 120.438 133.36L114.504 134.443C114.393 136.333 114.027 139.867 114.027 139.867C114.628 142.841 117.235 150.338 117.514 151.146C118.57 149.519 119.29 146.786 119.898 143.741Z" fill="#FCD21F"/>
<path fill-rule="evenodd" clip-rule="evenodd" d="M123.415 156.347C123.454 156.314 123.495 156.278 123.531 156.25C124.689 155.371 126.006 154.689 127.433 154.257C127.673 153.432 127.879 152.568 128.06 151.682C129.209 146.008 129.147 139.183 128.273 132.71C128.258 132.603 128.189 132.147 128.161 131.949L121.397 133.184C121.446 135.473 121.29 138.169 121.054 141.223C120.959 142.423 120.664 144.598 120.752 145.3C121.284 148.983 122.016 151.809 122.998 154.913C123.128 155.331 123.27 155.825 123.415 156.347Z" fill="#FCD21F"/>
<path fill-rule="evenodd" clip-rule="evenodd" d="M116.814 152.034C116.441 150.938 115.433 148.047 115.285 147.622C112.563 146.326 109.16 145.605 105.234 145.188C105.45 145.274 105.979 145.493 106.027 145.513C109.906 147.143 113.764 149.275 116.814 152.034Z" fill="#FCD21F"/>
<path fill-rule="evenodd" clip-rule="evenodd" d="M104.702 136.233L98.1084 137.437L101.28 143.74C103.315 143.007 105.14 140.478 104.702 136.233Z" fill="#FCD21F"/>
<path fill-rule="evenodd" clip-rule="evenodd" d="M134.75 98.4656C134.491 96.1988 126.85 89.3624 126.848 89.3682C126.329 90.2556 124.419 90.2959 122.356 89.8392C122.619 90.115 123.284 90.9205 123.252 90.8351C126.021 93.6835 128.529 96.9024 129.03 98.8189C131.371 99.5865 133.586 100.187 134.342 99.644C134.511 99.5225 134.8 99.1126 134.75 98.4656Z" fill="#FCD21F"/>
<path fill-rule="evenodd" clip-rule="evenodd" d="M109.622 144.706C110.445 144.118 112.239 141.797 113.121 139.647C113.286 138.161 113.436 136.241 113.526 134.622L106.633 135.88C107.982 138.744 108.915 141.909 109.622 144.706Z" fill="#FCD21F"/>
<path fill-rule="evenodd" clip-rule="evenodd" d="M120.375 83.3857C121.82 84.1274 123.639 85.4056 125.525 86.9544C126.402 87.2522 130.23 87.8196 131.074 86.9379C128.194 84.9035 125.134 83.4079 122.643 83.0884C121.788 83.0921 121.034 83.1933 120.375 83.3857Z" fill="#FCD21F"/>
<path fill-rule="evenodd" clip-rule="evenodd" d="M142.165 117.851C142.096 117.653 141.64 116.439 141.427 115.882C138.946 109.302 136.783 104.008 133.651 100.794C132.558 100.856 131.034 100.481 128.948 99.8027C128.829 100.119 128.615 100.377 128.31 100.566C127.699 100.942 126.766 100.994 125.614 100.745C128.238 103.076 129.049 104.844 129.984 106.49C131.58 109.295 132.809 113.382 133.335 115.584C135.623 117.095 137.892 118.438 142.165 117.851Z" fill="#FCD21F"/>
<path fill-rule="evenodd" clip-rule="evenodd" d="M127.803 99.7518C128.005 99.6275 128.093 99.4494 128.093 99.1745V99.0438C127.68 97.4879 125.506 94.7701 123.098 92.2103C122.693 92.5328 119.187 92.5456 117.46 91.9497C117.968 92.5843 121.985 97.3528 123.027 98.7788C125.464 99.9787 127.181 100.135 127.803 99.7518Z" fill="#FCD21F"/>
<path fill-rule="evenodd" clip-rule="evenodd" d="M126.475 117.052C126.558 117.466 126.624 118.726 126.624 118.726C126.624 118.726 125.669 118.728 125.461 118.726C126.606 120.429 127.749 124.371 128.567 128.62L135.719 129.981C134.96 126.62 133.542 121.529 131.561 118.618C129.738 118.409 128.088 117.903 126.475 117.052Z" fill="#FCD21F"/>
<path fill-rule="evenodd" clip-rule="evenodd" d="M75.8472 71.4048C74.8446 70.9036 73.8134 70.3901 72.7993 70.001V77.48C73.1892 78.1298 76.0418 82.6341 76.9917 83.9631L78.676 72.7373C78.0015 72.4351 76.5046 71.7314 75.8472 71.4048Z" fill="#FCD21F"/>
<path fill-rule="evenodd" clip-rule="evenodd" d="M132.389 116.122C131.752 113.282 129.215 104.194 123.115 100.008C122.924 100.73 122.501 101.108 122.127 101.296C121.499 101.609 120.715 101.663 119.735 101.335C119.425 101.233 118.349 100.663 117.881 100.353C118.194 100.655 118.899 101.225 119.119 101.456C122.519 105.016 124.993 110.437 126.116 115.398L126.209 115.804C128.331 117.107 130.183 117.7 132.76 117.781C132.701 117.638 132.536 116.848 132.389 116.122Z" fill="#FCD21F"/>
<path fill-rule="evenodd" clip-rule="evenodd" d="M136.395 133.508C136.395 133.508 136.168 132.132 135.839 130.546L129.103 131.777C129.127 131.919 129.182 132.237 129.184 132.252C133.884 137.557 136.897 136.998 136.897 136.998C136.897 136.329 136.395 133.508 136.395 133.508Z" fill="#FCD21F"/>
<path fill-rule="evenodd" clip-rule="evenodd" d="M94.1699 108.921L98.4539 106.738L94.2794 103.684L94.1699 108.921Z" fill="#FCD21F"/>
<path fill-rule="evenodd" clip-rule="evenodd" d="M131.841 87.4965C130.739 88.4923 129.12 88.3862 127.008 88.1283C130.555 91.2374 134.067 95.0731 135.583 97.9855C137.571 98.975 139.015 99.675 139.78 99.3626C140.099 99.2306 140.599 98.8377 140.565 98.3028C140.03 95.0933 136.26 90.7248 131.913 87.4757C131.961 87.4217 131.905 87.4383 131.841 87.4965Z" fill="#FCD21F"/>
<path fill-rule="evenodd" clip-rule="evenodd" d="M136.629 144.446C136.629 144.039 136.629 143.631 136.623 143.233C136.586 140.801 136.458 139.625 136.307 137.949C134.045 137.597 132.63 136.743 129.376 133.749C129.843 137.702 130.374 144.222 129.163 151.111C128.996 152.06 128.798 153.014 128.561 153.971C129.187 153.842 129.833 153.763 130.491 153.732L131.162 150.91L131.391 150.632L132.225 149.615L131.017 150.06L130.668 150.189L130.734 149.824L131.689 144.55L131.755 144.184L132.038 144.429L133.019 145.279L132.605 144.043L132.491 143.703L132.845 143.768L136.629 144.446Z" fill="#FCD21F"/>
<path fill-rule="evenodd" clip-rule="evenodd" d="M96.3953 123.149L106.354 104.15C106.354 104.15 87.1579 113.68 87.2091 113.706C91.2357 115.609 94.737 118.998 96.3953 123.149Z" fill="#FFFFFE"/>
<path fill-rule="evenodd" clip-rule="evenodd" d="M87.3124 77.48V70.001C86.2983 70.3901 85.2676 70.9036 84.2643 71.4048C83.5394 71.7644 82.1786 72.397 81.4326 72.723L83.1163 83.9415C84.064 82.6189 86.9238 78.1291 87.3124 77.48Z" fill="#FCD21F"/>
<path fill-rule="evenodd" clip-rule="evenodd" d="M87.6021 112.246L91.9869 110.034L89.5091 106.095L87.6021 112.246Z" fill="#FCD21F"/>
<path fill-rule="evenodd" clip-rule="evenodd" d="M130.952 130.284C130.952 130.284 96.4868 123.584 96.5063 123.637C97.1571 125.483 97.681 127.792 97.681 129.834C97.681 132.14 97.2969 134.344 96.4883 136.364C96.4789 136.389 130.952 130.284 130.952 130.284Z" fill="#FFFFFE"/>
<path fill-rule="evenodd" clip-rule="evenodd" d="M101.466 116.367C102.653 117.139 103.925 116.912 104.006 116.905C103.871 115.438 103.411 113.966 103.125 113.167L101.466 116.367Z" fill="#FCD21F"/>
<path fill-rule="evenodd" clip-rule="evenodd" d="M114.263 125.899L119.664 126.927C119.195 124.644 118.426 121.495 117.455 117.996C116.295 117.834 115.2 117.53 114.316 116.965L114.416 117.783C114.416 117.783 112.972 117.903 112.632 117.961C113.418 120.467 113.97 123.469 114.263 125.899Z" fill="#FCD21F"/>
<path fill-rule="evenodd" clip-rule="evenodd" d="M103.789 111.885C104.214 113.135 104.666 114.812 104.952 115.922C105.684 116.812 107.633 117.161 108.937 116.859C108.169 113.463 106.844 110.527 105.734 108.131L103.789 111.885Z" fill="#FCD21F"/>
<path fill-rule="evenodd" clip-rule="evenodd" d="M98.1177 122.828L103.901 123.928C103.817 122.117 103.599 119.555 103.066 117.89C102.658 117.868 101.592 117.543 100.989 117.29L98.1177 122.828Z" fill="#FCD21F"/>
<path fill-rule="evenodd" clip-rule="evenodd" d="M104.879 124.114L108.199 124.746C108.086 123.188 107.5 118.778 107.313 117.858C106.55 117.739 105.982 117.649 104.963 116.885C104.981 117.234 104.984 117.685 104.984 117.685C104.803 117.807 104.472 117.804 104.064 117.866C104.591 119.674 104.803 122.311 104.879 124.114Z" fill="#FCD21F"/>
<path fill-rule="evenodd" clip-rule="evenodd" d="M125.589 117.77C125.519 117.169 125.451 116.158 125.237 115.351C123.283 107.976 120.726 104.149 117.487 100.989C116.75 101.735 115.01 101.694 113.723 101.495C113.638 101.724 113.496 101.921 113.067 102.016C116.739 105.382 118.305 110.151 119.872 115.609C120.546 117.63 123.245 117.761 125.589 117.77Z" fill="#FCD21F"/>
<path fill-rule="evenodd" clip-rule="evenodd" d="M69.5479 35.4528C69.9009 35.6588 70.2527 35.8772 70.605 36.1026L70.1279 34.9473L69.5479 35.4528Z" fill="#FCD21F"/>
<path fill-rule="evenodd" clip-rule="evenodd" d="M61.6655 32.5493C61.9756 32.5975 62.2868 32.6628 62.5976 32.726L62.2782 31.9829L61.6655 32.5493Z" fill="#FCD21F"/>
<path fill-rule="evenodd" clip-rule="evenodd" d="M40.5527 162.642C41.2158 162.425 42.2875 161.832 42.8699 161.162C44.836 159.146 45.8197 156.592 47.1797 154.222C48.4633 151.99 49.7844 149.708 51.7101 147.646C46.8613 150.029 42.8193 152.541 40.4173 156.903C40.0756 157.507 39.3261 159.061 38.7472 159.868C38.1881 160.648 36.3013 162.416 36.3013 162.416C36.3013 162.416 36.818 162.654 37.5063 162.813C38.1952 162.973 39.7202 162.915 40.5527 162.642Z" fill="#FCD21F"/>
<path fill-rule="evenodd" clip-rule="evenodd" d="M54.8775 145.188C50.9516 145.605 47.5485 146.326 44.8263 147.623C44.6786 148.048 43.6696 150.939 43.2969 152.034C45.8065 149.365 50.2065 147.143 54.0846 145.513C54.1329 145.493 54.6613 145.275 54.8775 145.188Z" fill="#FCD21F"/>
<path fill-rule="evenodd" clip-rule="evenodd" d="M39.6709 133.359C39.6349 135.789 40.0061 142.701 40.2142 143.74C40.8226 146.786 41.5426 149.519 42.5991 151.146C42.878 150.338 45.4841 142.841 46.0861 139.867C46.0861 139.867 45.7213 136.322 45.6131 134.444L39.6709 133.359Z" fill="#FCD21F"/>
<path fill-rule="evenodd" clip-rule="evenodd" d="M62.0043 137.438L55.3318 136.219C54.8683 140.525 56.7797 143.024 58.8316 143.763L62.0043 137.438Z" fill="#FCD21F"/>
<path fill-rule="evenodd" clip-rule="evenodd" d="M38.0774 159.23C38.5084 158.536 39.3004 156.923 39.7249 156.191C40.5495 154.743 41.1073 154.034 42.2864 152.835C42.2864 152.835 41.3422 151.4 41.0251 150.284C39.4611 151.767 38.5163 153.623 37.7646 155.979C37.4928 156.827 36.0708 161.296 36.0708 161.296C36.3728 160.997 37.5354 160.106 38.0774 159.23Z" fill="#FCD21F"/>
<path fill-rule="evenodd" clip-rule="evenodd" d="M62.4308 129.833C62.4308 127.791 62.9547 125.48 63.6063 123.634C63.6244 123.581 29.1587 130.283 29.1587 130.283C29.1587 130.283 63.633 136.388 63.6229 136.363C62.8143 134.343 62.4308 132.139 62.4308 129.833Z" fill="#FFFFFE"/>
<path fill-rule="evenodd" clip-rule="evenodd" d="M56.106 116.905C56.186 116.913 57.4574 117.139 58.6457 116.366L56.9866 113.166C56.7006 113.966 56.2393 115.438 56.106 116.905Z" fill="#FCD21F"/>
<path fill-rule="evenodd" clip-rule="evenodd" d="M48.4614 118.085C47.6895 120.501 47.1526 123.361 46.8555 125.705L50.9233 124.932C51.035 123.286 51.7284 118.714 51.8076 117.928C51.8076 117.928 51.1928 117.891 50.5673 117.747L50.586 117.215C50.1493 117.529 49.3269 117.939 48.4614 118.085Z" fill="#FCD21F"/>
<path fill-rule="evenodd" clip-rule="evenodd" d="M61.9937 122.828L59.1238 117.29C58.5207 117.543 57.4526 117.868 57.046 117.89C56.5126 119.556 56.3073 122.12 56.2251 123.924L61.9937 122.828Z" fill="#FCD21F"/>
<path fill-rule="evenodd" clip-rule="evenodd" d="M50.4916 144.706C51.1966 141.91 52.1262 138.74 53.4739 135.879L46.5781 134.619C46.6682 136.239 46.8276 138.159 46.9918 139.647C47.874 141.797 49.6678 144.118 50.4916 144.706Z" fill="#FCD21F"/>
<path fill-rule="evenodd" clip-rule="evenodd" d="M27.3516 117.781C29.9287 117.7 31.7804 117.107 33.9028 115.804L33.9944 115.398C35.1173 110.437 37.5916 105.016 40.9927 101.456C41.2124 101.225 41.9166 100.655 42.23 100.353C41.763 100.662 40.6848 101.233 40.3764 101.335C39.3969 101.663 38.6127 101.609 37.985 101.295C37.6096 101.108 37.1879 100.73 36.9969 100.008C30.896 104.194 28.3597 113.282 27.7226 116.122C27.5757 116.847 27.4092 117.638 27.3516 117.781Z" fill="#FCD21F"/>
<path fill-rule="evenodd" clip-rule="evenodd" d="M51.1748 116.859C52.4786 117.161 54.4274 116.812 55.1603 115.922C55.4458 114.813 55.8968 113.135 56.3221 111.885L54.3768 108.131C53.2678 110.527 51.943 113.463 51.1748 116.859Z" fill="#FCD21F"/>
<path fill-rule="evenodd" clip-rule="evenodd" d="M42.6511 91.9502C40.9265 92.5469 37.4188 92.5332 37.0137 92.2108C34.6058 94.7706 32.432 97.4883 32.019 99.0442V99.175C32.019 99.4501 32.1071 99.6281 32.3089 99.7523C32.9315 100.136 34.6483 99.9792 37.0851 98.7801C38.128 97.3534 42.1438 92.585 42.6511 91.9502Z" fill="#FCD21F"/>
<path fill-rule="evenodd" clip-rule="evenodd" d="M42.6574 117.996C41.6787 121.527 40.8888 124.629 40.4189 126.928L45.8293 125.9C46.1192 123.466 46.6884 120.48 47.4805 117.962C47.139 117.903 45.6952 117.783 45.6952 117.783L45.7948 116.964C44.9119 117.53 43.8157 117.834 42.6574 117.996Z" fill="#FCD21F"/>
<path fill-rule="evenodd" clip-rule="evenodd" d="M107.815 168.798C107.815 168.798 109.523 168.712 110.708 167.776C111.992 166.764 112.93 164.683 112.114 161.72C111.056 157.869 107.325 153.169 104.772 150.733C104.772 150.733 108.924 158.049 109.449 159.962C110.074 162.238 109.728 163.438 109.412 164.71C109.005 166.358 108.179 167.938 107.815 168.798Z" fill="#FCD21F"/>
<path fill-rule="evenodd" clip-rule="evenodd" d="M119.587 156.903C117.185 152.541 113.252 150.029 108.402 147.646C110.328 149.708 111.65 151.99 112.931 154.222C114.292 156.591 115.168 159.146 117.134 161.162C117.636 161.739 118.499 162.256 119.152 162.528C119.169 162.472 119.184 162.413 119.202 162.358C119.474 161.509 120.188 160.162 120.813 159.169C120.338 158.36 119.847 157.361 119.587 156.903Z" fill="#FCD21F"/>
<path fill-rule="evenodd" clip-rule="evenodd" d="M126.963 173.263C128.087 173.04 128.161 171.165 127.452 169.695C126.967 168.686 125.478 166.472 125.478 166.472L119.74 165.088C119.71 165.43 119.692 165.774 119.692 166.124C119.692 167.267 119.953 168.657 120.27 169.698C122.626 169.644 125.839 173.485 126.963 173.263Z" fill="#FCD21F"/>
<path fill-rule="evenodd" clip-rule="evenodd" d="M133.594 144.704L134.467 147.445L132.335 145.623L131.719 149.026L134.354 148.103L132.519 150.459L136.069 151.097L135.187 148.251L137.316 150.064L137.937 146.64L135.303 147.599L137.074 145.33L133.594 144.704Z" fill="#FCD21F"/>
<path fill-rule="evenodd" clip-rule="evenodd" d="M142.882 117.079C143.059 117.449 143.255 118.619 143.255 118.619C143.255 118.619 141.701 118.879 141.19 118.914C146.197 125.713 147.377 133.246 148.343 136.89C148.801 138.62 149.895 139.472 150.819 140.358C151.192 140.717 153.206 142.808 157.616 144.035C158.068 144.16 159.162 144.315 159.345 144.317C158.912 139.202 158.113 134.885 157.108 131.144C157.013 130.791 156.924 130.433 156.826 130.093C155.837 126.641 154.674 123.704 153.477 121.092C153.451 121.109 152.667 119.579 152.3 118.841C152.3 118.84 152.298 118.838 152.297 118.836C151.352 119.048 150.374 119.201 149.342 119.201C147.402 119.201 145.281 118.678 142.882 117.079Z" fill="#FCD21F"/>
<path fill-rule="evenodd" clip-rule="evenodd" d="M19.5461 98.3029C19.5116 98.8379 20.0125 99.2306 20.3316 99.3627C21.0956 99.6752 22.54 98.9757 24.5299 97.9855C26.0455 95.0733 29.5569 91.2374 33.1044 88.1284C30.9934 88.3862 29.3725 88.4917 28.269 87.4966C28.2055 87.4384 28.1501 87.4219 28.1984 87.475C23.8516 90.7241 20.0824 95.0933 19.5461 98.3029Z" fill="#FCD21F"/>
<path fill-rule="evenodd" clip-rule="evenodd" d="M61.6582 106.738L65.9422 108.921L65.8312 103.685L61.6582 106.738Z" fill="#FCD21F"/>
<path fill-rule="evenodd" clip-rule="evenodd" d="M68.1245 110.035L72.5109 112.247L70.6651 106.095L68.1245 110.035Z" fill="#FCD21F"/>
<path fill-rule="evenodd" clip-rule="evenodd" d="M31.9375 131.947C31.9103 132.152 31.8582 132.574 31.8402 132.71C30.9661 139.184 30.9033 146.008 32.0522 151.682C32.2432 152.563 32.512 153.91 32.912 155.055C33.6608 157.201 35.5094 160.388 35.5094 160.388C35.8553 159.187 36.5054 156.505 37.0063 154.912C37.9872 151.809 38.8283 148.983 39.3602 145.301C39.4489 144.598 39.1534 142.423 39.059 141.223C38.8204 138.14 38.6612 135.499 38.7145 133.184L31.9375 131.947Z" fill="#FCD21F"/>
<path fill-rule="evenodd" clip-rule="evenodd" d="M63.716 123.149C65.373 119.001 68.8721 115.615 72.8952 113.709C72.9484 113.683 53.7578 104.15 53.7578 104.15L63.716 123.149Z" fill="#FFFFFE"/>
<path fill-rule="evenodd" clip-rule="evenodd" d="M55.2308 150.734C52.6787 153.17 48.9475 157.87 47.8895 161.721C47.0736 164.684 48.0112 166.764 49.2956 167.777C50.4805 168.713 52.1879 168.799 52.1879 168.799C51.8246 167.939 50.9987 166.359 50.5901 164.711C50.2758 163.438 49.9299 162.238 50.5541 159.962C51.0794 158.05 55.2308 150.734 55.2308 150.734Z" fill="#FCD21F"/>
<path fill-rule="evenodd" clip-rule="evenodd" d="M17.4199 138.755C17.8515 138.536 17.8385 138.02 17.7803 137.643C17.6807 137.001 17.3946 136.133 17.2476 135.769C16.4944 133.892 15.0883 132.721 14.6184 132.321C14.2912 132.044 13.6483 131.837 13.6483 131.837C13.3543 131.759 13.0285 131.777 12.7445 131.892C12.7287 131.898 12.7121 131.906 12.6955 131.913C12.488 132.008 12.3525 132.12 12.2343 132.348C12.1153 132.576 11.9676 133.374 11.7773 133.548C11.7276 133.593 11.6829 133.623 11.6404 133.639C11.1618 133.832 11.1568 132.32 11.1503 132.292C11.2584 132.183 11.8033 131.969 12.0361 131.696C12.1672 131.512 12.6465 130.889 12.648 130.528C12.6155 129.987 11.8768 129.985 11.3579 130.194C11.3514 130.197 11.3442 130.2 11.337 130.202C11.2253 130.032 11.022 129.94 10.8159 129.988C10.8015 129.992 10.7871 129.996 10.7719 130.002C10.4944 130.115 10.1038 130.639 10.1038 130.639C10.6033 129.631 9.80399 128.452 8.71282 128.837L8.24148 127.742L7.58058 128.015L6.91607 128.277L7.34058 129.389C6.28832 129.869 6.5384 131.271 7.60075 131.648C7.60075 131.648 6.95427 131.543 6.67678 131.655C6.66238 131.661 6.64724 131.668 6.6357 131.675C6.45264 131.782 6.37192 131.992 6.41084 132.191C6.40363 132.193 6.3957 132.196 6.38994 132.198C5.87174 132.408 5.34201 132.92 5.69588 133.332C5.94886 133.591 6.72867 133.706 6.95066 133.747C7.31029 133.783 7.85084 133.559 8.00363 133.56C8.01877 133.586 9.07102 134.676 8.59247 134.87C8.55137 134.885 8.49805 134.895 8.43029 134.896C8.173 134.905 7.50994 134.434 7.26489 134.353C7.02058 134.271 6.84328 134.285 6.62994 134.361C6.61264 134.366 6.59607 134.373 6.57877 134.38C6.29625 134.494 6.04904 134.705 5.89192 134.967C5.89192 134.967 5.5748 135.559 5.53445 135.987C5.47607 136.599 5.28291 138.415 6.05264 140.285C6.20256 140.649 6.60256 141.47 6.97948 142.001C7.20148 142.312 7.55174 142.69 8.01517 142.548C8.02957 142.544 8.04544 142.538 8.06201 142.532C8.56724 142.328 9.89913 141.129 9.94886 141.077C10.0469 141.372 12.0944 142.885 12.4649 142.846C12.4512 142.901 14.4786 142.083 14.4289 142.053C14.7236 141.827 15.1373 139.317 15.0011 139.039C15.0753 139.041 16.8684 138.979 17.3744 138.775C17.3911 138.768 17.4054 138.761 17.4199 138.755Z" fill="#FCD21F"/>
<path fill-rule="evenodd" clip-rule="evenodd" d="M40.9222 83.894C39.682 84.3937 37.9759 85.503 36.1367 86.9435C36.1367 86.9435 34.0913 88.8844 34.0928 88.8864C34.309 89.2707 36.7442 89.412 39.7921 88.218C40.8913 87.1991 41.8679 86.3605 42.564 85.8398C42.384 85.4046 42.1561 85.0192 41.8758 84.6895C41.6099 84.3765 41.2869 84.1166 40.9222 83.894Z" fill="#FCD21F"/>
<path fill-rule="evenodd" clip-rule="evenodd" d="M73.2606 146.132C70.62 145.034 68.2733 143.237 66.4643 141.074C65.4531 139.862 64.6013 138.512 63.9446 137.057C63.9166 136.992 61.2153 142.224 58.6531 147.213L53.7241 156.082L67.2175 149.211L73.2606 146.132Z" fill="#FFFFFE"/>
<path fill-rule="evenodd" clip-rule="evenodd" d="M66.9453 137.974L80.0864 114.886L93.1097 137.974H66.9453ZM92.9492 139.903C95.1206 137.122 96.4187 133.628 96.4187 129.833C96.4187 122.418 91.4694 116.139 84.7013 114.123C83.2187 113.682 81.6532 113.441 80.0303 113.441C78.4244 113.441 76.8742 113.678 75.4075 114.111C75.409 114.115 75.409 114.118 75.4103 114.123C68.6428 116.139 63.6914 122.418 63.6914 129.833C63.6914 133.628 64.9903 137.122 67.161 139.903C70.1657 143.713 74.8136 146.228 80.0303 146.228C85.2749 146.228 89.9472 143.749 92.9492 139.903Z" fill="#F07D00"/>
<path fill-rule="evenodd" clip-rule="evenodd" d="M46.0505 164.779C47.8573 156.256 53.1727 151.061 56.5168 148.351L57.2843 146.868L58.2401 144.959C57.0379 145.374 55.8142 145.827 54.5896 146.337C54.5759 146.343 54.5643 146.349 54.5514 146.355C51.443 148.752 49.7716 151.641 48.0159 154.699C46.643 157.088 45.4863 159.751 43.3263 161.919C42.7821 162.482 42.1039 162.823 41.1843 163.314L40.4858 168.178C40.4858 168.178 45.6441 166.697 46.0505 164.779Z" fill="#FCD21F"/>
<path fill-rule="evenodd" clip-rule="evenodd" d="M80.0816 117.441L69.1108 136.718H90.953L80.0816 117.441Z" fill="#0066B1"/>
<path fill-rule="evenodd" clip-rule="evenodd" d="M16.1709 144.568L23.9099 158.836C22.9464 154.744 22.5189 149.745 22.5269 144.861C22.529 144.352 22.5398 143.852 22.5607 143.371C22.648 141.38 22.684 139.729 22.8607 137.854L22.2249 137.743C22.2574 137.236 22.3936 136.157 22.3871 136.165C20.8664 137.601 19.7154 138.516 18.5558 139.111C18.3568 139.409 18.1024 139.593 17.9027 139.695C17.8631 139.714 17.8192 139.733 17.7717 139.753C17.4249 139.893 16.5125 139.964 15.9561 140.012C15.9467 140.553 15.8876 141.325 15.5229 142.347L15.6397 143.661C15.8458 144.035 16.0102 144.298 16.1709 144.568Z" fill="#FCD21F"/>
<path fill-rule="evenodd" clip-rule="evenodd" d="M28.4926 166.509L31.8563 154.995C31.519 153.792 31.2084 152.471 30.9482 151.111C29.7374 144.222 30.2685 137.702 30.7363 133.749C27.4808 136.744 26.0667 137.597 23.8043 137.95C23.6544 139.625 23.5247 140.801 23.488 143.234C23.4814 143.721 23.4801 144.219 23.4814 144.72C23.4735 151.354 24.2599 158.271 26.172 162.872L28.4926 166.509Z" fill="#FCD21F"/>
<path fill-rule="evenodd" clip-rule="evenodd" d="M73.561 37.2363L73.001 37.7941C73.341 38.0591 73.6819 38.3283 74.0208 38.6113L73.561 37.2363Z" fill="#FCD21F"/>
<path fill-rule="evenodd" clip-rule="evenodd" d="M70.8906 34.2815L72.0798 37.1047C72.1282 37.1393 72.1785 37.1715 72.2284 37.2095L73.2222 36.2186L72.1937 33.1484L70.8906 34.2815Z" fill="#FCD21F"/>
<path fill-rule="evenodd" clip-rule="evenodd" d="M52.7983 117.859C52.6124 118.779 52.0302 123.185 51.917 124.743L55.2425 124.111C55.3188 122.314 55.5256 119.66 56.0473 117.867C55.6403 117.804 55.3087 117.807 55.1278 117.686C55.1278 117.686 55.1315 117.235 55.1487 116.885C54.1295 117.649 53.5625 117.74 52.7983 117.859Z" fill="#FCD21F"/>
<path fill-rule="evenodd" clip-rule="evenodd" d="M15.3048 131.517L15.3315 131.541C15.8958 132.019 17.3949 133.292 18.2302 135.376C18.4003 135.799 18.7131 136.747 18.8263 137.482C18.8407 137.581 18.8421 137.668 18.8493 137.76C19.8865 137.132 21.0678 136.138 22.5755 134.643C23.41 128.583 25.0498 122.918 27.3849 118.732C27.1766 118.739 26.1559 118.742 26.1559 118.742C26.1559 118.742 26.3254 117.423 26.463 116.929C24.7506 117.999 22.83 118.91 20.0291 118.94C18.0658 122.122 16.3002 124.327 14.3218 130.96C14.6101 131.078 15.0101 131.267 15.3048 131.517Z" fill="#FCD21F"/>
<path fill-rule="evenodd" clip-rule="evenodd" d="M69.8833 58.3912C66.6075 57.8455 63.7527 57.3989 61.1323 56.8115C61.1134 57.0528 61.0624 57.2825 60.9888 57.5022C60.9903 57.5266 60.9967 57.5489 60.9953 57.5742C60.9751 57.8455 61.1503 58.1313 61.409 58.4271C63.1892 60.47 70.3257 62.4274 76.2782 62.8381L78.031 63.0053C74.2833 61.1915 71.569 59.5293 69.8833 58.3912Z" fill="#FCD21F"/>
<path fill-rule="evenodd" clip-rule="evenodd" d="M69.4732 38.8988L64.2954 40.0239C64.2954 40.0239 64.7769 40.4476 65.7325 40.6336C66.6882 40.8209 73.0695 40.6336 73.0695 40.6336L69.9055 42.7382C70.1506 43.0979 70.3112 43.5172 70.3697 43.9659C73.1178 44.045 75.4422 44.7207 77.7426 46.1093C78.1073 45.6928 78.5758 45.3713 79.1062 45.1816C79.1112 45.1787 79.1149 45.1774 79.1185 45.1736C73.4061 38.1966 66.9809 34.0808 60.8042 33.4009L69.4732 38.8988Z" fill="#FCD21F"/>
<path fill-rule="evenodd" clip-rule="evenodd" d="M118.235 84.6897C117.955 85.0192 117.728 85.4041 117.547 85.8393C118.244 86.3605 119.22 87.1999 120.32 88.2188C123.367 89.4122 125.802 89.2707 126.019 88.8866C126.02 88.8844 123.973 86.9435 123.973 86.9435C122.134 85.5039 120.429 84.3939 119.19 83.894C118.824 84.1166 118.502 84.3765 118.235 84.6897Z" fill="#FCD21F"/>
<path fill-rule="evenodd" clip-rule="evenodd" d="M23.7162 133.508C23.7162 133.508 23.2153 136.329 23.2153 136.998C23.2153 136.998 26.2272 137.557 30.9278 132.252C30.9358 132.198 30.9819 131.888 30.9991 131.776L24.2712 130.546C23.9426 132.132 23.7162 133.508 23.7162 133.508Z" fill="#FCD21F"/>
<path fill-rule="evenodd" clip-rule="evenodd" d="M47.0062 115.83L46.772 117.007C48.5687 117.481 49.8366 116.61 50.3295 116.116C51.2462 112.955 52.4915 109.742 53.7781 106.976L52.199 103.931C50.3186 107.16 48.1406 111.889 47.0062 115.83Z" fill="#FCD21F"/>
<path fill-rule="evenodd" clip-rule="evenodd" d="M17.9468 117.851C22.2193 118.438 24.4888 117.095 26.7778 115.584C27.3032 113.382 28.5314 109.295 30.1283 106.49C31.0624 104.844 31.8733 103.076 34.4973 100.745C33.345 100.994 32.4131 100.942 31.8033 100.566C31.4984 100.377 31.2824 100.119 31.1641 99.8027C29.0782 100.481 27.554 100.856 26.46 100.794C23.3283 104.008 21.167 109.302 18.6863 115.882C18.4729 116.439 18.0153 117.653 17.9468 117.851Z" fill="#FCD21F"/>
<path fill-rule="evenodd" clip-rule="evenodd" d="M47.4849 101.277C47.6996 101.462 48.5954 101.65 49.5873 101.451C49.4892 101.396 48.5154 100.717 48.2387 100.51C48.1003 100.628 47.6888 101.093 47.4849 101.277Z" fill="#FCD21F"/>
<path fill-rule="evenodd" clip-rule="evenodd" d="M31.4971 128.624C32.3188 124.315 33.4949 120.446 34.6518 118.726C34.4441 118.728 33.4878 118.726 33.4878 118.726C33.4878 118.726 33.5555 117.466 33.6369 117.052C32.0232 117.903 30.3749 118.409 28.5509 118.619C26.5702 121.529 25.1569 126.612 24.3979 129.973L31.4971 128.624Z" fill="#FCD21F"/>
<path fill-rule="evenodd" clip-rule="evenodd" d="M39.9522 117.499C38.9166 118.403 37.4831 118.614 35.9249 118.692C34.7862 119.643 33.4924 123.634 32.5513 128.423L39.4405 127.114C39.9003 124.794 40.6442 121.674 41.6287 118.106C41.0794 118.145 40.5252 118.16 39.979 118.16L39.9522 117.499Z" fill="#FCD21F"/>
<path fill-rule="evenodd" clip-rule="evenodd" d="M47.0455 102.017C46.6159 101.921 46.4739 101.725 46.3904 101.495C45.1038 101.694 43.3627 101.735 42.626 100.989C39.3864 104.149 36.8299 107.977 34.8754 115.352C34.662 116.158 34.5928 117.17 34.5244 117.77C36.8666 117.762 39.5658 117.63 40.2418 115.61C41.808 110.151 43.3748 105.383 47.0455 102.017Z" fill="#FCD21F"/>
<path fill-rule="evenodd" clip-rule="evenodd" d="M50.6217 102.278C49.4318 102.583 48.239 102.403 47.9139 102.388C44.2981 105.616 42.8531 110 41.1852 115.803C41.1096 116.093 40.8832 117.053 40.9164 117.2C42.8724 117.181 44.7823 116.766 46.1034 115.495C47.4339 110.878 49.5348 106.121 51.65 102.869L51.6313 102.834C51.3021 102.653 50.9683 102.47 50.6217 102.278Z" fill="#FCD21F"/>
<path fill-rule="evenodd" clip-rule="evenodd" d="M29.0381 86.9384C29.8807 87.8201 33.7097 87.2527 34.5855 86.9541C36.473 85.4054 38.2937 84.1273 39.7379 83.3862C39.0777 83.1938 38.3253 83.0917 37.4691 83.0889C34.9776 83.4078 31.9181 84.904 29.0381 86.9384Z" fill="#FCD21F"/>
<path fill-rule="evenodd" clip-rule="evenodd" d="M44.7943 97.2451C43.92 98.2662 43.36 99.1501 43.0545 99.8243C42.7641 100.464 44.0527 100.776 44.382 100.83C44.382 100.83 46.3554 101.033 47.007 100.415C47.2281 100.214 47.4077 100.005 47.5121 99.9183C46.6279 99.1866 45.7565 98.1418 44.7943 97.2451Z" fill="#FCD21F"/>
<path fill-rule="evenodd" clip-rule="evenodd" d="M69.377 30.6171L70.5057 33.3463L71.8642 32.1622L70.8545 29.1436L69.377 30.6171Z" fill="#FCD21F"/>
<path fill-rule="evenodd" clip-rule="evenodd" d="M25.7705 99.644C26.5259 100.187 28.742 99.5872 31.083 98.8195C31.5839 96.9024 34.0912 93.6835 36.8602 90.8351C36.8286 90.9205 37.493 90.1156 37.7576 89.8399C35.6927 90.2959 33.7842 90.2556 33.2646 89.3682C33.2624 89.3624 25.622 96.1995 25.362 98.4656C25.3129 99.1125 25.6026 99.5232 25.7705 99.644Z" fill="#FCD21F"/>
<path fill-rule="evenodd" clip-rule="evenodd" d="M38.0186 91.2601C38.1403 91.6004 41.514 91.6004 42.9071 90.8444C43.114 89.2403 43.101 87.9018 42.861 86.8154C42.1786 87.3439 38.7665 90.4931 38.0186 91.2601Z" fill="#FCD21F"/>
<path fill-rule="evenodd" clip-rule="evenodd" d="M37.8743 99.4343C37.6457 100.091 38.3044 100.49 38.6534 100.562C39.1831 100.672 40.0947 100.836 42.3139 99.2153C42.7398 98.5907 43.5794 97.5839 44.1949 96.5679C43.1073 95.3968 42.8508 94.4246 42.6064 93.9736C40.8666 95.5482 38.4486 98.1705 37.8743 99.4343Z" fill="#FCD21F"/>
<path fill-rule="evenodd" clip-rule="evenodd" d="M109.182 124.932L113.291 125.714C112.991 123.368 112.42 120.493 111.65 118.085C110.785 117.939 109.963 117.529 109.526 117.215L109.544 117.748C108.92 117.891 108.305 117.928 108.305 117.928C108.384 118.721 109.081 123.327 109.182 124.932Z" fill="#FCD21F"/>
<path fill-rule="evenodd" clip-rule="evenodd" d="M74.6475 99.9463C73.8288 100.853 70.8154 103.826 70.8789 103.76L73.0561 110.613L74.6475 99.9463Z" fill="#FCD21F"/>
<path fill-rule="evenodd" clip-rule="evenodd" d="M17.8176 115.463C20.2291 109.068 22.3654 103.881 25.4118 100.529C25.3447 100.492 25.2706 100.465 25.2078 100.42C24.7357 100.082 24.5346 99.5812 24.4511 99.095C22.4366 100.091 21.0456 100.692 19.9654 100.248C19.4766 100.046 19.0918 99.6428 18.7977 99.0195C18.6342 99.1058 18.4763 99.1947 18.3221 99.2803C17.2526 99.8755 16.299 100.387 14.526 100.466C14.521 100.474 14.516 100.484 14.5109 100.492C10.8374 106.914 8.84099 112.32 8.06982 117.913C10.836 118.521 13.9365 118.517 17.8176 115.463Z" fill="#FCD21F"/>
<path fill-rule="evenodd" clip-rule="evenodd" d="M7.59693 143.623C7.35405 143.592 7.08449 143.501 6.80917 143.314C5.38864 144.1 3.82324 144.742 2.37242 145.06C1.94359 145.155 0.72269 145.276 0.701069 145.279C0.518005 147.729 0.409176 150.339 0.409176 153.168C-0.423255 166.509 3.08377 179.024 6.47188 188.724L9.42251 174.781L9.41315 174.782C7.35044 167.234 6.78539 157.55 7.59693 143.623Z" fill="#FCD21F"/>
<path fill-rule="evenodd" clip-rule="evenodd" d="M6.12132 142.62C6.11987 142.617 6.11772 142.615 6.11556 142.612C5.68385 142.006 5.24565 141.109 5.07123 140.685C4.21719 138.609 4.40528 136.657 4.47519 135.922L4.4788 135.887C4.53574 135.281 4.88673 134.6 4.95592 134.471L4.96888 134.445L4.9833 134.423C5.02438 134.354 5.06763 134.29 5.11449 134.226C5.05321 134.178 4.99339 134.127 4.93862 134.071L4.91411 134.046L4.89178 134.02C4.56889 133.644 4.44998 133.158 4.56528 132.686C4.68853 132.177 5.05394 131.779 5.45827 131.506C5.51952 131.354 5.60601 131.212 5.71411 131.087C5.65429 130.897 5.61827 130.697 5.60818 130.492C5.5851 129.953 5.75664 129.453 6.0788 129.057L5.92528 128.653L5.55268 127.68L6.52565 127.296L7.17502 127.04L7.83592 126.767L8.8024 126.368L9.21539 127.325L9.38618 127.722C9.89502 127.783 10.3678 128.024 10.726 128.426C10.8637 128.581 10.9768 128.749 11.0662 128.926C11.2312 128.943 11.3927 128.984 11.5433 129.049C12.024 128.968 12.5653 129.001 13.0071 129.278C13.2615 129.438 13.446 129.667 13.5642 129.932C14.6042 126.539 16.1934 122.62 18.9206 118.914C18.411 118.879 16.8571 118.619 16.8571 118.619C16.8571 118.619 17.054 117.449 17.2305 117.079C14.8298 118.677 12.7109 119.201 10.77 119.201C9.73862 119.201 8.75987 119.047 7.81429 118.835C7.81429 118.838 7.81286 118.84 7.81214 118.841C7.44457 119.579 6.66187 121.109 6.63519 121.092C5.43809 123.704 4.27556 126.641 3.28601 130.093C3.18943 130.433 3.09862 130.791 3.00348 131.144C2.00025 134.885 1.19952 139.202 0.76709 144.317C0.950153 144.315 2.0442 144.16 2.49539 144.035C3.96277 143.628 5.15844 143.122 6.12132 142.62Z" fill="#FCD21F"/>
<path fill-rule="evenodd" clip-rule="evenodd" d="M42.6094 84.0695C45.0087 86.7276 43.2782 92.24 43.5276 93.681C43.9636 95.6807 46.4522 97.7773 48.4731 99.4719C49.116 100.061 51.7518 101.877 53.7597 102.863L60.4328 106.114L66.9784 101.238V109.449L67.346 109.639L70.879 103.76L70.1689 92.395C68.3449 96.1684 65.7935 98.8358 62.8041 100.326C61.2595 101.095 58.781 101.53 58.781 101.53C58.781 101.53 63.356 94.2878 63.6019 93.834C61.7546 94.9204 58.4083 96.1411 57.021 96.5216C56.2331 96.6982 55.072 96.821 53.934 96.4369C53.5823 96.3176 51.5579 95.4302 49.6904 93.3291C48.6909 92.1201 47.4836 90.1541 47.2537 88.5148C46.8307 85.4911 45.772 83.3766 44.0911 81.6935C42.5891 80.1928 40.4206 79.8416 40.4199 79.8446C39.1845 79.5717 37.803 79.5486 36.2808 79.785C36.412 80.4226 36.992 81.4271 37.6472 82.1321C39.8779 82.1689 41.5102 82.851 42.6094 84.0695Z" fill="#FCD21F"/>
<path fill-rule="evenodd" clip-rule="evenodd" d="M17.8549 98.4426C18.0942 98.3083 18.3507 98.169 18.6197 98.0297C19.2034 94.9091 22.425 90.909 26.3587 87.6887C24.5966 87.9306 23.207 87.6068 22.4171 86.7163C18.6037 89.5505 13.9666 93.9692 13.0103 99.1916C13.1551 99.3142 13.6236 99.5074 14.1922 99.5211C15.9414 99.4973 16.7926 99.032 17.8549 98.4426Z" fill="#FCD21F"/>
<path fill-rule="evenodd" clip-rule="evenodd" d="M28.1251 86.2968L28.4055 86.2042C31.1262 84.2727 34.0149 82.8086 36.5216 82.283C35.9739 81.5743 35.5003 80.7184 35.3475 79.999C32.3299 80.8585 27.6379 83.0096 23.2119 86.1533C24.193 87.1277 26.3169 86.9014 28.1251 86.2968Z" fill="#FCD21F"/>
<path fill-rule="evenodd" clip-rule="evenodd" d="M14.897 151.424L12.3067 143.905C12.2498 143.895 12.1943 143.883 12.1388 143.864C11.8094 143.783 11.3258 143.548 10.484 142.942C10.262 142.783 10.0747 142.64 9.91321 142.512C9.48077 142.873 8.95753 143.271 8.56762 143.46C7.39861 159.549 9.03969 171.406 10.3406 174.46C11.6761 177.6 13.8981 181.583 13.8981 181.583L16.0271 171.504L16.9085 167.329C15.4548 163.452 14.9763 158.13 14.9092 153.27C14.9092 153.238 14.897 151.515 14.897 151.424Z" fill="#FCD21F"/>
<path fill-rule="evenodd" clip-rule="evenodd" d="M35.3659 183.425C35.7399 182.847 35.6685 182.523 35.6685 182.523C33.8718 183.558 30.6984 184.351 27.4012 184.439C27.4012 184.439 27.2786 184.788 27.7024 185.035C28.1263 185.286 30.6351 185.247 31.9281 185.035C33.221 184.823 34.9896 184.004 35.3659 183.425Z" fill="#FCD21F"/>
<path fill-rule="evenodd" clip-rule="evenodd" d="M35.8951 181.249C36.1178 180.262 35.6384 180.122 35.6384 180.122C32.2677 180.782 30.3642 180.9 27.8512 180.924C27.3804 180.927 26.494 180.793 26.0299 180.525C26.0299 180.525 25.3473 181.645 25.567 182.455C25.7855 183.267 26.907 183.486 26.907 183.486C30.7923 183.471 35.6716 182.236 35.8951 181.249Z" fill="#FCD21F"/>
<path fill-rule="evenodd" clip-rule="evenodd" d="M32.189 185.949C32.189 185.949 32.7129 189.383 33.4459 190.624C34.1789 191.864 37.6534 193.757 38.287 193.451C38.5976 193.301 38.8685 193.158 39.0705 193.062C39.6125 192.807 39.505 189.143 38.8074 187.807C38.109 186.473 35.6441 184.452 35.6441 184.452C34.829 185.114 33.5764 185.537 32.189 185.949Z" fill="#FCD21F"/>
<path fill-rule="evenodd" clip-rule="evenodd" d="M19.535 164.753L15.9414 154.305C15.9918 156.383 16.1634 158.72 16.4077 160.721C16.4063 160.722 16.4048 160.723 16.4034 160.726C16.6794 162.991 17.1154 165.134 17.8051 166.978L20.5468 172.442C20.5468 172.442 21.0752 170.424 21.0398 170.328C20.66 169.27 19.535 164.753 19.535 164.753Z" fill="#FCD21F"/>
<path fill-rule="evenodd" clip-rule="evenodd" d="M31.9198 176.1C31.9198 176.1 28.8848 173.601 28.4316 173.635C27.9775 173.67 27.189 175.234 27.189 175.234C27.189 175.234 29.8687 176.624 30.6679 176.613C31.4694 176.603 31.9198 176.1 31.9198 176.1Z" fill="#FCD21F"/>
<path fill-rule="evenodd" clip-rule="evenodd" d="M27.5807 170.181C27.9108 169.595 28.266 168.084 28.0535 167.483C27.8387 166.881 25.6563 163.727 24.9047 162.551C24.2913 161.589 17.048 148.128 14.4304 143.259C14.2862 143.322 13.3839 143.685 13.2095 143.747C15.0372 148.961 20.153 163.576 20.393 164.492C20.6855 165.609 21.5864 169.644 21.9201 170.17C22.2545 170.692 23.5958 171.458 24.4779 171.537C25.3594 171.617 27.2491 170.764 27.5807 170.181Z" fill="#FCD21F"/>
<path fill-rule="evenodd" clip-rule="evenodd" d="M34.8655 179.295C35.5985 178.98 35.2223 176.819 34.3719 176.787H32.7236C32.7236 176.787 31.9379 177.661 30.7141 177.661C29.4889 177.661 26.5477 176.008 26.5477 176.008L25.3016 176.714C25.3016 176.714 24.3978 177.954 24.6644 178.635C24.9319 179.317 27.037 179.972 27.4565 179.969C29.8038 179.95 34.1339 179.61 34.8655 179.295Z" fill="#FCD21F"/>
<path fill-rule="evenodd" clip-rule="evenodd" d="M35.9691 178.172C36.622 177.538 36.8332 177.321 37.5078 176.787H35.4897C35.9135 177.245 35.9827 177.751 35.9691 178.172Z" fill="#FCD21F"/>
<path fill-rule="evenodd" clip-rule="evenodd" d="M63.3726 44.7226C64.1438 44.7226 64.7722 44.0986 64.7722 43.3339C64.7722 42.5656 64.1438 41.9409 63.3726 41.9409C62.6036 41.9409 61.9766 42.5656 61.9766 43.3339C61.9766 44.0986 62.6036 44.7226 63.3726 44.7226Z" fill="#FCD21F"/>
<path fill-rule="evenodd" clip-rule="evenodd" d="M64.395 28.7162L62.9299 25.2144C62.5638 25.5031 62.2185 25.8075 61.9128 26.1414C61.6548 26.4236 61.4163 26.7216 61.1987 27.0374L62.6258 30.3561L64.395 28.7162Z" fill="#FCD21F"/>
<path fill-rule="evenodd" clip-rule="evenodd" d="M64.8476 45.2954C64.436 45.6027 63.9272 45.7902 63.3729 45.7902C63.014 45.7902 62.6731 45.7112 62.3647 45.5725C62.9758 46.6138 63.6461 47.6126 64.3437 48.5703C64.3437 48.5597 64.4468 48.6946 64.6017 48.9028C64.4951 48.5762 64.4397 48.2265 64.4518 47.8638C64.4757 47.1372 64.7553 46.4809 65.1986 45.9676C65.0538 45.7614 64.9355 45.536 64.8476 45.2954Z" fill="#FCD21F"/>
<path fill-rule="evenodd" clip-rule="evenodd" d="M60.9608 42.8213C61.0531 42.3941 61.2557 42.0093 61.5368 41.6962L59.8604 39.4731C60.1184 40.6263 60.4968 41.7428 60.9608 42.8213Z" fill="#FCD21F"/>
<path fill-rule="evenodd" clip-rule="evenodd" d="M61.8764 31.0473L60.5907 28.0581C59.9672 29.2766 59.5968 30.7127 59.4526 32.3606C59.772 32.3699 60.0904 32.3778 60.4111 32.4029L61.8764 31.0473Z" fill="#FCD21F"/>
<path fill-rule="evenodd" clip-rule="evenodd" d="M59.0782 94.4332C60.1989 94.3766 62.1571 93.7318 64.5492 92.1428L66.0525 91.144C66.0525 91.144 61.8897 98.6123 60.9268 100.057C64.9304 98.7802 68.1945 95.2159 70.1989 89.8802L71.1387 87.826L71.8125 101.232C72.8253 100.183 73.9424 99.1967 74.862 98.1556L76.0626 90.1567H76.062L76.7459 85.5971C75.6266 84.0146 72.8633 79.4724 72.7495 79.2793C72.4734 83.7031 71.058 86.8206 68.444 88.778L67.3593 89.5901C67.3593 89.5901 68.2104 86.9851 67.9416 83.6758C67.8328 82.3288 67.6266 80.9257 67.3672 79.5082C66.565 83.7311 64.9571 87.2967 62.0173 88.2359C61.7888 88.6459 61.3974 89.2204 60.6248 90.1309C60.622 90.1294 58.0281 92.7717 54.9492 93.5746C54.9492 93.5746 56.9622 94.5402 59.0782 94.4332Z" fill="#FCD21F"/>
<path fill-rule="evenodd" clip-rule="evenodd" d="M60.6467 38.9194L62.3043 41.1194C62.6279 40.9629 62.9898 40.8746 63.3724 40.8746C63.3905 40.8746 62.2316 39.585 62.2316 39.585L66.943 38.4247L59.3883 33.6382C59.3847 33.8149 59.3797 33.9894 59.3819 34.1724L64.2186 38.0247L60.6467 38.9194Z" fill="#FCD21F"/>
<path fill-rule="evenodd" clip-rule="evenodd" d="M59.437 35.4419C59.4522 35.6609 59.455 35.8705 59.4752 36.0952C59.4752 36.8046 59.5271 37.5034 59.6223 38.1877L62.1045 37.5665L59.437 35.4419Z" fill="#FCD21F"/>
<path fill-rule="evenodd" clip-rule="evenodd" d="M64.7568 74.5368C64.9586 72.1278 64.1579 68.4515 64.1579 68.4515L65.0379 68.8888C68.1181 70.4247 70.3452 73.2127 71.8379 75.7287V68.6547L72.4713 68.8637C73.7491 69.2872 75.0342 69.9286 76.2768 70.5467C76.6572 70.7364 77.0421 70.9252 77.4291 71.1119C76.2487 69.6951 72.3957 63.194 72.3957 63.194L72.4289 63.1905C67.7522 62.4954 62.3467 61.1312 60.601 59.1272C60.4691 58.9756 60.3654 58.8212 60.2746 58.6641C59.6533 59.3059 58.764 59.7217 57.8379 59.8108C57.964 61.366 58.6955 63.5056 59.4271 64.9548L59.4775 65.0573V67.4994L59.6151 67.6911C59.6403 67.7249 59.6641 67.76 59.6887 67.7945C60.8843 69.4618 61.8775 70.9259 61.1841 72.6118C61.7823 73.7742 63.066 76.2803 63.3794 79.0632C64.1513 77.9187 64.6018 76.3923 64.7568 74.5368Z" fill="#FCD21F"/>
<path fill-rule="evenodd" clip-rule="evenodd" d="M71.8335 77.7236C70.5809 75.2565 68.5088 72.0899 65.4805 70.231C65.7845 72.052 65.8501 73.6812 65.7031 75.1209C65.4754 77.3287 64.7387 79.0851 63.5396 80.3703C63.4767 82.7952 63.5965 84.3152 62.5464 87.0092C65.1251 85.6701 66.1572 81.4668 66.8275 76.885C66.8361 76.8276 67.0912 74.4005 67.0991 74.3433C67.0991 74.3433 68.6249 80.4773 68.8576 83.0529C68.986 84.4717 69.0286 85.8425 68.8743 87.1241C70.8469 85.08 71.817 81.9859 71.8335 77.7236Z" fill="#FCD21F"/>
<path fill-rule="evenodd" clip-rule="evenodd" d="M57.3305 58.8861C58.7035 58.8861 60.1808 57.9735 60.1839 56.5935L53.8608 54.8608C54.7784 57.1922 56.2083 58.8861 57.3305 58.8861Z" fill="#FCD21F"/>
<path fill-rule="evenodd" clip-rule="evenodd" d="M117.203 90.8445C118.597 91.6007 121.97 91.6007 122.093 91.2603C121.344 90.4934 117.933 87.3449 117.25 86.8164C117.011 87.902 116.998 89.2404 117.203 90.8445Z" fill="#FCD21F"/>
<path fill-rule="evenodd" clip-rule="evenodd" d="M58.5158 65.2829C57.7655 63.7657 56.9892 61.5132 56.8732 59.7914C55.1449 59.4302 53.4468 56.8123 52.6029 54.4277C50.9798 53.8462 49.604 53.2429 48.4668 52.6147L58.5158 66.197V65.2829Z" fill="#FCD21F"/>
<path fill-rule="evenodd" clip-rule="evenodd" d="M55.8862 64.2586L47.247 52.5825C47.247 52.5825 45.2534 51.8566 41.7182 53.269C38.2516 54.6541 37.8149 58.6298 39.0732 61.6528C39.2382 61.2974 39.4099 61.0495 39.6888 60.7632C40.3149 60.1212 41.2015 59.7536 42.4029 59.793C44.7301 59.8634 46.2833 60.6144 47.7853 61.3396C48.5096 61.6909 49.1971 62.0197 49.969 62.2832C49.969 62.2832 54.4138 63.6848 55.8862 64.2586Z" fill="#FCD21F"/>
<path fill-rule="evenodd" clip-rule="evenodd" d="M54.0599 64.6053C52.8773 64.2593 50.1768 63.3688 50.1768 63.3688C49.5483 63.9683 40.9278 64.2844 38.6186 63.9483C36.3094 63.6102 34.5667 62.607 31.9087 61.3691C34.6949 65.752 39.5028 67.9951 46.2078 68.072C47.1425 65.4124 50.4391 64.5256 54.0599 64.6053Z" fill="#FCD21F"/>
<path fill-rule="evenodd" clip-rule="evenodd" d="M73.5256 57.151C73.3935 57.1072 73.2495 57.057 73.1016 57.0037H73.1003L73.0959 57.0031C67.7489 55.1212 52.8473 48.4757 51.5544 48.3716C50.2253 48.264 48.9258 50.3908 48.7363 51.6667C52.4926 53.7956 57.9695 55.4809 67.8311 57.169C69.95 57.4483 72.0537 57.5639 73.5256 57.151Z" fill="#FCD21F"/>
<path fill-rule="evenodd" clip-rule="evenodd" d="M92.7629 150.435L87.3387 147.531L86.7818 151.464L86.626 152.538C94.9633 154.039 99.351 158.208 99.7741 161.827C100.65 161.851 101.452 161.93 102.181 162.072C102.121 160.509 100.174 155.673 99.3402 153.986L92.7629 150.435Z" fill="#FCD21F"/>
<path fill-rule="evenodd" clip-rule="evenodd" d="M136.554 172.324C136.647 171.188 134.018 168.53 134.018 168.53L131.625 167.953C131.625 167.953 132.65 169.526 132.7 171.193C132.75 172.859 132.162 174.546 132.162 174.546C133.309 174.418 136.46 173.457 136.554 172.324Z" fill="#FCD21F"/>
<path fill-rule="evenodd" clip-rule="evenodd" d="M134.724 168.22C134.724 168.22 137.759 171.155 137.513 172.375C137.267 173.593 136.12 174.418 134.178 175.032C132.798 175.466 131.033 175.566 131.033 175.566C131.033 175.566 131.773 173.157 131.836 171.272C131.89 169.707 130.634 167.788 130.07 167.138C129.506 166.487 127.875 166.204 126.49 166.311C126.49 166.311 128.313 168.549 128.653 170C129.087 171.856 128.765 173.723 127.419 174.205C126.074 174.688 121.769 170.551 120.564 170.711C120.133 170.77 119.82 170.977 119.592 171.218C119.609 171.218 119.627 171.218 119.644 171.218C119.521 171.324 119.419 171.442 119.33 171.568C119.184 171.809 119.108 172.031 119.077 172.138C119.071 172.159 119.063 172.178 119.059 172.2C116.218 172.313 113.26 172.316 112.783 171.898C111.912 171.139 113.071 169.383 113.786 168.591C114.412 167.897 115.185 167.355 115.185 167.355C114.241 166.897 113.76 166.443 113.183 165.357C113.183 165.357 112.957 167.378 111.043 168.657C108.818 170.146 107.256 169.845 107.256 169.845C107.256 169.845 106.314 172.614 106.195 173.421C106.076 174.233 106.609 175.31 107.522 175.412C108.433 175.513 114.923 174.045 116.779 174.257C118.445 174.445 129.268 179.071 131.783 179.007C132.96 178.977 136.076 177.899 137.107 177.139C138.135 176.379 140.224 174.467 140.137 172.926C140.049 171.383 138.436 169.407 138.436 169.407C137.977 168.551 135.884 168.114 134.724 168.22Z" fill="#FCD21F"/>
<path fill-rule="evenodd" clip-rule="evenodd" d="M108.824 162.256C108.858 160.478 107.965 158.663 107.542 158.162L100.718 154.687C101.723 157.003 103.154 160.892 103.154 162.307C103.154 162.307 105.032 162.798 106.16 164.124C106.85 164.936 107.251 165.964 107.374 167.185C108.094 165.99 108.789 164.212 108.824 162.256Z" fill="#FCD21F"/>
<path fill-rule="evenodd" clip-rule="evenodd" d="M102.2 180.952C99.7664 177.972 97.3209 176.325 94.9346 174.125C92.3286 171.721 89.8594 169.455 87.5372 167.477L87.375 169.773C93.9422 173.902 100.524 184.322 100.744 199.258C102.469 196.198 104.486 192.881 104.529 188.742C104.553 186.379 103.581 182.6 102.2 180.952Z" fill="#FCD21F"/>
<path fill-rule="evenodd" clip-rule="evenodd" d="M107.713 183.53C106.358 183.619 105.207 183.478 104.011 182.491C107.615 190.647 103.668 196.385 101.476 199.864C103.162 199.601 104.843 198.867 105.892 197.723C107.749 195.696 108.487 192.442 108.087 188.045L108.056 187.718L108.353 187.573C110.187 186.795 112.574 184.967 112.644 182.622C112.668 181.84 112.605 181.123 112.319 180.1C111.739 182.491 108.752 183.464 107.713 183.53Z" fill="#FCD21F"/>
<path fill-rule="evenodd" clip-rule="evenodd" d="M87.6206 166.287C90.1114 168.38 92.7723 170.827 95.5874 173.421C98.3081 175.931 101.263 178.526 104.072 181.514C108.17 185.087 111.918 180.394 111.808 179.301C111.301 179.774 110.026 180.367 108.566 180.187L108.45 180.171C106.225 179.619 104.368 177.695 102.73 175.999C101.794 175.028 100.909 174.112 100.041 173.519C94.9791 173.519 88.5092 164.386 87.9521 161.609L87.6206 166.287Z" fill="#FCD21F"/>
<path fill-rule="evenodd" clip-rule="evenodd" d="M86.4762 153.568L86.0682 156.501L82.1814 183.925C86.4084 192.779 88.6476 203.483 80.6289 215.648V217.287C80.6304 217.287 80.6324 217.287 80.6346 217.287V218.943C80.6808 218.894 80.7313 218.84 80.7817 218.783C80.8516 218.705 80.9331 218.619 81.0181 218.53C81.1817 218.351 81.3669 218.153 81.5645 217.939C82.2397 217.211 83.0535 216.325 83.6063 215.589C85.617 212.91 86.0834 212.534 86.5691 211.664C89.8159 202.711 92.2225 192.048 85.7179 180.692L85.6458 180.566L87.3944 155.802L88.2095 157.989C88.8977 159.581 90.3803 162.256 92.0127 162.75C92.2144 162.81 92.4155 162.85 92.6159 162.879C92.6175 162.883 92.6188 162.886 92.6195 162.889C93.7922 163.027 94.9583 162.687 96.1777 162.362C97.0304 162.135 97.9089 161.91 98.799 161.843C98.2412 157.413 92.4155 154.69 86.4762 153.568Z" fill="#FCD21F"/>
<path fill-rule="evenodd" clip-rule="evenodd" d="M159.412 145.278C159.39 145.276 158.169 145.154 157.74 145.059C155.998 144.677 154.089 143.833 152.468 142.828C153.348 157.185 152.801 167.091 150.699 174.782L150.69 174.78L153.641 188.723C157.028 179.023 160.535 166.508 159.703 153.168C159.703 150.338 159.594 147.728 159.412 145.278Z" fill="#FCD21F"/>
<path fill-rule="evenodd" clip-rule="evenodd" d="M75.9709 14.5755H84.1267L80.9698 8.87644L86.5007 12.1399V4.15609L80.9634 7.44684L84.1273 1.73633H76.004L79.1357 7.43966L73.6128 4.15609V12.1263L79.1458 8.88004L75.9709 14.5755Z" fill="#FCD21F"/>
<path fill-rule="evenodd" clip-rule="evenodd" d="M140.858 171.874C141.133 171.446 141.401 170.887 141.614 170.361L139.798 169.923C140.21 170.338 140.858 171.874 140.858 171.874Z" fill="#FCD21F"/>
<path fill-rule="evenodd" clip-rule="evenodd" d="M121.642 159.779C120.765 161.069 120.151 162.551 119.868 164.145L124.982 165.403C126.883 165.163 128.985 165.561 130.087 166.125C131.071 166.627 131.162 166.868 131.162 166.868L133.421 167.383C135.616 167.046 138.231 167.861 139.156 168.78L141.937 169.466C142.264 168.409 142.44 167.286 142.44 166.123C142.44 165.655 142.408 165.195 142.353 164.743L121.642 159.779Z" fill="#FCD21F"/>
<path fill-rule="evenodd" clip-rule="evenodd" d="M144.138 153.641C144.148 152.982 143.887 142.499 143.834 139.601C141.69 139.165 140.199 138.5 137.724 136.165C137.719 136.157 137.855 137.236 137.887 137.743L137.252 137.853C137.428 139.728 137.464 141.38 137.552 143.371C137.57 143.776 137.579 144.194 137.583 144.619L138.133 144.717L138.488 144.78L138.26 145.059L137.44 146.066L138.643 145.616L138.995 145.484L138.928 145.851L137.972 151.133L137.905 151.5L137.624 151.256L137.318 150.993C137.162 152.913 136.975 154.482 136.875 155.151C140.1 156.85 142.486 159.916 143.252 163.575C143.44 162.657 143.585 161.698 143.705 160.721C143.984 158.429 144.101 156.014 144.138 153.641Z" fill="#FCD21F"/>
<path fill-rule="evenodd" clip-rule="evenodd" d="M151.444 142.119C150.617 141.477 150.118 141.159 148.669 139.381C148.051 139.63 146.241 139.762 144.9 139.655C144.934 141.688 145.114 150.712 145.114 150.74C145.133 154.337 145.052 158.225 144.537 161.77C144.299 163.417 143.968 164.99 143.51 166.423C143.496 166.983 143.445 167.536 143.36 168.074L143.865 170.465L146.212 181.583C146.212 181.583 148.436 177.601 149.77 174.46C151.107 171.324 152.807 158.891 151.444 142.119Z" fill="#FCD21F"/>
<path fill-rule="evenodd" clip-rule="evenodd" d="M86.7799 178.17L86.6265 180.345C92.2164 190.198 91.3199 199.497 88.906 207.654C96.6128 202.115 90.9753 186.266 86.7799 178.17Z" fill="#FCD21F"/>
<path fill-rule="evenodd" clip-rule="evenodd" d="M56.1051 182.491C54.9088 183.478 53.7578 183.619 52.4014 183.53C51.3635 183.464 48.3761 182.491 47.7967 180.1C47.5106 181.123 47.4486 181.84 47.4717 182.622C47.5422 184.967 49.9293 186.795 51.762 187.573L52.0583 187.718L52.028 188.045C51.628 192.442 52.3668 195.696 54.2248 197.723C55.2734 198.867 56.9534 199.603 58.6392 199.864C56.4475 196.385 52.5009 190.647 56.1051 182.491Z" fill="#FCD21F"/>
<path fill-rule="evenodd" clip-rule="evenodd" d="M72.7419 169.774L72.5791 167.476C70.2569 169.455 67.7885 171.721 65.1823 174.125C62.796 176.325 60.3507 177.973 57.9168 180.953C56.5351 182.6 55.5621 186.377 55.5874 188.742C55.6314 192.882 57.6479 196.199 59.372 199.258C59.5909 184.32 66.1755 173.903 72.7419 169.774Z" fill="#FCD21F"/>
<path fill-rule="evenodd" clip-rule="evenodd" d="M73.06 174.267L72.8207 170.881C66.5295 175.131 60.3479 185.68 60.311 200.247L60.3242 200.279C61.5811 203.615 63.0614 206.393 65.3352 208.375C60.9071 191.187 66.0466 178.308 73.06 174.267Z" fill="#FCD21F"/>
<path fill-rule="evenodd" clip-rule="evenodd" d="M73.3781 152.539L73.1533 150.999L72.6948 147.861L68.0874 150.207L60.6625 153.987C59.8293 155.674 57.8841 160.51 57.8228 162.073C58.5507 161.931 59.3551 161.851 60.23 161.828C60.6537 158.209 65.0401 154.04 73.3781 152.539Z" fill="#FCD21F"/>
<path fill-rule="evenodd" clip-rule="evenodd" d="M52.4629 158.162C52.0392 158.663 51.1477 160.478 51.1801 162.256C51.2154 164.212 51.9117 165.99 52.6295 167.184C52.7534 165.964 53.1541 164.936 53.8446 164.123C54.9719 162.799 56.8499 162.307 56.8499 162.307C56.8499 160.892 58.2814 157.003 59.2853 154.687L52.4629 158.162Z" fill="#FCD21F"/>
<path fill-rule="evenodd" clip-rule="evenodd" d="M73.2072 176.356L73.1351 175.333C66.4677 179.454 61.8413 192.396 66.5859 209.32C68.1635 210.368 70.0699 211.107 72.4562 211.465C72.1773 210.678 71.9041 209.878 71.6439 209.064C61.3477 203.434 68.8813 184.396 73.2072 176.356Z" fill="#FCD21F"/>
<path fill-rule="evenodd" clip-rule="evenodd" d="M56.0424 181.514C58.854 178.526 61.8068 175.931 64.5274 173.421C67.3426 170.827 70.0041 168.38 72.4951 166.287L72.1641 161.609C71.6079 164.387 65.1371 173.519 60.0734 173.519C59.2079 174.112 58.322 175.03 57.3859 175.999C55.7477 177.697 53.8903 179.619 51.6661 180.172L51.5494 180.188C50.0907 180.367 48.8165 179.774 48.309 179.301C48.1989 180.394 51.9466 185.087 56.0424 181.514Z" fill="#FCD21F"/>
<path fill-rule="evenodd" clip-rule="evenodd" d="M85.4954 151.422L86.2133 146.365C84.2882 147.088 82.2047 147.485 80.0302 147.485C77.8269 147.485 75.7174 147.076 73.7715 146.335L74.4504 150.983L75.215 156.212L80.0864 189.54L84.8691 155.836L85.4954 151.422Z" fill="#FFFFFE"/>
<path fill-rule="evenodd" clip-rule="evenodd" d="M86.9821 175.332L86.9092 176.355C91.2342 184.397 98.768 203.435 88.4725 209.065C88.2116 209.878 87.9399 210.679 87.6595 211.465C90.0459 211.108 91.9529 210.367 93.5312 209.321C98.2751 192.399 93.6494 179.454 86.9821 175.332Z" fill="#FCD21F"/>
<path fill-rule="evenodd" clip-rule="evenodd" d="M81.9331 185.663L80.6294 194.866V213.846C87.0474 203.21 85.4899 193.67 81.9331 185.663Z" fill="#FCD21F"/>
<path fill-rule="evenodd" clip-rule="evenodd" d="M48.9619 168.657C47.0469 167.377 46.8214 165.356 46.8214 165.356C46.2434 166.444 45.7627 166.896 44.8179 167.355C44.8179 167.355 45.5911 167.897 46.2181 168.591C46.9331 169.383 48.092 171.139 47.2214 171.898C46.35 172.66 37.2221 172.018 35.61 171.885C33.9983 171.752 29.3799 170.891 28.639 170.955C27.8981 171.017 26.1179 171.797 25.2337 172.517C24.3472 173.236 24.1799 174.634 24.3984 175.273C24.6153 175.911 24.8928 175.938 25.3605 175.766C25.8298 175.593 26.17 175.129 26.17 175.129C26.17 175.129 27.354 172.827 28.208 172.658C29.297 172.444 32.2607 175.254 33.2056 175.677C34.1504 176.101 38.2139 176.105 39.2019 175.83C40.1909 175.554 41.5594 174.445 43.2243 174.257C45.081 174.044 51.5717 175.513 52.4827 175.411C53.3937 175.31 53.9278 174.233 53.8089 173.423C53.69 172.613 52.7493 169.845 52.7493 169.845C52.7493 169.845 51.1876 170.146 48.9619 168.657Z" fill="#FCD21F"/>
<path fill-rule="evenodd" clip-rule="evenodd" d="M79.482 213.869V194.287L78.2092 185.587C74.6264 193.616 73.0286 203.192 79.482 213.869Z" fill="#FCD21F"/>
<path fill-rule="evenodd" clip-rule="evenodd" d="M77.9588 183.868L74.0337 157.029L73.5285 153.568C67.5876 154.69 61.7628 157.413 61.2041 161.844C62.0942 161.911 62.9729 162.134 63.8261 162.361C65.0852 162.699 66.2881 163.055 67.4997 162.88C67.7008 162.85 67.9019 162.811 68.1036 162.751C69.7375 162.257 71.2171 159.581 71.9076 157.99L72.7219 155.801L74.4711 180.566L74.3977 180.692C67.8953 192.046 70.3004 202.712 73.5472 211.664C74.0337 212.535 74.4999 212.91 76.5109 215.589C77.2582 216.585 78.4784 217.85 79.1883 218.628C79.2401 218.682 79.2907 218.734 79.3346 218.783C79.3858 218.842 79.4355 218.894 79.4817 218.943V217.287V215.668C71.4311 203.468 73.7094 192.737 77.9588 183.868Z" fill="#FCD21F"/>
<path fill-rule="evenodd" clip-rule="evenodd" d="M87.2961 170.881L87.0576 174.267C94.0688 178.307 99.2097 191.187 94.7809 208.377C97.0548 206.393 98.5365 203.615 99.7928 200.279L99.8042 200.247C99.769 185.68 93.5873 175.133 87.2961 170.881Z" fill="#FCD21F"/>
<path fill-rule="evenodd" clip-rule="evenodd" d="M71.2099 207.654C68.7962 199.497 67.8989 190.198 73.4903 180.345L73.3369 178.17C69.1415 186.266 63.5033 202.115 71.2099 207.654Z" fill="#FCD21F"/>
<path fill-rule="evenodd" clip-rule="evenodd" d="M58.8326 68.2492L58.6113 67.9426L57.0631 65.8481C52.8809 65.1812 47.8119 65.5287 47.02 68.6823C46.4866 70.814 46.6012 72.8338 47.3739 74.8235C48.8181 71.5945 50.5119 69.7507 54.0348 69.7456H54.0491C56.4946 69.7456 58.7699 70.4966 60.4282 71.8251C60.6077 70.8384 59.9943 69.8735 58.9161 68.3669C58.888 68.3268 58.8614 68.2901 58.8326 68.2492Z" fill="#FCD21F"/>
<path fill-rule="evenodd" clip-rule="evenodd" d="M106.252 54.8604C104.419 55.4606 102.314 56.0372 99.9287 56.5937C99.9322 57.9737 101.41 58.8856 102.781 58.8856C103.903 58.8856 105.333 57.1917 106.252 54.8604Z" fill="#FCD21F"/>
<path fill-rule="evenodd" clip-rule="evenodd" d="M103.05 65.8477L101.501 67.9422L101.28 68.2488C101.251 68.289 101.226 68.3256 101.198 68.3637C101.199 68.3637 101.202 68.3652 101.202 68.3674C100.124 69.8731 99.5122 70.838 99.6902 71.8254C101.303 70.5323 103.502 69.7926 105.871 69.7531V69.7516C105.935 69.7509 105.999 69.7459 106.063 69.7459H106.066H106.069H106.084V69.7467C109.602 69.7531 111.295 71.5963 112.737 74.8232C113.511 72.8341 113.625 70.8144 113.091 68.6819C112.301 65.529 107.231 65.1814 103.05 65.8477Z" fill="#FCD21F"/>
<path fill-rule="evenodd" clip-rule="evenodd" d="M100.277 68.0077C100.277 68.0048 100.275 68.004 100.273 68.0033C100.347 67.8999 100.422 67.7958 100.497 67.691L100.634 67.5V65.0566L100.684 64.9545C101.416 63.5056 102.147 61.3659 102.275 59.8105C101.356 59.7216 100.474 59.3137 99.8536 58.6812C99.7721 58.8291 99.6706 58.9763 99.5387 59.1271C97.7917 61.1324 92.3789 62.4968 87.6987 63.1932L87.7167 63.1939C87.7167 63.1939 83.8636 69.695 82.6831 71.1118C83.0701 70.9249 83.4543 70.7354 83.8348 70.5459C85.0781 69.9277 86.3624 69.2872 87.6402 68.8628L88.273 68.6546V75.7293C89.7657 73.2127 91.9926 70.4246 95.0737 68.8888L95.9545 68.4514L95.7607 69.4115C95.3657 71.3731 95.3447 73.1689 95.3613 74.5368C95.4255 76.4094 95.966 77.9186 96.7394 79.0632C97.0506 76.2802 98.3365 73.7735 98.9332 72.6118C98.2701 70.9982 99.1523 69.5858 100.277 68.0077Z" fill="#FCD21F"/>
<path fill-rule="evenodd" clip-rule="evenodd" d="M94.4693 75.5599C94.4506 75.5715 94.2078 73.0756 94.6322 70.2314C91.6023 72.0897 89.5309 75.2561 88.2783 77.7241C88.2942 81.9857 89.2643 85.0803 91.2377 87.1239C91.0812 85.8271 91.244 83.6162 91.3911 82.2126C91.7983 79.1845 92.5737 75.9433 93.0177 74.3429C93.0265 74.4004 93.2816 76.8281 93.2902 76.8855C93.9605 81.4665 95.0524 86.1194 97.732 87.116C96.7416 84.6093 96.6416 82.7956 96.5796 80.3708C95.4423 79.1523 94.563 76.978 94.4693 75.5599Z" fill="#FCD21F"/>
<path fill-rule="evenodd" clip-rule="evenodd" d="M85.4653 99.9463L87.0552 110.613C87.0552 110.613 89.2981 103.764 89.2952 103.76C88.3906 102.851 86.284 100.853 85.4653 99.9463Z" fill="#FCD21F"/>
<path fill-rule="evenodd" clip-rule="evenodd" d="M106.052 64.6053C109.673 64.5256 112.97 65.4124 113.903 68.072C120.61 67.9951 125.417 65.752 128.202 61.3691C125.545 62.607 123.803 63.6102 121.492 63.9483C119.184 64.2844 110.563 63.9683 109.934 63.3688C109.934 63.3688 107.234 64.2593 106.052 64.6053Z" fill="#FCD21F"/>
<path fill-rule="evenodd" clip-rule="evenodd" d="M92.7513 79.5084C92.492 80.9252 92.2872 82.2634 92.1834 83.6098C91.9276 87.7415 92.7513 89.5903 92.7513 89.5903L91.6674 88.7782C89.0542 86.8208 87.6386 83.7031 87.3626 79.2793C87.2472 79.4725 84.4652 84.0341 83.3647 85.5981L83.8959 89.1394L85.25 98.1551C86.1705 99.1962 87.3496 100.184 88.3601 101.233L88.9733 87.826L89.9124 89.8804C91.9161 95.2154 95.1801 98.7804 99.1852 100.057C98.2223 98.6116 94.0581 91.1434 94.0581 91.1434L95.563 92.1429C97.9542 93.732 99.9131 94.376 101.033 94.4334C103.148 94.5404 105.163 93.5739 105.163 93.5739C102.136 92.9471 100.334 91.2303 99.0441 89.5523C98.8502 89.3016 98.4199 88.5312 98.2764 88.3259C94.7608 87.5604 93.5522 83.7312 92.7513 79.5084Z" fill="#FCD21F"/>
<path fill-rule="evenodd" clip-rule="evenodd" d="M101.331 101.53C101.331 101.53 98.8521 101.095 97.3084 100.325C94.3196 98.8354 91.7666 96.168 89.944 92.3948L89.2954 103.76L92.7671 109.638L93.1346 109.448V101.237L99.6796 106.114L106.352 102.863C108.361 101.876 110.996 100.06 111.639 99.471C113.661 97.7772 116.148 95.6805 116.584 93.6807C116.833 92.2397 115.104 86.7273 117.502 84.0691C118.602 82.8506 120.235 82.1685 122.466 82.132C123.12 81.4261 123.7 80.4223 123.831 79.7846C122.309 79.5491 120.929 79.5714 119.693 79.8443C119.692 79.8414 117.522 80.1925 116.022 81.6931C114.34 83.3756 113.282 85.4916 112.859 88.5145C112.628 90.1538 111.422 92.1197 110.422 93.3289C108.555 95.4298 106.531 96.3174 106.179 96.4366C105.04 96.8215 103.878 96.698 103.091 96.5213C101.704 96.1401 98.3576 94.9201 96.5106 93.8336C96.7555 94.2875 101.331 101.53 101.331 101.53Z" fill="#FCD21F"/>
<path fill-rule="evenodd" clip-rule="evenodd" d="M99.1477 42.8084C99.6075 41.7398 99.9815 40.6349 100.237 39.4917L98.5747 41.696C98.8536 42.0083 99.0539 42.3882 99.1477 42.8084Z" fill="#FCD21F"/>
<path fill-rule="evenodd" clip-rule="evenodd" d="M96.7378 41.9409C95.9673 41.9409 95.3418 42.5656 95.3418 43.3339C95.3418 44.0986 95.9673 44.7225 96.7378 44.7225C97.5082 44.7225 98.1352 44.0986 98.1352 43.3339C98.1352 42.5656 97.5082 41.9409 96.7378 41.9409Z" fill="#FCD21F"/>
<path fill-rule="evenodd" clip-rule="evenodd" d="M100.48 38.1854C100.575 37.502 100.628 36.804 100.628 36.0953C100.647 35.8726 100.652 35.6652 100.666 35.4482L98.0073 37.5665L100.48 38.1854Z" fill="#FCD21F"/>
<path fill-rule="evenodd" clip-rule="evenodd" d="M92.266 57.1512C102.129 55.4624 107.619 53.7958 111.375 51.6669C111.187 50.391 109.248 48.3848 108.404 48.402C107.56 48.4198 91.4919 55.4989 86.5645 57.1512C88.0759 57.5253 89.9778 57.5381 92.266 57.1512Z" fill="#FCD21F"/>
<path fill-rule="evenodd" clip-rule="evenodd" d="M103.238 59.7911C103.122 61.5129 102.346 63.7652 101.596 65.2826V66.1965L111.646 52.6143C110.507 53.2418 109.131 53.8457 107.51 54.4272C106.664 56.8118 104.967 59.4305 103.238 59.7911Z" fill="#FCD21F"/>
<path fill-rule="evenodd" clip-rule="evenodd" d="M95.26 45.2959C95.1764 45.5285 95.0639 45.7482 94.9248 45.9485C95.5382 46.5093 95.9266 47.3092 95.9266 48.2039C95.9266 48.2492 95.9208 48.2959 95.9195 48.341C96.4925 47.5418 97.0437 46.7147 97.5591 45.8596C97.6167 45.7726 97.6751 45.6765 97.7349 45.5781C97.4301 45.713 97.0934 45.7898 96.7375 45.7898C96.1833 45.7898 95.6714 45.6054 95.26 45.2959Z" fill="#FCD21F"/>
<path fill-rule="evenodd" clip-rule="evenodd" d="M110.143 62.2831C110.914 62.0196 111.602 61.6907 112.326 61.3397C113.828 60.6138 115.382 59.8633 117.707 59.793C118.91 59.7528 119.808 60.0479 120.523 60.6567C120.801 60.8951 120.935 61.0546 121.1 61.4099C122.063 57.743 121.645 54.3819 118.394 53.269C115.143 52.1567 112.865 52.5825 112.865 52.5825L104.226 64.2584C105.699 63.6847 110.143 62.2831 110.143 62.2831Z" fill="#FCD21F"/>
<path fill-rule="evenodd" clip-rule="evenodd" d="M118.682 167.906C118.666 167.865 118.654 167.821 118.635 167.781L118.737 167.821C118.659 167.266 118.615 166.7 118.615 166.123C118.615 165.492 118.7 164.583 118.873 163.682L118.82 163.314C117.9 162.824 117.222 162.481 116.679 161.919C114.518 159.751 113.469 157.088 112.096 154.699C110.341 151.641 108.67 148.752 105.562 146.354C105.548 146.349 105.536 146.343 105.524 146.337C104.297 145.827 103.075 145.373 101.873 144.96L102.752 146.932L103.489 148.35C106.833 151.061 112.146 156.256 113.954 164.778C114.258 166.211 117.206 167.397 118.682 167.906Z" fill="#FCD21F"/>
<path fill-rule="evenodd" clip-rule="evenodd" d="M106.334 106.976C107.621 109.741 108.866 112.955 109.782 116.116C110.277 116.61 111.543 117.481 113.341 117.007L113.106 115.83C111.972 111.889 109.794 107.16 107.913 103.931L106.334 106.976Z" fill="#FCD21F"/>
<path fill-rule="evenodd" clip-rule="evenodd" d="M98.063 39.6816C98.063 39.6816 96.7201 40.8734 96.7375 40.8734C97.1217 40.8734 97.4828 40.9632 97.8071 41.119L99.4647 38.9189L95.8929 38.0242L100.721 34.1786V34.172C100.722 33.9918 100.718 33.8181 100.714 33.6436L93.1001 38.491L98.063 39.6816Z" fill="#FCD21F"/>
<path fill-rule="evenodd" clip-rule="evenodd" d="M108.481 102.834L108.462 102.869C110.577 106.121 112.677 110.878 114.008 115.495C115.33 116.765 117.239 117.18 119.196 117.2C119.228 117.053 119.001 116.093 118.927 115.803C117.259 109.999 115.812 105.615 112.198 102.388C111.874 102.403 110.68 102.582 109.49 102.278C109.144 102.469 108.809 102.652 108.481 102.834Z" fill="#FCD21F"/>
<path fill-rule="evenodd" clip-rule="evenodd" d="M106.28 156.081L101.35 147.213C98.7886 142.223 96.1961 136.992 96.168 137.056C95.5115 138.512 94.6588 139.861 93.6477 141.074C91.8992 143.172 89.6728 144.863 87.1504 145.979L93.6642 149.465L106.28 156.081Z" fill="#FFFFFE"/>
<path fill-rule="evenodd" clip-rule="evenodd" d="M66.6782 26.6026L65.5055 23.7642C64.867 24.0206 64.2695 24.3078 63.7334 24.643L65.1466 28.0207L66.6782 26.6026Z" fill="#FCD21F"/>
<path fill-rule="evenodd" clip-rule="evenodd" d="M117.798 99.2142C120.017 100.835 120.928 100.672 121.458 100.561C121.807 100.489 122.467 100.09 122.238 99.4332C121.663 98.17 119.246 95.5471 117.505 93.9731C117.261 94.4233 117.004 95.3963 115.916 96.5675C116.532 97.5834 117.371 98.5902 117.798 99.2142Z" fill="#FCD21F"/>
<path fill-rule="evenodd" clip-rule="evenodd" d="M112.6 99.9178C112.703 100.004 112.883 100.214 113.104 100.415C113.755 101.033 115.729 100.83 115.729 100.83C116.059 100.776 117.349 100.464 117.058 99.8238C116.752 99.1503 116.192 98.2657 115.319 97.2446C114.355 98.1413 113.484 99.1861 112.6 99.9178Z" fill="#FCD21F"/>
<path fill-rule="evenodd" clip-rule="evenodd" d="M131.066 154.792C127.516 154.792 124.345 156.413 122.26 158.952L142.182 163.726C141.078 158.619 136.522 154.792 131.066 154.792Z" fill="#FCD21F"/>
<path fill-rule="evenodd" clip-rule="evenodd" d="M145.587 100.466C143.813 100.387 142.86 99.8755 141.789 99.2803C141.636 99.1941 141.479 99.1058 141.315 99.0195C141.02 99.6428 140.636 100.046 140.147 100.247C139.067 100.692 137.676 100.09 135.661 99.095C135.577 99.5803 135.376 100.082 134.905 100.42C134.842 100.465 134.767 100.492 134.7 100.529C137.747 103.881 139.884 109.067 142.294 115.463C146.176 118.517 149.277 118.52 152.041 117.913C151.271 112.32 149.275 106.914 145.602 100.492C145.596 100.484 145.592 100.474 145.587 100.466Z" fill="#FCD21F"/>
<path fill-rule="evenodd" clip-rule="evenodd" d="M142.625 138.413C142.964 138.525 143.957 138.72 144.286 138.757C144.639 138.795 147.03 139.051 147.712 138.666C147.654 138.324 147.378 137.106 147.328 136.885C144.687 125.371 142.538 122.923 140.082 118.94C137.282 118.91 135.361 118 133.648 116.929C133.785 117.423 133.956 118.743 133.956 118.743C133.956 118.743 132.934 118.74 132.727 118.732C135.061 122.919 136.701 128.584 137.536 134.643C139.739 136.83 141.253 137.958 142.625 138.413Z" fill="#FCD21F"/>
<path fill-rule="evenodd" clip-rule="evenodd" d="M133.754 87.6893C137.688 90.909 140.908 94.9091 141.492 98.0297C141.76 98.169 142.015 98.3083 142.258 98.4433C143.319 99.0327 144.171 99.498 145.92 99.5211C146.488 99.5081 146.957 99.3142 147.102 99.1922C146.146 93.9693 141.507 89.5512 137.695 86.7163C136.905 87.6075 135.515 87.9313 133.754 87.6893Z" fill="#FCD21F"/>
<path fill-rule="evenodd" clip-rule="evenodd" d="M131.705 86.2043L131.986 86.2968C133.795 86.9014 135.918 87.127 136.9 86.1533C132.474 83.0098 127.782 80.8585 124.764 79.999C124.611 80.7185 124.138 81.5743 123.591 82.283C126.095 82.8086 128.986 84.2727 131.705 86.2043Z" fill="#FCD21F"/>
<path fill-rule="evenodd" clip-rule="evenodd" d="M121.479 158.21C121.626 158.031 122.103 157.549 122.592 157.085C122.434 156.586 122.304 156.181 122.24 155.98C121.739 153.602 120.651 151.767 119.087 150.284C118.771 151.401 117.772 152.921 117.772 152.921C118.951 154.119 119.454 154.743 120.279 156.191C120.563 156.682 121.012 157.564 121.406 158.304C121.43 158.272 121.455 158.237 121.479 158.21Z" fill="#FCD21F"/>
<path fill-rule="evenodd" clip-rule="evenodd" d="M131.49 153.73C133.08 153.783 134.596 154.131 135.981 154.724C136.076 154.059 136.252 152.685 136.325 151.997L132.002 151.263L131.49 153.73Z" fill="#FCD21F"/>
<path fill-rule="evenodd" clip-rule="evenodd" d="M111.874 100.51C111.597 100.717 110.622 101.396 110.526 101.45C111.516 101.65 112.413 101.462 112.627 101.277C112.423 101.093 112.011 100.628 111.874 100.51Z" fill="#FCD21F"/>
<path fill-rule="evenodd" clip-rule="evenodd" d="M76.6733 24.8232L77.0691 27.0478L77.5815 25.5212L76.6733 24.8232Z" fill="#FCD21F"/>
<path fill-rule="evenodd" clip-rule="evenodd" d="M77.9945 32.2654L78.4543 30.4201L77.3818 28.8145L77.9945 32.2654Z" fill="#FCD21F"/>
<path fill-rule="evenodd" clip-rule="evenodd" d="M80.8818 29.8524L82.2713 27.7723L81.6205 25.8301H78.4904L77.8403 27.7723L79.2306 29.8524H80.8818Z" fill="#FCD21F"/>
<path fill-rule="evenodd" clip-rule="evenodd" d="M75.3823 17.541L75.5979 18.7595L76.4116 17.541H75.3823Z" fill="#FCD21F"/>
<path fill-rule="evenodd" clip-rule="evenodd" d="M78.2902 20.731H81.8217L83.7986 19.4183L82.546 17.5415H77.568L76.314 19.4183L78.2902 20.731Z" fill="#FCD21F"/>
<path fill-rule="evenodd" clip-rule="evenodd" d="M78.7281 43.2363L77.1663 37.7871L75.2549 39.687C76.434 40.7583 77.5944 41.9446 78.7281 43.2363Z" fill="#FCD21F"/>
<path fill-rule="evenodd" clip-rule="evenodd" d="M75.8672 20.2729L76.2967 22.6978L77.3591 21.2667L75.8672 20.2729Z" fill="#FCD21F"/>
<path fill-rule="evenodd" clip-rule="evenodd" d="M71.0131 22.5908C70.5677 22.6216 70.1439 22.6734 69.7217 22.7266L69.9933 23.535L71.0131 22.5908Z" fill="#FCD21F"/>
<path fill-rule="evenodd" clip-rule="evenodd" d="M68.9805 29.6566L70.5149 28.1265L69.5527 25.25L67.8208 26.8527L68.9805 29.6566Z" fill="#FCD21F"/>
<path fill-rule="evenodd" clip-rule="evenodd" d="M69.2201 24.252L68.7574 22.8691C67.9192 23.0135 67.13 23.1944 66.4058 23.4271L67.4306 25.9079L69.2201 24.252Z" fill="#FCD21F"/>
<path fill-rule="evenodd" clip-rule="evenodd" d="M75.0192 38.5662L76.8636 36.7339L76.2423 34.5654L74.3223 36.4781L75.0192 38.5662Z" fill="#FCD21F"/>
<path fill-rule="evenodd" clip-rule="evenodd" d="M84.7295 17.541H83.6987L84.5132 18.7595L84.7295 17.541Z" fill="#FCD21F"/>
<path fill-rule="evenodd" clip-rule="evenodd" d="M73.9821 35.4614L75.939 33.5113L75.1072 30.6104L72.979 32.4622L73.9821 35.4614Z" fill="#FCD21F"/>
<path fill-rule="evenodd" clip-rule="evenodd" d="M72.651 31.4785L74.8152 29.5929L73.8358 26.1743L71.6167 28.3859L72.651 31.4785Z" fill="#FCD21F"/>
<path fill-rule="evenodd" clip-rule="evenodd" d="M71.2757 27.3704L73.5315 25.1215L72.7849 22.5186C72.6832 22.5194 72.5917 22.5293 72.4908 22.5309L70.3271 24.5327L71.2757 27.3704Z" fill="#FCD21F"/>
<path fill-rule="evenodd" clip-rule="evenodd" d="M87.1229 32.4626L84.9961 30.6108L84.1636 33.5116L86.1211 35.4619L87.1229 32.4626Z" fill="#FCD21F"/>
<path fill-rule="evenodd" clip-rule="evenodd" d="M91.1219 29.6566L92.2815 26.8527L90.5496 25.25L89.5874 28.1265L91.1219 29.6566Z" fill="#FCD21F"/>
<path fill-rule="evenodd" clip-rule="evenodd" d="M90.3801 22.7264C89.9592 22.674 89.5362 22.6223 89.0894 22.5908L90.1098 23.535L90.3801 22.7264Z" fill="#FCD21F"/>
<path fill-rule="evenodd" clip-rule="evenodd" d="M89.7757 24.5327L87.612 22.5309C87.5111 22.5293 87.4196 22.5192 87.3172 22.5186L86.5713 25.1208L88.8271 27.3704L89.7757 24.5327Z" fill="#FCD21F"/>
<path fill-rule="evenodd" clip-rule="evenodd" d="M88.4871 28.3864L86.268 26.1748L85.2871 29.5926L87.452 31.479L88.4871 28.3864Z" fill="#FCD21F"/>
<path fill-rule="evenodd" clip-rule="evenodd" d="M97.4796 30.3552L98.9058 27.0365C98.6866 26.7213 98.4488 26.4226 98.1915 26.1411C97.8845 25.8072 97.5407 25.5028 97.1739 25.2134L95.7095 28.7152L97.4796 30.3552Z" fill="#FCD21F"/>
<path fill-rule="evenodd" clip-rule="evenodd" d="M94.9558 28.0212L96.369 24.6435C95.8342 24.3083 95.2353 24.0217 94.5982 23.7646L93.4248 26.6031L94.9558 28.0212Z" fill="#FCD21F"/>
<path fill-rule="evenodd" clip-rule="evenodd" d="M93.6971 23.4266C92.9734 23.194 92.1842 23.013 91.3461 22.8687L90.8833 24.2516L92.6714 25.9074L93.6971 23.4266Z" fill="#FCD21F"/>
<path fill-rule="evenodd" clip-rule="evenodd" d="M80.0653 21.7319H80.0459L78.3182 21.7628L76.7773 23.6906L78.309 24.8732H81.8024L83.3345 23.6906L81.7943 21.7628L80.0653 21.7319Z" fill="#FCD21F"/>
<path fill-rule="evenodd" clip-rule="evenodd" d="M83.0426 27.0483L83.4382 24.8237L82.5308 25.5217L83.0426 27.0483Z" fill="#FCD21F"/>
<path fill-rule="evenodd" clip-rule="evenodd" d="M99.693 32.4027H99.7017C100.019 32.3776 100.336 32.3697 100.651 32.3603C100.506 30.7124 100.137 29.2764 99.5129 28.0586L98.2271 31.0471L99.693 32.4027Z" fill="#FCD21F"/>
<path fill-rule="evenodd" clip-rule="evenodd" d="M82.1177 32.2654L82.7304 28.8145L81.6572 30.4201L82.1177 32.2654Z" fill="#FCD21F"/>
<path fill-rule="evenodd" clip-rule="evenodd" d="M83.8136 22.6978L84.2446 20.2729L82.7671 21.2674L83.8136 22.6978Z" fill="#FCD21F"/>
<path fill-rule="evenodd" clip-rule="evenodd" d="M81.3826 43.2363C82.5171 41.9446 84.9502 39.5922 84.8465 39.687L82.938 37.7871L81.374 43.2363H81.3826Z" fill="#FCD21F"/>
<path fill-rule="evenodd" clip-rule="evenodd" d="M85.7812 36.4778L83.8604 34.5649L83.2393 36.7334L85.0828 38.5659L85.7812 36.4778Z" fill="#FCD21F"/>
<path fill-rule="evenodd" clip-rule="evenodd" d="M80.0813 117.441L90.9525 136.718H69.1105L80.0813 117.441ZM80.087 114.886L66.9453 137.974H93.1097L80.087 114.886Z" fill="#F07D00"/>
</svg>
