<svg width="280" height="181" viewBox="0 0 280 181" fill="none" xmlns="http://www.w3.org/2000/svg">
<mask id="mask0" mask-type="alpha" maskUnits="userSpaceOnUse" x="161" y="101" width="110" height="73">
<path d="M177.415 101.562H270.221V173.784H161.165L177.415 101.562Z" fill="#C4C4C4"/>
</mask>
<g mask="url(#mask0)">
<path d="M153.645 127.562H257.222V149.229H143.833L153.645 127.562Z" fill="#0066B1"/>
<path d="M152.52 151.396H244.222V173.063H143.833L152.52 151.396Z" fill="#F07D00"/>
<path d="M154.77 103.729H270.222V125.395H143.833L154.77 103.729Z" fill="#F07D00"/>
</g>
<g clip-path="url(#clip0)">
<path fill-rule="evenodd" clip-rule="evenodd" d="M147.733 96.3213V96.3045C149.442 95.7995 151.249 95.5227 153.122 95.5227C154.968 95.5227 156.752 95.7907 158.44 96.2824C158.918 96.4204 159.386 96.5743 159.847 96.7485L155.968 71.1487L153.137 52.4512L150.304 71.1434C150.312 71.1451 150.321 71.1469 150.33 71.1487L146.452 96.7485C146.871 96.5893 147.3 96.4496 147.733 96.3213Z" fill="white"/>
<path fill-rule="evenodd" clip-rule="evenodd" d="M170.735 107.266L181.454 86.917C181.454 86.917 160.792 97.1246 160.847 97.152C165.181 99.1907 168.951 102.82 170.735 107.266Z" fill="white"/>
<path fill-rule="evenodd" clip-rule="evenodd" d="M207.934 114.909C207.934 114.909 170.836 107.733 170.857 107.79C171.557 109.766 172.121 112.24 172.121 114.426C172.121 116.896 171.707 119.257 170.837 121.42C170.828 121.447 207.934 114.909 207.934 114.909Z" fill="white"/>
<path fill-rule="evenodd" clip-rule="evenodd" d="M134.178 114.424C134.178 112.236 134.742 109.762 135.443 107.785C135.463 107.728 98.3638 114.906 98.3638 114.906C98.3638 114.906 135.471 121.445 135.461 121.417C134.59 119.255 134.178 116.894 134.178 114.424Z" fill="white"/>
<path fill-rule="evenodd" clip-rule="evenodd" d="M135.561 107.266C137.345 102.823 141.111 99.1968 145.442 97.1555C145.499 97.1281 124.843 86.917 124.843 86.917L135.561 107.266Z" fill="white"/>
<path fill-rule="evenodd" clip-rule="evenodd" d="M145.834 131.882C142.991 130.704 140.466 128.781 138.519 126.463C137.43 125.166 136.513 123.72 135.806 122.161C135.776 122.091 132.869 127.695 130.111 133.039L124.805 142.537L139.329 135.178L145.834 131.882Z" fill="white"/>
<path fill-rule="evenodd" clip-rule="evenodd" d="M139.037 123.143L153.181 98.4155L167.2 123.143H139.037ZM170.761 114.424C170.761 106.484 165.434 99.7581 158.149 97.5991C156.553 97.1259 154.868 96.8677 153.12 96.8677C151.393 96.8677 149.724 97.1215 148.144 97.5859C148.146 97.5903 148.146 97.5929 148.148 97.5991C140.864 99.7581 135.534 106.484 135.534 114.424C135.534 118.489 136.932 122.231 139.269 125.209C142.503 129.29 147.506 131.983 153.12 131.983C158.766 131.983 163.796 129.329 167.027 125.209C169.363 122.231 170.761 118.489 170.761 114.424Z" fill="#F07D00"/>
<path fill-rule="evenodd" clip-rule="evenodd" d="M159.003 137.546L159.776 132.13C157.704 132.903 155.461 133.329 153.12 133.329C150.749 133.329 148.479 132.892 146.384 132.099L147.115 137.076L147.938 142.676L153.181 178.372L158.33 142.273L159.003 137.546Z" fill="white"/>
<path fill-rule="evenodd" clip-rule="evenodd" d="M181.375 142.537L176.068 133.039C173.311 127.695 170.52 122.092 170.49 122.161C169.783 123.72 168.866 125.166 167.777 126.464C165.895 128.712 163.499 130.522 160.783 131.718L167.795 135.451L181.375 142.537Z" fill="white"/>
<path fill-rule="evenodd" clip-rule="evenodd" d="M139.038 123.144L153.236 98.416L167.201 123.144H139.038Z" fill="#0066B1"/>
</g>
<path d="M122.571 34.8279C129.658 35.9835 135.089 38.6413 138.864 42.8013C142.639 46.8843 144.526 51.9687 144.526 58.0547C144.526 62.7539 143.294 67.1065 140.828 71.1125C138.363 75.0414 134.588 78.1999 129.504 80.5881C124.497 82.9762 118.334 84.1703 111.015 84.1703C105.314 84.1703 99.6906 83.4384 94.1439 81.9747C88.6742 80.434 84.0135 78.2769 80.1616 75.5036L87.4416 61.1747C90.5231 63.4858 94.0669 65.2962 98.0728 66.6058C102.156 67.8384 106.316 68.4547 110.553 68.4547C115.252 68.4547 118.95 67.5688 121.646 65.7969C124.343 63.948 125.691 61.3673 125.691 58.0547C125.691 51.4295 120.645 48.1168 110.553 48.1168H102.002V35.7524L118.642 16.9167H84.2061V1.89448H140.828V14.0279L122.571 34.8279Z" fill="white"/>
<path d="M193.614 84.1703C186.912 84.1703 180.941 82.514 175.703 79.2014C170.464 75.8888 166.343 71.1125 163.338 64.8725C160.411 58.5554 158.947 51.0443 158.947 42.3391C158.947 33.6338 160.411 26.1612 163.338 19.9212C166.343 13.6041 170.464 8.78932 175.703 5.47672C180.941 2.16411 186.912 0.507812 193.614 0.507812C200.316 0.507812 206.287 2.16411 211.525 5.47672C216.764 8.78932 220.847 13.6041 223.774 19.9212C226.779 26.1612 228.281 33.6338 228.281 42.3391C228.281 51.0443 226.779 58.5554 223.774 64.8725C220.847 71.1125 216.764 75.8888 211.525 79.2014C206.287 82.514 200.316 84.1703 193.614 84.1703ZM193.614 68.3391C198.544 68.3391 202.396 66.2206 205.17 61.9836C208.02 57.7465 209.445 51.1983 209.445 42.3391C209.445 33.4798 208.02 26.9316 205.17 22.6945C202.396 18.4575 198.544 16.339 193.614 16.339C188.761 16.339 184.909 18.4575 182.058 22.6945C179.285 26.9316 177.898 33.4798 177.898 42.3391C177.898 51.1983 179.285 57.7465 182.058 61.9836C184.909 66.2206 188.761 68.3391 193.614 68.3391Z" fill="white"/>
<path d="M33.1005 132.618L33.0499 111.435L22.6354 128.876H18.9954L8.58095 111.839V132.618H0.896484V97.2286H7.67095L20.9165 119.22L33.9599 97.2286H40.7344L40.7849 132.618H33.1005Z" fill="white"/>
<path d="M78.6693 97.2286V132.618H70.5804V119.878C67.5134 120.99 64.6654 121.546 62.0365 121.546C57.2843 121.546 53.6443 120.417 51.1165 118.159C48.5887 115.867 47.3248 112.581 47.3248 108.3V97.2286H55.4137V107.39C55.4137 109.817 56.0541 111.654 57.3348 112.901C58.6493 114.114 60.5367 114.721 62.9971 114.721C65.6934 114.721 68.2212 114.198 70.5804 113.154V97.2286H78.6693Z" fill="white"/>
<path d="M105.212 133.224C101.606 133.224 98.3367 132.449 95.4045 130.899C92.5059 129.315 90.2141 127.141 88.5289 124.377C86.8774 121.58 86.0517 118.428 86.0517 114.923C86.0517 111.418 86.8774 108.283 88.5289 105.52C90.2141 102.722 92.5059 100.548 95.4045 98.9981C98.3367 97.414 101.623 96.6219 105.263 96.6219C108.33 96.6219 111.094 97.1612 113.554 98.2397C116.048 99.3183 118.138 100.869 119.823 102.891L114.565 107.744C112.172 104.98 109.206 103.599 105.667 103.599C103.477 103.599 101.522 104.087 99.8028 105.065C98.0839 106.008 96.7358 107.34 95.7584 109.059C94.8147 110.778 94.3428 112.732 94.3428 114.923C94.3428 117.114 94.8147 119.069 95.7584 120.788C96.7358 122.506 98.0839 123.855 99.8028 124.832C101.522 125.776 103.477 126.248 105.667 126.248C109.206 126.248 112.172 124.849 114.565 122.051L119.823 126.905C118.138 128.961 116.048 130.528 113.554 131.607C111.06 132.685 108.279 133.224 105.212 133.224Z" fill="white"/>
<path d="M27.9871 140.562C29.7782 140.562 31.3286 140.861 32.6383 141.458C33.9671 142.055 34.9879 142.902 35.7005 144C36.4131 145.098 36.7694 146.398 36.7694 147.9C36.7694 149.383 36.4131 150.683 35.7005 151.8C34.9879 152.898 33.9671 153.745 32.6383 154.342C31.3286 154.92 29.7782 155.209 27.9871 155.209H23.9138V160.784H19.2338V140.562H27.9871ZM27.7271 151.395C29.1331 151.395 30.2019 151.097 30.9338 150.5C31.6657 149.884 32.0316 149.017 32.0316 147.9C32.0316 146.764 31.6657 145.897 30.9338 145.3C30.2019 144.684 29.1331 144.375 27.7271 144.375H23.9138V151.395H27.7271Z" fill="white"/>
<path d="M47.3396 161.015C45.7025 161.015 44.2292 160.678 42.9196 160.004C41.6292 159.311 40.6181 158.358 39.8862 157.144C39.1544 155.931 38.7884 154.554 38.7884 153.013C38.7884 151.472 39.1544 150.095 39.8862 148.882C40.6181 147.669 41.6292 146.725 42.9196 146.051C44.2292 145.358 45.7025 145.011 47.3396 145.011C48.9766 145.011 50.4403 145.358 51.7307 146.051C53.0211 146.725 54.0322 147.669 54.764 148.882C55.4959 150.095 55.8618 151.472 55.8618 153.013C55.8618 154.554 55.4959 155.931 54.764 157.144C54.0322 158.358 53.0211 159.311 51.7307 160.004C50.4403 160.678 48.9766 161.015 47.3396 161.015ZM47.3396 157.318C48.4951 157.318 49.4388 156.933 50.1707 156.162C50.9218 155.373 51.2974 154.323 51.2974 153.013C51.2974 151.704 50.9218 150.664 50.1707 149.893C49.4388 149.104 48.4951 148.709 47.3396 148.709C46.184 148.709 45.2307 149.104 44.4796 149.893C43.7285 150.664 43.3529 151.704 43.3529 153.013C43.3529 154.323 43.7285 155.373 44.4796 156.162C45.2307 156.933 46.184 157.318 47.3396 157.318Z" fill="white"/>
<path d="M66.9349 161.015C65.2786 161.015 63.786 160.678 62.4571 160.004C61.1475 159.311 60.1171 158.358 59.366 157.144C58.6341 155.931 58.2682 154.554 58.2682 153.013C58.2682 151.472 58.6341 150.095 59.366 148.882C60.1171 147.669 61.1475 146.725 62.4571 146.051C63.786 145.358 65.2786 145.011 66.9349 145.011C68.5719 145.011 69.9971 145.358 71.2104 146.051C72.443 146.725 73.3386 147.698 73.8971 148.969L70.4016 150.847C69.5927 149.421 68.4275 148.709 66.906 148.709C65.7312 148.709 64.7586 149.094 63.9882 149.864C63.2178 150.635 62.8326 151.684 62.8326 153.013C62.8326 154.342 63.2178 155.392 63.9882 156.162C64.7586 156.933 65.7312 157.318 66.906 157.318C68.4467 157.318 69.6119 156.605 70.4016 155.18L73.8971 157.087C73.3386 158.319 72.443 159.282 71.2104 159.975C69.9971 160.669 68.5719 161.015 66.9349 161.015Z" fill="white"/>
<path d="M84.4116 161.015C82.7553 161.015 81.2627 160.678 79.9338 160.004C78.6242 159.311 77.5938 158.358 76.8427 157.144C76.1108 155.931 75.7449 154.554 75.7449 153.013C75.7449 151.472 76.1108 150.095 76.8427 148.882C77.5938 147.669 78.6242 146.725 79.9338 146.051C81.2627 145.358 82.7553 145.011 84.4116 145.011C86.0486 145.011 87.4738 145.358 88.6872 146.051C89.9198 146.725 90.8153 147.698 91.3738 148.969L87.8783 150.847C87.0694 149.421 85.9042 148.709 84.3827 148.709C83.2079 148.709 82.2353 149.094 81.4649 149.864C80.6945 150.635 80.3094 151.684 80.3094 153.013C80.3094 154.342 80.6945 155.392 81.4649 156.162C82.2353 156.933 83.2079 157.318 84.3827 157.318C85.9234 157.318 87.0886 156.605 87.8783 155.18L91.3738 157.087C90.8153 158.319 89.9198 159.282 88.6872 159.975C87.4738 160.669 86.0486 161.015 84.4116 161.015Z" fill="white"/>
<path d="M94.6902 145.242H99.168V154.487L106.737 145.242H110.868V160.784H106.39V151.54L98.8502 160.784H94.6902V145.242Z" fill="white"/>
<path d="M115.778 145.242H120.256V154.487L127.825 145.242H131.956V160.784H127.478V151.54L119.938 160.784H115.778V145.242Z" fill="white"/>
<path d="M242.517 67.2419V82.7841H238.01V70.9396H233.099L232.954 73.6841C232.877 75.7256 232.685 77.4204 232.377 78.7686C232.069 80.1167 231.568 81.176 230.874 81.9463C230.181 82.7167 229.218 83.1019 227.986 83.1019C227.331 83.1019 226.551 82.9863 225.646 82.7552L225.877 79.0574C226.185 79.096 226.406 79.1152 226.541 79.1152C227.215 79.1152 227.716 78.8745 228.043 78.393C228.39 77.8923 228.621 77.2663 228.737 76.5152C228.852 75.7448 228.939 74.7337 228.997 73.4819L229.228 67.2419H242.517Z" fill="white"/>
<path d="M262.537 75.0708C262.537 75.1285 262.508 75.533 262.451 76.2841H250.693C250.905 77.2471 251.405 78.0078 252.195 78.5663C252.985 79.1249 253.967 79.4041 255.142 79.4041C255.951 79.4041 256.663 79.2886 257.279 79.0574C257.915 78.8071 258.502 78.4219 259.042 77.9019L261.439 80.5019C259.976 82.1775 257.838 83.0152 255.026 83.0152C253.273 83.0152 251.723 82.6782 250.375 82.0041C249.027 81.3108 247.987 80.3575 247.255 79.1441C246.523 77.9308 246.157 76.5537 246.157 75.013C246.157 73.4915 246.513 72.1241 247.226 70.9108C247.958 69.6782 248.95 68.7248 250.202 68.0507C251.473 67.3574 252.888 67.0107 254.448 67.0107C255.97 67.0107 257.347 67.3382 258.579 67.993C259.812 68.6478 260.775 69.5915 261.468 70.8241C262.181 72.0374 262.537 73.453 262.537 75.0708ZM254.477 70.4196C253.456 70.4196 252.599 70.7085 251.906 71.2863C251.213 71.8641 250.789 72.6537 250.635 73.6552H258.291C258.136 72.673 257.713 71.893 257.019 71.3152C256.326 70.7182 255.479 70.4196 254.477 70.4196Z" fill="white"/>
<path d="M279.091 70.9396H273.833V82.7841H269.356V70.9396H264.098V67.2419H279.091V70.9396Z" fill="white"/>
<defs>
<clipPath id="clip0">
<rect width="109.778" height="127.834" fill="white" transform="translate(98.3325 52.4512)"/>
</clipPath>
</defs>
</svg>
